<?xml version="1.0" encoding="utf-8"?>
<!-- Generator: Adobe Illustrator 27.7.0, SVG Export Plug-In . SVG Version: 6.00 Build 0)  -->
<svg version="1.1" id="logo" xmlns="http://www.w3.org/2000/svg" xmlns:xlink="http://www.w3.org/1999/xlink" x="0px" y="0px" width="1200px" height="1305px"
	 viewBox="0 0 1200 1305" style="enable-background:new 0 0 1200 1305;" xml:space="preserve">
<style type="text/css">
	.st0{fill:#FA4616;}
	.st2{font-family:'PalatinoLinotype-Bold';}
	.st3{font-size:18px;}
	.st4{display:none;}
	.st5{display:inline;fill:#0021A5;}
</style>
<g>
	<polygon fill="#FA4616" points="55.799999,2.715137 55.799999,36.915138 57.400002,36.915138 57.400002,2.715137 	"/>
	<g>
		<polygon class="st1" points="36.099998,30.715136 36.099998,22.115137 44,22.115137 44,16.415136 36.099998,16.415136 
			36.099998,8.315137 44.799999,8.315137 44.799999,11.515137 50.599998,11.515137 50.599998,2.715137 27.5,2.715137 27.5,8.315137 
			29.6,8.315137 29.6,30.715136 27.5,30.715136 27.5,36.415138 38.099998,36.415138 38.099998,30.715136 		"/>
		<path class="st1" d="M24.5,23.715136V8.315137h2.1v-5.6H15.9v5.599999H18v13.4c0,5.6-0.6,8.299999-4.7,8.299999
			c-4,0-4.7-2.700001-4.7-8.299999V8.315137h2.1v-5.6H0v5.599999h2.1v15.300001c0,3.4,0,6.1,1.6,8.6
			c1.8,2.800003,5,4.600002,9.6,4.600002C21.5,36.81514,24.5,32.515137,24.5,23.715136L24.5,23.715136z"/>
	</g>
	<text transform="matrix(1 0 0 1 62.025146 15.591187)" class="st1 st2 st3">Web Services</text>
	<g class="st4">
		<path class="st5" d="M62.5,27.315136v-0.6h2.300003h0.900002h0.900002h0.300003v0.6c-0.5,0-0.800003,0-1,0.1
			c-0.099998,0-0.099998,0.1-0.099998,0.200001c-0.099998,0.299999-0.099998,0.9-0.099998,1.9v1.6v0.799999c0,0.9,0,1.400003,0,1.6
			c0,0.400002,0.199997,0.799999,0.300003,1.099998s0.5,0.5,0.800003,0.700001
			c0.400002,0.200001,0.800003,0.299999,1.400002,0.299999c0.699997,0,1.199997-0.099998,1.599998-0.299999
			s0.699997-0.5,0.800003-0.900002c0.199997-0.400002,0.199997-1,0.199997-2v-1.400002c0-1.200001,0-2,0-2.299999
			c0-0.6-0.099998-1-0.099998-1.1s-0.099998-0.1-0.199997-0.200001c-0.199997-0.1-0.5-0.1-1-0.1v-0.6c0.800003,0,1.400002,0,1.5,0
			c0,0,0.099998,0,0.199997,0h1.599998v0.6c-0.400002,0-0.699997,0-0.800003,0.1c-0.099998,0-0.099998,0.1-0.099998,0.200001
			s-0.099998,0.6-0.099998,1.4c0,0.9-0.099998,1.5-0.099998,2v1.700001c0,0.400002,0,0.900002-0.099998,1.300003
			c-0.099998,0.5-0.199997,0.799999-0.400002,1.200001c-0.199997,0.299999-0.400002,0.599998-0.800003,0.900002
			c-0.300003,0.299999-0.699997,0.5-1.199997,0.599998s-1,0.200001-1.599998,0.200001c-0.699997,0-1.400002-0.099998-2-0.299999
			c-0.400002-0.099998-0.800003-0.299999-1.099998-0.599998c-0.300003-0.200001-0.5-0.5-0.700001-0.799999
			s-0.200001-0.599998-0.299999-0.799999c0-0.200001,0-0.599998,0-1.400002v-1.300001v-1.800003c0-0.700001,0-1.299999,0-1.799999
			c0-0.200001,0-0.4-0.099998-0.5c0,0-0.099998-0.1-0.200001-0.200001L62.5,27.315136z"/>
		<path class="st5" d="M73.900002,36.015137c0.599998,0,0.900002,0,1-0.099998C75,35.915138,75,35.915138,75,35.81514
			c0,0,0.099998-0.099998,0.099998-0.299999s0.099998-0.599998,0.099998-1.299999c0-0.400002,0-0.900002,0-1.5V30.41514v-2
			c0-0.299999,0-0.6,0-0.700001s-0.099998-0.200001-0.099998-0.200001c-0.099998,0-0.099998-0.1-0.199997-0.1
			s-0.400002-0.1-0.900002-0.1v-0.6c0.599998,0,1,0,1.300003,0h1H77c1,1.299999,2.099998,2.700001,3.5,4.4
			c1,1.200003,1.800003,2.1,2.5,2.800001v-1.600002c0-2.5,0-4-0.099998-4.5c0-0.200001-0.099998-0.299999-0.099998-0.299999
			c-0.099998-0.1-0.5-0.1-1.099998-0.1v-0.6c0.599998,0,1.099998,0,1.599998,0s1.099998,0,1.800003,0v0.6
			c-0.599998,0-0.900002,0.1-1,0.1l-0.099998,0.1c-0.099998,0.200001-0.099998,0.799999-0.099998,1.6s0,1.5,0,1.9
			c0,3.1,0,5.000002,0.099998,5.700003l-0.099998,0.099998c-0.400002-0.099998-0.800003-0.099998-1.199997-0.200001
			C81,34.915138,78.800003,32.315136,76,28.915136v3.500002c0,0.700001,0,1.5,0.099998,2.299999c0,0.5,0.099998,0.900002,0.099998,1
			s0.099998,0.099998,0.099998,0.099998c0.099998,0,0.099998,0.099998,0.199997,0.099998c0.300003,0,0.5,0,0.699997,0h0.099998
			v0.599998c-0.900002,0-1.400002,0-1.5,0c-0.5,0-1.099998,0-1.900002,0L73.900002,36.015137L73.900002,36.015137z"/>
		<path class="st5" d="M90.599998,26.715136v0.6c-0.5,0-0.800003,0-0.800003,0c-0.099998,0-0.199997,0-0.199997,0.1
			s-0.099998,0.1-0.099998,0.1c0,0.1-0.099998,0.200001-0.099998,0.5c0,0.1,0,0.4,0,0.700001c0,1.200001,0,1.799999,0,1.9v2.800001
			v1.299999c0,0.5,0,0.799999,0.099998,1c0,0.099998,0.099998,0.099998,0.099998,0.200001
			c0.099998,0,0.099998,0.099998,0.199997,0.099998s0.400002,0,0.800003,0v0.599998c-0.800003,0-1.599998,0-2.5,0
			c-0.800003,0-1.400002,0-2,0v-0.599998c0.5,0,0.800003,0,0.800003,0c0.099998,0,0.199997,0,0.199997-0.099998l0.099998-0.099998
			c0,0,0-0.299999,0.099998-0.700001c0-0.599998,0.099998-1.099998,0.099998-1.599998v-3.000002c0-0.9,0-1.5,0-1.799999
			c0-0.6-0.099998-1-0.099998-1.1s0-0.1-0.099998-0.1c0,0-0.099998-0.1-0.199997-0.1s-0.400002,0-0.900002-0.1v-0.6
			c0.599998,0,1.300003,0,2,0C89,26.815136,89.800003,26.815136,90.599998,26.715136z"/>
		<path class="st5" d="M96.300003,36.715137c-0.400002-1-0.800003-1.900002-1.199997-2.799999l-1-2.400002
			c-0.800003-1.9-1.300003-3-1.400002-3.4c-0.199997-0.4-0.300003-0.6-0.400002-0.6c-0.099998-0.1-0.400002-0.1-0.900002-0.1v-0.6
			c1.099998,0,1.800003,0,2.099998,0H96v0.6c-0.400002,0-0.699997,0-0.900002,0.1c-0.099998,0-0.199997,0.1-0.199997,0.1
			s-0.099998,0.1-0.099998,0.200001s0.199997,0.6,0.5,1.299999c0.199997,0.4,0.300003,0.700001,0.300003,0.700001
			s0,0.1,0.099998,0.1l1.800003,4.400002l1.599998-3.900002c0-0.1,0.199997-0.5,0.5-1.299999
			c0.199997-0.6,0.300003-0.9,0.400002-1.1c0,0,0-0.1,0-0.200001s0-0.1,0-0.200001s-0.099998-0.1-0.099998-0.1
			s-0.099998,0-0.300003,0c-0.300003,0-0.599998,0-0.800003,0v-0.6h1.800003h1.5v0.6c-0.5,0-0.699997,0.1-0.800003,0.1
			c-0.099998,0.1-0.400002,0.6-0.800003,1.6l-0.5,1.200001l-1,2.099998c-0.800003,1.900002-1.300003,3.300003-1.699997,4.100002
			L96.300003,36.715137L96.300003,36.715137z"/>
		<path class="st5" d="M103.199997,36.615139v-0.400002c0.300003-0.099998,0.5-0.299999,0.699997-0.400002
			c0-0.200001,0.099998-0.5,0.099998-1c0-0.799999,0.099998-1.400002,0.099998-1.799999v-3.1c0-0.1,0-0.6,0-1.4
			c0-0.5-0.099998-0.9-0.099998-1l-0.099998-0.1c-0.099998-0.1-0.5-0.1-1-0.1v-0.5h1.599998c0.300003,0,0.599998,0,0.900002,0
			c0.699997,0,1.400002,0,2.199997,0h1.400002c0.199997,0,0.5,0,1,0c0.099998,0,0.099998,0,0.199997,0l0.099998,0.1l-0.099998,1
			c0,0.1,0,0.4-0.099998,1h-0.599998c0-0.6,0-0.9-0.099998-1c0-0.1-0.099998-0.1-0.099998-0.1
			c-0.099998,0-0.199997-0.1-0.599998-0.1c-0.5,0-0.900002-0.1-1.400002-0.1c-0.400002,0-0.800003,0-1.300003,0
			c-0.099998,0.5-0.099998,1.200001-0.099998,2v1.5c0.300003,0,0.699997,0,1,0c0.099998,0,0.5,0,1.199997,0
			c0.300003,0,0.400002,0,0.400002,0c0.099998,0,0.099998-0.1,0.099998-0.1c0.099998-0.200001,0.099998-0.5,0.099998-0.9h0.599998
			v1.5v1.5h-0.599998c0-0.5,0-0.900002-0.099998-1c-0.099998-0.100002-0.199997-0.100002-0.300003-0.200003
			c-0.300003,0-0.800003-0.1-1.300003-0.1s-0.800003,0-1.099998,0v3c0,0.299999,0,0.599998,0,0.799999
			c0.400002,0,0.800003,0,1.300003,0s1,0,1.400002,0s0.699997-0.099998,0.800003-0.099998l0.099998-0.099998
			c0.099998-0.200001,0.199997-0.700001,0.300003-1.299999h0.599998c-0.099998,0.900002-0.199997,1.700001-0.199997,2.299999
			l-0.099998,0.099998c-0.300003,0-0.699997,0-1.300003,0h-1.099998c-1.099998,0-1.900002,0-2.300003,0
			C105.400002,36.515137,104.599998,36.615139,103.199997,36.615139z"/>
		<path class="st5" d="M111.699997,27.315136v-0.6c0.099998,0,0.5,0,1.099998,0c0.300003,0,0.800003,0,1.300003,0
			s0.900002,0,1.300003,0c0.599998,0,1.099998,0,1.400002,0c0.699997,0,1.300003,0,1.699997,0.200001
			s0.699997,0.299999,0.900002,0.700001s0.400002,0.700001,0.400002,1.200001c0,0.6-0.199997,1.1-0.5,1.5
			c-0.400002,0.5-0.900002,0.799999-1.599998,1.1c0.099998,0.200001,0.300003,0.4,0.400002,0.600002
			c0.099998,0.200001,0.199997,0.399998,0.300003,0.399998l0.099998,0.100002l1.099998,1.599998
			c0.300003,0.400002,0.400002,0.700001,0.5,0.700001c0.400002,0.5,0.599998,0.799999,0.699997,0.799999
			C120.900002,35.715137,121,35.715137,121,35.81514s0.199997,0,0.400002,0.099998v0.599998c-0.699997,0-1.300003,0-1.599998,0
			c-0.400002,0-0.800003,0-1.099998,0c0-0.099998-0.099998-0.200001-0.199997-0.400002l-1.5-2.5
			c-0.400002-0.700001-0.800003-1.299999-1.099998-1.700003c-0.199997-0.200001-0.300003-0.4-0.400002-0.5l0.099998-0.200001
			c0.599998,0,1,0,1.300003-0.200001c0.300003-0.1,0.5-0.4,0.699997-0.700001c0.199997-0.4,0.300003-0.700001,0.300003-1.200001
			s-0.099998-0.799999-0.300003-1.1c-0.199997-0.299999-0.5-0.5-0.800003-0.6c-0.199997-0.1-0.599998-0.1-1.099998-0.1
			c-0.199997,0-0.400002,0-0.699997,0.1c0,0.200001,0,0.5,0,1.1c0,1.299999,0,2.200001,0,2.700001c0,0.700001,0,1.5,0,2.300003
			c0,1,0,1.5,0,1.700001c0,0.299999,0,0.400002,0.099998,0.5l0.099998,0.099998c0,0,0.099998,0,0.199997,0.099998
			c0.099998,0,0.400002,0,0.800003,0v0.599998c-0.800003,0-1.599998,0-2.400002,0c-0.699997,0-1.400002,0-2,0v-0.599998
			c0.5,0,0.800003,0,0.900002-0.099998c0.099998,0,0.099998,0,0.099998-0.099998s0.099998-0.099998,0.099998-0.200001
			c0-0.200001,0.099998-0.5,0.099998-0.799999l0.099998-2.100002v-2.6v-1.5c0-0.6,0-0.9-0.099998-1.1l-0.099998-0.1
			C112.699997,27.415136,112.300003,27.315136,111.699997,27.315136z"/>
		<path class="st5" d="M128.899994,29.315136h-0.600006c0-0.5,0-0.9-0.100006-1.200001
			c-0.100006-0.200001-0.400002-0.4-0.800003-0.5c-0.400002-0.200001-0.800003-0.200001-1.199997-0.200001
			c-0.599998,0-1.099998,0.200001-1.5,0.5c-0.300003,0.299999-0.5,0.700001-0.5,1.1c0,0.299999,0.099998,0.6,0.199997,0.799999
			c0.099998,0.200001,0.199997,0.299999,0.400002,0.5c0.199997,0.1,0.5,0.200001,0.800003,0.299999
			c0.300003,0,0.699997,0.1,1.099998,0.200001c0.5,0.1,0.800003,0.1,0.900002,0.200001c0.400002,0.1,0.700005,0.200001,0.900002,0.4
			c0.199997,0.1,0.399994,0.299999,0.600006,0.5s0.300003,0.400002,0.300003,0.700001
			c0,0.300003,0.100006,0.600002,0.100006,0.900002c0,0.599998-0.100006,1.099998-0.399994,1.599998
			c-0.199997,0.299999-0.399994,0.700001-0.800003,0.900002c-0.300003,0.299999-0.699997,0.5-1,0.599998
			c-0.599998,0.200001-1.199997,0.299999-2,0.299999c-0.599998,0-1.099998,0-1.599998-0.200001
			c-0.400002-0.099998-0.900002-0.299999-1.5-0.599998c0.199997-0.5,0.199997-1.400002,0.199997-2.5H123
			c0,0.299999,0,0.799999,0.099998,1.299999c0.199997,0.299999,0.5,0.5,0.900002,0.799999
			c0.400002,0.200001,0.900002,0.299999,1.400002,0.299999c0.400002,0,0.800003-0.099998,1.199997-0.200001
			s0.599998-0.400002,0.800003-0.700001s0.199997-0.599998,0.199997-1c0-0.299999-0.099998-0.5-0.199997-0.799999
			c-0.099998-0.200001-0.300003-0.400002-0.5-0.5c-0.199997-0.100002-0.699997-0.299999-1.199997-0.400002
			c-0.800003-0.200001-1.400002-0.299999-1.699997-0.399998c-0.400002-0.100002-0.699997-0.300001-1-0.500002
			c-0.199997-0.200001-0.400002-0.5-0.599998-0.799999s-0.199997-0.700001-0.199997-1.1c0-0.5,0.099998-1,0.300003-1.5
			c0.199997-0.4,0.5-0.799999,0.900002-1s0.800003-0.4,1.199997-0.5c0.5-0.1,0.900002-0.200001,1.400002-0.200001s1,0,1.400002,0.1
			c0.5,0.1,0.900002,0.200001,1.200005,0.4l0.100006,0.200001c-0.100006,0.299999-0.100006,0.6-0.100006,0.9
			C128.899994,28.415136,128.899994,28.815136,128.899994,29.315136z"/>
		<path class="st5" d="M135.300003,26.715136v0.6c-0.5,0-0.800003,0-0.899994,0c-0.100006,0-0.100006,0-0.199997,0.1l-0.100006,0.1
			c0,0.1-0.100006,0.200001-0.100006,0.5c0,0.1,0,0.4,0,0.700001c0,1.200001,0,1.799999,0,1.9v2.800001v1.299999
			c0,0.5,0,0.799999,0.100006,1c0,0.099998,0.100006,0.099998,0.100006,0.200001c0.100006,0,0.100006,0.099998,0.199997,0.099998
			c0.100006,0,0.399994,0,0.800003,0v0.599998c-0.800003,0-1.600006,0-2.5,0c-0.800003,0-1.399994,0-2,0v-0.599998
			c0.5,0,0.800003,0,0.899994,0c0.100006,0,0.199997,0,0.199997-0.099998l0.100006-0.099998c0,0,0-0.299999,0.100006-0.700001
			c0-0.599998,0.100006-1.099998,0.100006-1.599998v-3.000002c0-0.9,0-1.5,0-1.799999c0-0.6-0.100006-1-0.100006-1.1
			s0-0.1-0.100006-0.1c0,0-0.100006-0.1-0.199997-0.1c-0.100006,0-0.399994,0-0.899994-0.1v-0.6c0.600006,0,1.300003,0,2,0
			C133.699997,26.815136,134.5,26.815136,135.300003,26.715136z"/>
		<path class="st5" d="M138.300003,36.615139v-0.599998c0.600006,0,0.899994-0.099998,1-0.099998
			C139.400009,35.815144,139.5,35.715141,139.5,35.615143c0.100006-0.200001,0.100006-0.799999,0.100006-1.799999v-4.200003
			c0-1.200001,0-1.799999,0-1.9h-1c-0.5,0-1,0-1.300003,0c-0.199997,0-0.199997,0-0.300003,0c0,0-0.100006,0.1-0.100006,0.200001
			c-0.100006,0.299999-0.100006,0.700001-0.100006,1.1h-0.600006c0-1,0-1.5,0-1.6c0-0.200001,0-0.4-0.100006-0.700001l0.100006-0.1
			c0.199997,0,0.5,0,0.699997,0c0.399994,0,1.199997,0,2.300003,0h2.899994c1.199997,0,2,0,2.399994,0
			c0.199997,0,0.399994,0,0.600006,0l0.100006,0.1c0,0.299999-0.100006,0.5-0.100006,0.799999c0,0,0,0.6,0,1.5h-0.600006
			c0-0.4,0-0.700001-0.100006-1c0-0.200001-0.100006-0.299999-0.100006-0.299999s-0.100006,0-0.199997,0
			c-0.399994,0-0.899994,0-1.399994,0h-1c0,0.200001,0,0.799999,0,1.9v4.200003c0,1,0,1.599998,0.100006,1.799999
			c0,0.099998,0.100006,0.200001,0.199997,0.299999c0.100006,0.099998,0.399994,0.099998,1,0.099998v0.599998
			c-0.899994,0-1.699997-0.099998-2.300003-0.099998C139.899994,36.515137,139.199997,36.615139,138.300003,36.615139z"/>
		<path class="st5" d="M151.100006,31.415136l0.899994-1.4c0.100006-0.299999,0.600006-1,1.300003-2.4
			c0.300003-0.5,0.399994-0.700001,0.5-0.9h1.100006v0.299999c-0.600006,0.799999-1.199997,1.700001-1.899994,2.700001
			s-1.100006,1.700001-1.199997,2c-0.100006,0.200001-0.199997,0.400002-0.199997,0.5c0,0.100002,0,0.299999,0,0.5v1.200001
			c0,0.599998,0,1,0.100006,1.299999c0,0.299999,0.100006,0.400002,0.100006,0.5c0,0,0.100006,0.099998,0.199997,0.099998
			c0.100006,0,0.399994,0,0.899994,0.099998v0.599998c-0.899994,0-1.699997,0-2.399994,0s-1.399994,0-2.100006,0v-0.599998
			c0.5,0,0.899994,0,0.899994-0.099998c0.100006,0,0.199997-0.099998,0.199997-0.099998s0.100006-0.200001,0.100006-0.400002
			c0-0.5,0-1,0-1.400002v-1.299999c0-0.100002-0.100006-0.299999-0.300003-0.700003c-0.399994-0.799999-0.899994-1.6-1.399994-2.4
			c-0.399994-0.6-0.800003-1.1-1.100006-1.5c-0.199997-0.299999-0.399994-0.4-0.5-0.5c-0.100006,0-0.300003,0-0.600006,0v-0.5
			l1.5-0.299999c0.300003,0,0.5-0.1,0.800003-0.200001c0.300003,0.200001,0.5,0.299999,0.600006,0.4s0.300003,0.4,0.5,0.700001
			c0.300003,0.5,0.699997,1.1,1,1.799999C150.699997,30.515137,151,31.215136,151.100006,31.415136z"/>
		<path class="st5" d="M158.800003,34.615139c0-0.599998,0.100006-1.200001,0.300003-1.799999
			c0.199997-0.600002,0.399994-1.100002,0.600006-1.400002c0.100006-0.200001,0.399994-0.4,0.800003-0.700001
			c0.399994-0.299999,0.800003-0.5,1.199997-0.700001s0.899994-0.299999,1.399994-0.299999
			c0.399994,0,0.800003,0.1,1.100006,0.200001s0.600006,0.299999,0.800003,0.5s0.300003,0.4,0.399994,0.700001
			s0.100006,0.6,0.100006,0.900002c0,0.599998-0.100006,1.200001-0.300003,1.799999s-0.399994,1.099998-0.699997,1.400002
			c-0.199997,0.200001-0.5,0.5-0.899994,0.799999s-0.800003,0.5-1.199997,0.599998s-0.800003,0.200001-1.300003,0.200001
			c-0.600006,0-1-0.099998-1.300003-0.299999s-0.600006-0.5-0.699997-0.799999
			C158.899994,35.415138,158.800003,35.015137,158.800003,34.615139z M160.5,34.615139c0,0.599998,0.100006,1,0.300003,1.200001
			s0.5,0.400002,0.899994,0.400002c0.300003,0,0.5-0.099998,0.699997-0.200001c0.199997-0.099998,0.399994-0.299999,0.5-0.599998
			c0.199997-0.299999,0.300003-0.700001,0.399994-1.200001c0.199997-0.700001,0.300003-1.5,0.300003-2.100002
			c0-0.6-0.100006-1-0.300003-1.200001c-0.199997-0.299999-0.5-0.4-0.899994-0.4s-0.699997,0.1-1,0.4
			s-0.5,0.799999-0.699997,1.600002C160.600006,33.215137,160.5,33.915138,160.5,34.615139z"/>
		<path class="st5" d="M166.800003,30.815136l0.100006-0.4c0.100006-0.1,0.399994-0.1,0.699997-0.200001
			s0.600006-0.200001,0.800003-0.299999c0-0.1,0.100006-0.200001,0.100006-0.4c0.100006-0.4,0.199997-0.700001,0.300003-0.799999
			c0.100006-0.200001,0.300003-0.5,0.600006-0.700001c0.399994-0.4,0.899994-0.799999,1.399994-1.1c0.5-0.4,0.800003-0.6,1-0.6
			s0.399994-0.1,0.699997-0.1c0.199997,0,0.399994,0,0.600006,0.1c-0.199997,0.6-0.300003,1.200001-0.399994,1.799999h-0.199997
			c-0.199997-0.299999-0.399994-0.5-0.600006-0.6c-0.199997-0.1-0.399994-0.200001-0.5-0.200001s-0.199997,0-0.300003,0.1
			s-0.199997,0.200001-0.300003,0.299999c-0.100006,0.1-0.100006,0.299999-0.199997,0.5
			c-0.199997,0.6-0.300003,1.299999-0.399994,1.9h0.199997c0.100006,0,0.399994,0,0.899994,0c0.300003,0,0.5,0,0.699997-0.1
			l0.100006,0.1c-0.100006,0.299999-0.199997,0.5-0.199997,0.700001c-0.199997,0-0.600006,0-1.100006,0
			c-0.300003,0-0.600006,0-0.699997,0l-0.800003,3.400003c-0.399994,1.5-0.699997,2.599998-1,3.299999
			s-0.600006,1.299999-1.100006,1.799999c-0.399994,0.5-0.899994,0.900002-1.399994,1.099998
			c-0.199997,0.099998-0.5,0.200001-0.699997,0.200001s-0.300003,0-0.5-0.099998
			c0.100006-0.299999,0.199997-0.599998,0.300003-0.799999s0.100006-0.5,0.199997-0.700001h0.199997
			c0.100006,0.200001,0.199997,0.400002,0.300003,0.5s0.199997,0.099998,0.399994,0.099998s0.300003,0,0.399994-0.099998
			s0.199997-0.200001,0.300003-0.5c0.199997-0.5,0.399994-1.400002,0.600006-2.799999l1-5.300001c-0.300003,0-0.600006,0-0.899994,0
			C167.100006,30.715136,166.899994,30.715136,166.800003,30.815136z"/>
		<path class="st5" d="M182.300003,33.215137h-0.600006c0-0.600002-0.100006-0.900002-0.100006-1.100002
			c0-0.099998-0.100006-0.099998-0.300003-0.099998c-0.399994-0.100002-0.899994-0.100002-1.600006-0.100002
			c-0.100006,0-0.300003,0-0.600006,0v0.799999c0,1.100002,0,1.900002,0,2.400002s0.100006,0.700001,0.100006,0.799999
			c0,0,0.100006,0.099998,0.199997,0.099998c0.100006,0,0.5,0.099998,1.100006,0.099998v0.5h-2.800003c-0.399994,0-1,0-1.899994,0
			v-0.599998c0.5,0,0.899994,0,0.899994-0.099998c0,0,0.100006,0,0.100006-0.099998c0,0,0.100006-0.200001,0.100006-0.400002
			c0-0.099998,0-0.5,0.100006-1s0-1,0-1.200001v-2.900002c0-0.1,0-0.700001-0.100006-2c0-0.4,0-0.6-0.100006-0.799999
			c0,0,0-0.1-0.100006-0.1c0,0-0.100006,0-0.199997-0.1c-0.100006,0-0.399994,0-0.800003-0.1v-0.6h2.5l3.399994-0.1
			c0.5,0,0.899994,0,1.399994,0.1l0.100006,0.1c-0.100006,0.299999-0.100006,0.6-0.100006,1s-0.100006,0.799999-0.100006,1.1
			h-0.600006c0-0.1,0-0.4,0-0.799999c0-0.200001,0-0.299999-0.100006-0.4c0,0,0,0-0.100006-0.1
			c-0.100006,0-0.300003-0.1-0.600006-0.200001c-0.300003,0-0.699997-0.1-1.100006-0.1c-0.100006,0-0.300003,0-0.699997,0
			s-0.600006,0-0.800003,0c-0.100006,0.5-0.100006,1.299999-0.100006,2.5v1c0.600006,0,1,0,1.199997,0c0.600006,0,1,0,1.100006-0.1
			c0.100006,0,0.100006-0.1,0.100006-0.200001s0.100006-0.4,0.100006-0.799999h0.600006
			C182.300003,30.915136,182.300003,31.915136,182.300003,33.215137z"/>
		<path class="st5" d="M184.399994,36.615139v-0.400002c0.100006,0,0.300003-0.200001,0.5-0.299999
			c0.100006,0,0.199997-0.099998,0.199997-0.099998s0,0,0-0.099998s0.100006-0.5,0.100006-1.299999
			c0-0.700001,0-1.600002,0-2.600002c0-1.5,0-2.4,0-2.799999c0-0.9-0.100006-1.4-0.100006-1.5l-0.100006-0.1
			c-0.100006-0.1-0.5-0.1-1.100006-0.1v-0.6c0.600006,0,1.300003,0,2.100006,0c0.899994,0,1.699997,0,2.399994,0v0.6
			c-0.5,0-0.899994,0.1-1,0.1s-0.100006,0.1-0.100006,0.1c0,0.1-0.100006,0.4-0.100006,0.9s0,1.200001,0,2
			c0,0.1,0,0.799999,0,2.000002c0,0.700001,0,1.299999,0,2s0,1.099998,0,1.200001c0.600006,0,1.100006,0,1.300003,0
			c0.699997,0,1.300003,0,1.899994-0.099998c0.199997,0,0.300003-0.099998,0.300003-0.099998s0.100006-0.099998,0.100006-0.299999
			c0.100006-0.400002,0.199997-0.799999,0.300003-1.200001h0.600006c0,0.099998,0,0.200001,0,0.200001l-0.199997,1.400002
			c0,0.5-0.100006,0.700001-0.100006,0.799999c-0.100006,0-0.300003,0.099998-0.399994,0.099998c-0.300003,0-0.699997,0-1.300003,0
			c-0.100006,0-0.600006,0-1.699997,0c-0.800003,0-1.300003,0-1.600006,0
			C186.100006,36.515137,185.399994,36.615139,184.399994,36.615139z"/>
		<path class="st5" d="M192.5,31.815136c0-0.9,0.100006-1.6,0.399994-2.299999S193.5,28.315136,194,27.915136
			c0.5-0.5,1-0.799999,1.600006-1c0.699997-0.299999,1.5-0.4,2.399994-0.4s1.600006,0.1,2.300003,0.4
			c0.5,0.200001,1,0.5,1.399994,0.799999s0.699997,0.700001,0.899994,1.1s0.399994,0.799999,0.5,1.200001s0.199997,0.9,0.199997,1.4
			c0,0.9-0.100006,1.700003-0.5,2.500002c-0.199997,0.599998-0.600006,1.099998-1,1.5s-0.899994,0.799999-1.5,1
			c-0.800003,0.299999-1.600006,0.5-2.600006,0.5c-1.100006,0-2-0.200001-2.699997-0.599998s-1.399994-1-1.800003-1.700001
			C192.699997,33.81514,192.5,32.915138,192.5,31.815136z M194.600006,31.415136c0,1.1,0.100006,2.000002,0.399994,2.700003
			c0.300003,0.700001,0.699997,1.200001,1.199997,1.5s1,0.400002,1.699997,0.400002C198.5,36.015141,199,35.915142,199.5,35.615139
			s0.800003-0.799999,1.100006-1.400002c0.300003-0.700001,0.399994-1.5,0.399994-2.500002
			c0-0.700001-0.100006-1.299999-0.199997-1.799999c-0.100006-0.5-0.399994-1-0.600006-1.4
			c-0.300003-0.4-0.600006-0.700001-0.899994-0.9c-0.399994-0.200001-0.899994-0.299999-1.399994-0.299999
			c-0.699997,0-1.300003,0.200001-1.800003,0.5s-0.800003,0.799999-1.100006,1.4
			C194.800003,29.915136,194.600006,30.615137,194.600006,31.415136z"/>
		<path class="st5" d="M203.5,27.315136v-0.6c0.100006,0,0.5,0,1.100006,0c0.300003,0,0.800003,0,1.300003,0s0.899994,0,1.300003,0
			c0.600006,0,1.100006,0,1.399994,0c0.699997,0,1.300003,0,1.699997,0.200001c0.399994,0.1,0.699997,0.299999,0.899994,0.700001
			s0.399994,0.700001,0.399994,1.200001c0,0.6-0.199997,1.1-0.5,1.5s-0.899994,0.799999-1.600006,1.1
			c0.100006,0.200001,0.300003,0.4,0.399994,0.600002c0.099991,0.200001,0.199997,0.399998,0.300003,0.399998l0.100006,0.100002
			l1.100006,1.599998c0.300003,0.400002,0.399994,0.700001,0.5,0.700001c0.399994,0.5,0.600006,0.799999,0.600006,0.799999
			c0.100006,0.099998,0.199997,0.099998,0.199997,0.200001c0.100006,0,0.199997,0,0.399994,0.099998v0.599998
			c-0.699997,0-1.300003,0-1.600006,0c-0.399994,0-0.800003,0-1.100006,0c0-0.099998-0.100006-0.200001-0.199997-0.400002l-1.5-2.5
			c-0.399994-0.700001-0.800003-1.299999-1.100006-1.700003c-0.100006-0.200001-0.300003-0.4-0.399994-0.5l0.100006-0.200001
			c0.600006,0,1,0,1.300003-0.200001c0.300003-0.1,0.5-0.4,0.699997-0.700001c0.199997-0.4,0.300003-0.700001,0.300003-1.200001
			s-0.100006-0.799999-0.300003-1.1c-0.199997-0.299999-0.5-0.5-0.800003-0.6c-0.199997-0.1-0.600006-0.1-1.100006-0.1
			c-0.199997,0-0.399994,0-0.699997,0.1c0,0.200001,0,0.5,0,1.1c0,1.299999,0,2.200001,0,2.700001c0,0.700001,0,1.5,0,2.300003
			c0,1,0,1.5,0,1.700001c0,0.299999,0,0.400002,0.100006,0.5l0.100006,0.099998c0,0,0.100006,0,0.199997,0.099998
			s0.399994,0,0.800003,0v0.599998c-0.800003,0-1.600006,0-2.399994,0c-0.699997,0-1.399994,0-2,0v-0.599998
			c0.5,0,0.899994,0,0.899994-0.099998c0.100006,0,0.100006,0,0.100006-0.099998s0.100006-0.099998,0.100006-0.200001
			c0-0.200001,0.100006-0.5,0.100006-0.799999l0.100006-2.100002v-2.6v-1.5c0-0.6,0-0.9-0.100006-1.1l-0.100006-0.1
			C204.399994,27.415136,204.100006,27.315136,203.5,27.315136z"/>
		<path class="st5" d="M218.5,26.715136v0.6c-0.5,0-0.800003,0-0.899994,0c-0.100006,0-0.100006,0-0.199997,0.1l-0.100006,0.1
			c0,0.1-0.100006,0.200001-0.100006,0.5c0,0.1,0,0.4,0,0.700001c0,1.200001,0,1.799999,0,1.9v2.800001v1.299999
			c0,0.5,0,0.799999,0.100006,1c0,0.099998,0.100006,0.099998,0.100006,0.200001c0.100006,0,0.100006,0.099998,0.199997,0.099998
			c0.100006,0,0.399994,0,0.800003,0v0.599998c-0.800003,0-1.600006,0-2.5,0c-0.800003,0-1.399994,0-2,0v-0.599998
			c0.5,0,0.800003,0,0.899994,0c0.100006,0,0.199997,0,0.199997-0.099998l0.100006-0.099998c0,0,0-0.299999,0.100006-0.700001
			c0-0.599998,0.100006-1.099998,0.100006-1.599998v-3.000002c0-0.9,0-1.5,0-1.799999c0-0.6-0.100006-1-0.100006-1.1
			s0-0.1-0.100006-0.1c0,0-0.100006-0.1-0.199997-0.1s-0.399994,0-0.899994-0.1v-0.6c0.600006,0,1.300003,0,2,0
			C216.899994,26.815136,217.699997,26.815136,218.5,26.715136z"/>
		<path class="st5" d="M219.899994,36.615139V36.31514c0,0,0.100006-0.099998,0.199997-0.099998
			c0.199997-0.099998,0.300003-0.200001,0.5-0.299999c0.100006-0.599998,0.100006-1.700001,0.100006-3.100002v-1.200001
			c0-0.6,0-1.5,0-2.700001c0-0.700001-0.100006-1.1-0.100006-1.299999c0,0,0-0.1-0.100006-0.1c0,0-0.100006-0.1-0.199997-0.1
			s-0.399994-0.1-0.899994-0.1v-0.6H222c0.300003,0,0.899994,0,1.699997,0c0.600006,0,1.100006,0,1.399994,0c0.800003,0,1.5,0,2,0.1
			s0.899994,0.299999,1.300003,0.5s0.699997,0.5,0.899994,0.799999c0.300003,0.299999,0.399994,0.6,0.600006,1
			c0.199997,0.6,0.300003,1.200001,0.300003,2c0,0.9-0.199997,1.700003-0.5,2.400003s-0.800003,1.299999-1.399994,1.799999
			s-1.199997,0.799999-1.899994,1s-1.5,0.299999-2.399994,0.299999h-2.100006H219.899994z M222.699997,35.81514
			c0.399994,0.099998,0.899994,0.099998,1.300003,0.099998c0.600006,0,1.199997-0.099998,1.699997-0.200001
			c0.399994-0.099998,0.699997-0.299999,0.899994-0.400002c0.300003-0.200001,0.5-0.5,0.800003-0.799999
			c0.199997-0.400002,0.399994-0.799999,0.600006-1.299999c0.100006-0.5,0.199997-1.100002,0.199997-1.600002
			s-0.100006-1.1-0.199997-1.6s-0.399994-0.9-0.699997-1.299999s-0.699997-0.6-1.199997-0.799999
			c-0.5-0.200001-1.199997-0.299999-2.199997-0.299999c-0.399994,0-0.800003,0-1.199997,0.1
			c-0.100006,0.700001-0.100006,1.9-0.100006,3.799999v1.600002C222.600006,34.415138,222.699997,35.31514,222.699997,35.81514z"/>
		<path class="st5" d="M229.600006,36.615139v-0.599998c0.399994,0,0.600006,0,0.699997-0.099998
			c0.100006,0,0.100006,0,0.199997-0.099998c0.100006,0,0.100006-0.099998,0.199997-0.200001s0.199997-0.5,0.5-1.099998
			c0.100006-0.299999,0.399994-0.900002,0.699997-1.700001l1.800003-4.500002l0.600006-1.6h1L238.5,34.115143l0.399994,1
			l0.300003,0.700001c0.100006,0.099998,0.100006,0.099998,0.100006,0.200001l0.100006,0.099998c0.100006,0,0.199997,0,0.399994,0
			c0.100006,0,0.199997,0,0.300003,0v0.599998h-2h-2.5v-0.599998c0.600006,0,0.899994-0.099998,1-0.099998
			s0.100006-0.099998,0.100006-0.200001c0-0.099998-0.100006-0.299999-0.199997-0.599998l-0.600006-1.5h-3.600006L232,34.515144
			c-0.199997,0.700001-0.399994,1-0.399994,1.200001c0,0.099998,0,0.200001,0.100006,0.200001
			c0.100006,0.099998,0.399994,0.099998,1,0.099998v0.599998h-1.600006L229.600006,36.615139z M232.699997,32.815136
			c0.399994,0,0.899994,0,1.5,0c0.5,0,1,0,1.5,0l-1.5-3.6L232.699997,32.815136z"/>
	</g>
</g>
<g>
	<path class="st1" d="M72.960449,27.295898l-0.068359,0.068359c-0.537598,0-0.84082,0.143555-0.90918,0.430664
		c-0.036621,0.160156-0.063965,0.505859-0.082031,1.039062c-0.013672,0.396484-0.020508,0.96875-0.020508,1.71582v2.105469
		c0,1.353516-0.266602,2.319336-0.799805,2.898438c-0.706543,0.765625-1.713379,1.148438-3.021484,1.148438
		c-1.193848,0-2.125977-0.198242-2.795898-0.594727c-0.564941-0.336914-0.934082-0.81543-1.107422-1.435547
		c-0.109375-0.396484-0.164062-1.430664-0.164062-3.103516v-1.763672c0-1.084961-0.029785-1.791016-0.088867-2.119141
		c-0.022949-0.131836-0.100098-0.21582-0.232422-0.25293c-0.068359-0.017578-0.334961-0.041016-0.799805-0.068359
		l-0.068359-0.068359v-0.458008l0.068359-0.068359c0.4375,0.027344,1.13916,0.041016,2.105469,0.041016
		c0.984375,0,1.684082-0.013672,2.098633-0.041016l0.068359,0.068359v0.458008l-0.068359,0.068359
		c-0.464844,0.027344-0.731445,0.050781-0.799805,0.068359c-0.132324,0.037109-0.209473,0.121094-0.232422,0.25293
		c-0.059082,0.328125-0.088867,1.03418-0.088867,2.119141v1.408203c0,1.722656,0.077637,2.777344,0.232422,3.165039
		c0.310059,0.765625,1.073242,1.148438,2.290039,1.148438c0.797363,0,1.419434-0.196289,1.866211-0.587891
		c0.209473-0.186523,0.355469-0.375977,0.4375-0.567383s0.145996-0.487305,0.191406-0.888672
		c0.041016-0.374023,0.061523-0.751953,0.061523-1.134766v-1.421875c0-1.194336-0.004395-2.009766-0.013672-2.447266
		c-0.009277-0.410156-0.036621-0.676758-0.082031-0.799805c-0.036621-0.09082-0.116211-0.161133-0.239258-0.211914
		c-0.10498-0.041016-0.385254-0.075195-0.84082-0.102539l-0.068359-0.068359v-0.458008l0.068359-0.068359
		c0.396484,0.027344,0.804199,0.041016,1.223633,0.041016c0.314453,0,0.918457-0.013672,1.811523-0.041016l0.068359,0.068359
		V27.295898z"/>
	<path class="st1" d="M84.848633,27.295898l-0.075195,0.068359c-0.464844,0.027344-0.731445,0.050781-0.799805,0.068359
		c-0.132324,0.037109-0.209473,0.121094-0.232422,0.25293c-0.059082,0.328125-0.088867,1.03418-0.088867,2.119141v2.775391
		c0,2.045898,0.029785,3.378906,0.088867,3.999023l-0.088867,0.061523c-0.515137-0.086914-0.904785-0.148438-1.168945-0.18457
		c-1.221191-1.37207-3.306152-3.874023-6.254883-7.505859v4.470703c0,1.084961,0.029785,1.791016,0.088867,2.119141
		c0.022949,0.131836,0.100098,0.216797,0.232422,0.25293c0.068359,0.018555,0.334961,0.041016,0.799805,0.068359l0.068359,0.068359
		v0.464844l-0.068359,0.061523c-0.523926-0.027344-1.011719-0.041016-1.462891-0.041016
		c-0.523926,0-1.050293,0.013672-1.579102,0.041016l-0.068359-0.061523v-0.464844l0.068359-0.068359
		c0.464844-0.027344,0.731445-0.049805,0.799805-0.068359c0.132324-0.036133,0.209473-0.121094,0.232422-0.25293
		c0.059082-0.328125,0.088867-1.03418,0.088867-2.119141v-3.616211c0-1.084961-0.029785-1.791016-0.088867-2.119141
		c-0.022949-0.131836-0.100098-0.21582-0.232422-0.25293c-0.068359-0.017578-0.334961-0.041016-0.799805-0.068359
		l-0.068359-0.068359v-0.464844l0.068359-0.061523c0.433105,0.027344,0.845215,0.041016,1.237305,0.041016
		c0.615234,0,1.125488-0.013672,1.53125-0.041016c1.640625,2.1875,3.568359,4.532227,5.783203,7.03418v-3.999023
		c0-1.084961-0.029785-1.791016-0.088867-2.119141c-0.022949-0.131836-0.100098-0.21582-0.232422-0.25293
		c-0.068359-0.017578-0.334961-0.041016-0.799805-0.068359l-0.068359-0.068359v-0.464844l0.068359-0.061523
		c0.510254,0.027344,0.995605,0.041016,1.456055,0.041016c0.587891,0,1.116699-0.013672,1.585938-0.041016l0.068359,0.061523
		V27.295898z"/>
	<path class="st1" d="M90.486816,36.387695l-0.061523,0.068359c-0.455566-0.027344-1.159668-0.041016-2.112305-0.041016
		c-0.947754,0-1.649902,0.013672-2.105469,0.041016l-0.061523-0.068359v-0.458008l0.068359-0.068359
		c0.464844-0.027344,0.731445-0.049805,0.799805-0.068359c0.132324-0.036133,0.209473-0.121094,0.232422-0.25293
		c0.059082-0.328125,0.088867-1.03418,0.088867-2.119141v-3.616211c0-1.084961-0.029785-1.791016-0.088867-2.119141
		c-0.022949-0.131836-0.100098-0.21582-0.232422-0.25293c-0.068359-0.017578-0.334961-0.041016-0.799805-0.068359
		l-0.068359-0.068359v-0.464844l0.068359-0.061523c0.4375,0.027344,1.13916,0.041016,2.105469,0.041016
		c0.961426,0,1.661133-0.013672,2.098633-0.041016l0.068359,0.061523v0.464844l-0.068359,0.068359
		c-0.464844,0.027344-0.731445,0.050781-0.799805,0.068359c-0.132324,0.037109-0.209473,0.121094-0.232422,0.25293
		c-0.059082,0.328125-0.088867,1.03418-0.088867,2.119141v3.616211c0,1.084961,0.029785,1.791016,0.088867,2.119141
		c0.022949,0.131836,0.100098,0.216797,0.232422,0.25293c0.068359,0.018555,0.334961,0.041016,0.799805,0.068359l0.068359,0.068359
		V36.387695z"/>
	<path class="st1" d="M102.051758,27.302734l-0.068359,0.068359c-0.318848,0.032227-0.522949,0.069336-0.611816,0.113281
		c-0.088867,0.042969-0.183594,0.146484-0.283691,0.310547c-0.109375,0.177734-0.305176,0.605469-0.587891,1.285156
		l-0.485352,1.155273l-0.916016,2.228516c-0.788574,1.914062-1.319336,3.260742-1.592773,4.040039h-1.039062l-3.137695-7.608398
		c-0.33252-0.792969-0.564941-1.248047-0.697266-1.367188c-0.100098-0.095703-0.378418-0.147461-0.833984-0.157227
		l-0.068359-0.075195v-0.451172l0.075195-0.075195c0.478516,0.027344,1.08252,0.041016,1.811523,0.041016
		c0.911621,0,1.740723-0.013672,2.488281-0.041016l0.068359,0.075195v0.458008l-0.061523,0.068359
		c-0.460449,0.004883-0.763184,0.045898-0.90918,0.123047c-0.077637,0.045898-0.116211,0.123047-0.116211,0.232422
		c0,0.119141,0.147949,0.550781,0.444336,1.298828l0.321289,0.813477l1.729492,4.272461l1.517578-3.807617
		c0.059082-0.145508,0.195801-0.512695,0.410156-1.100586c0.310059-0.847656,0.464844-1.341797,0.464844-1.483398
		c0-0.150391-0.050293-0.241211-0.150391-0.273438c-0.100098-0.03125-0.405762-0.056641-0.916016-0.075195l-0.068359-0.068359
		v-0.464844l0.075195-0.068359c0.515137,0.027344,1.050293,0.041016,1.606445,0.041016
		c0.396484,0,0.881836-0.013672,1.456055-0.041016l0.075195,0.075195V27.302734z"/>
	<path class="st1" d="M110.703613,34.131836c-0.100098,0.665039-0.150391,1.416992-0.150391,2.255859l-0.068359,0.068359
		l-4.969727-0.041016c-0.82959,0-1.415039,0.013672-1.756836,0.041016l-0.068359-0.068359v-0.191406l0.03418-0.082031
		c0.337402-0.213867,0.519531-0.348633,0.546875-0.40332c0.041016-0.086914,0.065918-0.389648,0.075195-0.90918l0.020508-1.53125
		v-3.46582c0-1.084961-0.029785-1.791016-0.088867-2.119141c-0.022949-0.131836-0.100098-0.21582-0.232422-0.25293
		c-0.068359-0.017578-0.334961-0.041016-0.799805-0.068359l-0.068359-0.068359v-0.464844l0.068359-0.061523
		c0.460449,0.027344,1.171387,0.041016,2.132812,0.041016c0.856934,0,2.48584-0.013672,4.887695-0.041016l0.075195,0.054688
		l-0.088867,0.758789c-0.027344,0.242188-0.047852,0.446289-0.061523,0.615234l-0.047852,0.635742l-0.068359,0.075195h-0.396484
		l-0.068359-0.068359c-0.004395-0.620117-0.041016-0.973633-0.109375-1.05957
		c-0.050293-0.063477-0.294922-0.113281-0.734863-0.150391c-0.439941-0.036133-0.826172-0.054688-1.158691-0.054688
		c-0.396484,0-0.797363,0.016602-1.203125,0.047852c-0.050293,0.478516-0.075195,1.141602-0.075195,1.989258v1.415039
		c0.359863,0.022461,0.651855,0.03418,0.875,0.03418l0.895508-0.006836c0.419434-0.004883,0.65625-0.039062,0.710938-0.102539
		c0.072754-0.082031,0.120605-0.389648,0.143555-0.922852l0.068359-0.068359h0.423828l0.068359,0.068359
		c-0.018066,0.510742-0.027344,0.977539-0.027344,1.401367c0,0.459961,0.009277,0.963867,0.027344,1.510742l-0.068359,0.061523
		h-0.458008l-0.068359-0.068359c0-0.524414-0.036621-0.834961-0.109375-0.932617
		c-0.072754-0.098633-0.293945-0.163086-0.663086-0.195312c-0.277832-0.022461-0.574219-0.03418-0.888672-0.03418
		c-0.33252,0-0.642578,0.011719-0.929688,0.03418v2.084961c0,0.59668,0.01123,1.175781,0.03418,1.736328h0.929688
		c1.330566,0,2.146484-0.052734,2.447266-0.157227c0.050293-0.018555,0.086426-0.042969,0.109375-0.075195
		c0.04541-0.063477,0.088867-0.200195,0.129883-0.410156l0.164062-0.847656l0.068359-0.075195h0.416992L110.703613,34.131836z"/>
	<path class="st1" d="M121.261719,36.387695l-0.068359,0.068359c-0.032227,0-0.118164-0.001953-0.259277-0.006836
		c-0.624023-0.022461-1.013672-0.03418-1.168945-0.03418c-0.232422,0-0.601562,0.013672-1.107422,0.041016
		c-0.018555-0.109375-0.104492-0.291992-0.259766-0.546875l-1.695312-2.830078l-0.758789-1.155273
		c-0.095703-0.141602-0.230469-0.280273-0.40332-0.416992l0.075195-0.232422c0.104492,0.004883,0.182617,0.006836,0.232422,0.006836
		c0.446289,0,0.797852-0.070312,1.052734-0.211914c0.232422-0.12793,0.446289-0.350586,0.642578-0.669922
		s0.293945-0.699219,0.293945-1.141602c0-0.770508-0.287109-1.289062-0.861328-1.558594
		c-0.273438-0.126953-0.671875-0.191406-1.196289-0.191406c-0.227539,0-0.446289,0.018555-0.65625,0.054688
		c-0.045898,0.447266-0.068359,1.208008-0.068359,2.283203v3.575195c0,1.084961,0.029297,1.791016,0.088867,2.119141
		c0.022461,0.131836,0.100586,0.216797,0.232422,0.25293c0.068359,0.018555,0.334961,0.041016,0.799805,0.068359l0.068359,0.068359
		v0.458008l-0.061523,0.068359c-0.456055-0.027344-1.157227-0.041016-2.105469-0.041016
		c-0.97998,0-1.681641,0.013672-2.105469,0.041016l-0.068359-0.061523v-0.464844l0.068359-0.068359
		c0.464844-0.027344,0.731445-0.049805,0.799805-0.068359c0.132324-0.036133,0.209473-0.121094,0.232422-0.25293
		c0.059082-0.328125,0.088867-1.03418,0.088867-2.119141v-3.616211c0-1.084961-0.029785-1.791016-0.088867-2.119141
		c-0.022949-0.131836-0.100098-0.21582-0.232422-0.25293c-0.068359-0.017578-0.334961-0.041016-0.799805-0.068359
		l-0.068359-0.068359v-0.464844l0.068359-0.061523c0.446777,0.027344,1.148438,0.041016,2.105469,0.041016
		c0.555664,0,1.006836-0.006836,1.353516-0.020508c0.688477-0.027344,1.203125-0.041016,1.544922-0.041016
		c0.788086,0,1.367188,0.071289,1.736328,0.211914c0.49707,0.191406,0.829102,0.515625,0.998047,0.970703
		c0.082031,0.222656,0.123047,0.487305,0.123047,0.792969c0,1.239258-0.697266,2.119141-2.091797,2.638672
		c0.227539,0.382812,0.469727,0.770508,0.724609,1.162109l1.052734,1.620117c0.620117,0.957031,1.032227,1.501953,1.237305,1.633789
		c0.104492,0.068359,0.250488,0.102539,0.437012,0.102539l0.068359,0.068359V36.387695z"/>
	<path class="st1" d="M129.567383,33.256836c0,0.751953-0.213867,1.415039-0.642578,1.989258
		c-0.374023,0.505859-0.863281,0.881836-1.469727,1.12793c-0.555664,0.227539-1.21875,0.341797-1.989258,0.341797
		c-0.957031,0-1.895508-0.21875-2.816406-0.65625l-0.082031-0.150391c0.12793-0.524414,0.191406-1.269531,0.191406-2.235352
		l0.068359-0.068359h0.4375l0.061523,0.068359v0.157227c0,0.254883,0.027344,0.592773,0.082031,1.011719
		c0.164062,0.291992,0.458008,0.541992,0.881836,0.751953c0.442383,0.21875,0.902344,0.328125,1.380859,0.328125
		c0.902344,0,1.526367-0.314453,1.873047-0.943359c0.177734-0.323242,0.266602-0.658203,0.266602-1.004883
		c0-0.583008-0.244141-1-0.731445-1.250977c-0.241211-0.123047-0.630859-0.225586-1.168945-0.307617
		c-1.216797-0.186523-2.016602-0.421875-2.399414-0.704102c-0.579102-0.428711-0.868164-1.091797-0.868164-1.989258
		c0-0.93457,0.314453-1.679688,0.943359-2.235352c0.665039-0.583008,1.59082-0.875,2.775391-0.875
		c1.066406,0,1.927734,0.170898,2.583984,0.512695l0.047852,0.164062c-0.109375,0.542969-0.175781,1.194336-0.198242,1.955078
		l-0.075195,0.068359h-0.430664l-0.068359-0.068359c-0.013672-0.546875-0.036133-0.902344-0.068359-1.066406
		c-0.141602-0.214844-0.387695-0.396484-0.738281-0.546875c-0.374023-0.154297-0.763672-0.232422-1.168945-0.232422
		c-0.610352,0-1.09375,0.162109-1.449219,0.485352c-0.333008,0.305664-0.499023,0.699219-0.499023,1.182617
		c0,0.524414,0.189453,0.90918,0.567383,1.155273c0.246094,0.15918,0.827148,0.3125,1.743164,0.458008
		c0.095703,0.013672,0.362305,0.05957,0.799805,0.136719c0.268555,0.045898,0.517578,0.111328,0.745117,0.198242
		c0.459961,0.172852,0.806641,0.4375,1.039062,0.792969C129.442383,32.195312,129.567383,32.677734,129.567383,33.256836z"/>
	<path class="st1" d="M135.05957,36.387695l-0.061523,0.068359c-0.456055-0.027344-1.160156-0.041016-2.112305-0.041016
		c-0.948242,0-1.649414,0.013672-2.105469,0.041016l-0.061523-0.068359v-0.458008l0.068359-0.068359
		c0.464844-0.027344,0.731445-0.049805,0.799805-0.068359c0.131836-0.036133,0.209961-0.121094,0.232422-0.25293
		c0.05957-0.328125,0.088867-1.03418,0.088867-2.119141v-3.616211c0-1.084961-0.029297-1.791016-0.088867-2.119141
		c-0.022461-0.131836-0.100586-0.21582-0.232422-0.25293c-0.068359-0.017578-0.334961-0.041016-0.799805-0.068359
		l-0.068359-0.068359v-0.464844l0.068359-0.061523c0.4375,0.027344,1.139648,0.041016,2.105469,0.041016
		c0.961914,0,1.661133-0.013672,2.098633-0.041016l0.068359,0.061523v0.464844l-0.068359,0.068359
		c-0.464844,0.027344-0.731445,0.050781-0.799805,0.068359c-0.131836,0.037109-0.209961,0.121094-0.232422,0.25293
		c-0.05957,0.328125-0.088867,1.03418-0.088867,2.119141v3.616211c0,1.084961,0.029297,1.791016,0.088867,2.119141
		c0.022461,0.131836,0.100586,0.216797,0.232422,0.25293c0.068359,0.018555,0.334961,0.041016,0.799805,0.068359l0.068359,0.068359
		V36.387695z"/>
	<path class="st1" d="M145.046875,26.810547c-0.054688,0.337891-0.083984,0.686523-0.088867,1.045898l-0.013672,1.141602
		l-0.068359,0.068359h-0.430664l-0.075195-0.061523c-0.022461-0.583008-0.047852-0.924805-0.075195-1.025391
		c-0.054688-0.181641-0.200195-0.289062-0.4375-0.321289c-0.09082-0.013672-0.519531-0.020508-1.285156-0.020508h-0.916016
		c-0.008789,0.160156-0.013672,0.792969-0.013672,1.900391v3.882812c0,1.084961,0.029297,1.791016,0.088867,2.119141
		c0.022461,0.131836,0.100586,0.216797,0.232422,0.25293c0.068359,0.018555,0.334961,0.041016,0.799805,0.068359l0.068359,0.068359
		v0.458008l-0.068359,0.068359c-0.451172-0.027344-1.15332-0.041016-2.105469-0.041016
		c-0.975586,0-1.676758,0.013672-2.105469,0.041016l-0.061523-0.061523v-0.464844l0.068359-0.068359
		c0.464844-0.027344,0.731445-0.049805,0.799805-0.068359c0.131836-0.036133,0.209961-0.121094,0.232422-0.25293
		c0.05957-0.328125,0.088867-1.03418,0.088867-2.119141v-3.882812c0-1.125977-0.006836-1.758789-0.020508-1.900391h-0.977539
		c-0.81543,0-1.291992,0.025391-1.428711,0.075195c-0.073242,0.027344-0.123047,0.061523-0.150391,0.102539
		c-0.041016,0.073242-0.075195,0.21875-0.102539,0.4375c-0.032227,0.241211-0.052734,0.490234-0.061523,0.745117l-0.068359,0.068359
		h-0.430664l-0.075195-0.068359l-0.013672-1.168945c-0.004883-0.328125-0.032227-0.666992-0.082031-1.018555l0.061523-0.068359
		c0.268555,0.045898,1.249023,0.068359,2.939453,0.068359h2.768555c1.558594,0,2.538086-0.022461,2.939453-0.068359
		L145.046875,26.810547z"/>
	<path class="st1" d="M155.087891,27.09082c-0.719727,0.979492-1.508789,2.180664-2.365234,3.602539
		c-0.483398,0.801758-0.75,1.314453-0.799805,1.538086c-0.027344,0.118164-0.041016,0.289062-0.041016,0.512695v0.676758
		c0,1.334961,0.041016,2.078125,0.123047,2.228516c0.036133,0.063477,0.088867,0.104492,0.157227,0.123047
		c0.114258,0.032227,0.394531,0.061523,0.84082,0.088867l0.068359,0.068359v0.458008l-0.068359,0.068359
		c-0.451172-0.027344-1.15332-0.041016-2.105469-0.041016c-0.975586,0-1.676758,0.013672-2.105469,0.041016l-0.061523-0.061523
		v-0.464844l0.068359-0.068359c0.446289-0.027344,0.726562-0.056641,0.84082-0.088867
		c0.068359-0.018555,0.121094-0.05957,0.157227-0.123047c0.082031-0.150391,0.123047-0.893555,0.123047-2.228516v-0.806641
		c0-0.172852-0.357422-0.866211-1.073242-2.078125c-0.729492-1.235352-1.310547-2.073242-1.743164-2.515625
		c-0.209961-0.213867-0.350586-0.335938-0.423828-0.365234c-0.073242-0.030273-0.244141-0.044922-0.512695-0.044922
		l-0.075195-0.075195v-0.382812l0.068359-0.075195c1.112305-0.21875,1.825195-0.373047,2.139648-0.464844
		c0.237305,0.114258,0.449219,0.262695,0.635742,0.444336c0.387695,0.378906,0.907227,1.220703,1.558594,2.529297l0.895508,1.791016
		c0.268555-0.432617,0.78125-1.303711,1.538086-2.611328l0.758789-1.360352c0.082031-0.150391,0.193359-0.357422,0.334961-0.62207
		h0.998047l0.068359,0.068359V27.09082z"/>
</g>
<g>
	<path class="st1" d="M158.907227,34.141602c0-0.423828,0.071289-0.956055,0.214844-1.595703
		c0.143555-0.640625,0.389648-1.175781,0.738281-1.607422c0.348633-0.429688,0.819336-0.798828,1.412109-1.107422
		c0.591797-0.306641,1.203125-0.460938,1.832031-0.460938c0.646484,0,1.172852,0.18457,1.579102,0.553711
		c0.405273,0.369141,0.608398,0.922852,0.608398,1.661133c0,0.669922-0.125977,1.354492-0.375977,2.054688
		c-0.250977,0.699219-0.584961,1.210938-1.001953,1.53418s-0.854492,0.600586-1.3125,0.831055
		c-0.458008,0.229492-0.978516,0.344727-1.561523,0.344727c-0.556641,0-0.989258-0.107422-1.298828-0.321289
		c-0.310547-0.213867-0.526367-0.490234-0.649414-0.827148S158.907227,34.510742,158.907227,34.141602z M160.520508,34.086914
		c0,0.555664,0.104492,0.958984,0.314453,1.209961c0.208984,0.250977,0.509766,0.375977,0.902344,0.375977
		c0.268555,0,0.508789-0.075195,0.720703-0.225586s0.408203-0.420898,0.587891-0.80957
		c0.180664-0.390625,0.326172-0.874023,0.4375-1.453125c0.112305-0.579102,0.167969-1.105469,0.167969-1.579102
		c0-0.59668-0.116211-1.013672-0.348633-1.250977s-0.515625-0.355469-0.847656-0.355469
		c-0.351562,0-0.660156,0.134766-0.926758,0.40332s-0.500977,0.793945-0.704102,1.575195
		C160.62207,32.759766,160.520508,33.462891,160.520508,34.086914z"/>
	<path class="st1" d="M166.775391,30.313477l0.047852-0.246094l0.075195-0.075195
		c0.105469-0.036133,0.3125-0.100586,0.62207-0.191406c0.310547-0.09082,0.549805-0.175781,0.717773-0.25293
		c0.013672-0.032227,0.043945-0.157227,0.088867-0.375977c0.078125-0.336914,0.146484-0.580078,0.205078-0.727539
		c0.05957-0.148438,0.162109-0.311523,0.307617-0.489258c0.146484-0.177734,0.413086-0.430664,0.799805-0.758789
		c0.387695-0.328125,0.746094-0.609375,1.077148-0.844727c0.330078-0.234375,0.578125-0.383789,0.745117-0.447266
		c0.166016-0.064453,0.349609-0.095703,0.549805-0.095703c0.214844,0,0.419922,0.038086,0.615234,0.116211
		c-0.177734,0.605469-0.307617,1.196289-0.389648,1.770508l-0.205078,0.047852
		c-0.350586-0.538086-0.701172-0.806641-1.052734-0.806641c-0.126953,0-0.24707,0.040039-0.358398,0.119141
		c-0.112305,0.080078-0.198242,0.1875-0.259766,0.321289c-0.061523,0.134766-0.149414,0.4375-0.263672,0.90625
		c-0.113281,0.469727-0.208984,0.927734-0.287109,1.374023h0.157227c0.091797,0,0.345703-0.011719,0.762695-0.03418
		s0.689453-0.047852,0.816406-0.075195l0.068359,0.109375c-0.095703,0.259766-0.161133,0.476562-0.198242,0.649414
		L171.341797,30.375c-0.15918-0.008789-0.473633-0.013672-0.943359-0.013672c-0.37793,0-0.62207,0.004883-0.731445,0.013672
		l-0.533203,2.37207c-0.21875,0.975586-0.432617,1.836914-0.642578,2.583984c-0.277344,1.00293-0.549805,1.762695-0.816406,2.279297
		c-0.266602,0.517578-0.605469,0.982422-1.015625,1.394531c-0.410156,0.413086-0.779297,0.696289-1.107422,0.851562
		C165.34668,39.952148,165.151367,40,164.963867,40c-0.164062,0-0.336914-0.041016-0.519531-0.123047
		c0.21875-0.56543,0.369141-1.071289,0.451172-1.517578l0.21875-0.041016c0.177734,0.415039,0.40625,0.62207,0.683594,0.62207
		c0.095703,0,0.188477-0.023438,0.277344-0.072266c0.088867-0.046875,0.171875-0.125977,0.249023-0.235352
		c0.078125-0.109375,0.174805-0.389648,0.291016-0.84082s0.255859-1.109375,0.419922-1.975586l0.505859-2.645508l0.533203-2.795898
		c-0.259766-0.008789-0.466797-0.013672-0.62207-0.013672c-0.236328,0-0.446289,0.004883-0.628906,0.013672L166.775391,30.313477z"
		/>
</g>
<g>
	<path class="st1" d="M182.445312,26.624023l-0.088867,0.779297c-0.018555,0.173828-0.039062,0.400391-0.061523,0.683594
		l-0.041016,0.546875l-0.068359,0.075195h-0.396484l-0.068359-0.068359c-0.009766-0.615234-0.045898-0.96582-0.109375-1.052734
		c-0.105469-0.140625-0.741211-0.211914-1.907227-0.211914c-0.1875,0-0.481445,0.013672-0.881836,0.041016
		c-0.050781,0.464844-0.075195,1.298828-0.075195,2.501953v0.922852l0.772461,0.020508
		c0.232422,0.004883,0.663086-0.004883,1.291992-0.027344c0.123047-0.004883,0.205078-0.039062,0.246094-0.102539
		c0.068359-0.109375,0.109375-0.410156,0.123047-0.902344l0.068359-0.068359h0.423828l0.068359,0.068359
		c-0.018555,0.510742-0.027344,0.977539-0.027344,1.401367c0,0.459961,0.008789,0.963867,0.027344,1.510742l-0.068359,0.061523
		h-0.458008l-0.068359-0.068359c0-0.478516-0.020508-0.758789-0.061523-0.84082
		c-0.078125-0.15918-0.3125-0.254883-0.704102-0.287109c-0.269531-0.022461-0.533203-0.03418-0.792969-0.03418
		c-0.314453,0-0.594727,0.006836-0.84082,0.020508v1.626953c0,1.080078,0.029297,1.786133,0.088867,2.119141
		c0.022461,0.131836,0.099609,0.216797,0.232422,0.25293c0.03125,0.008789,0.357422,0.032227,0.977539,0.068359l0.068359,0.068359
		V36.1875l-0.075195,0.068359l-2.748047-0.041016c-0.392578-0.004883-0.93457,0.008789-1.626953,0.041016l-0.068359-0.061523
		v-0.464844l0.068359-0.068359c0.464844-0.027344,0.731445-0.049805,0.799805-0.068359
		c0.131836-0.036133,0.208984-0.121094,0.232422-0.25293c0.058594-0.333008,0.088867-1.039062,0.088867-2.119141v-3.616211
		c0-1.080078-0.030273-1.787109-0.088867-2.119141c-0.023438-0.131836-0.100586-0.21582-0.232422-0.25293
		c-0.068359-0.017578-0.334961-0.041016-0.799805-0.068359l-0.068359-0.068359v-0.464844l0.068359-0.061523
		c0.4375,0.027344,1.138672,0.041016,2.105469,0.041016c0.624023,0,2.160156-0.013672,4.607422-0.041016L182.445312,26.624023z"/>
	<path class="st1" d="M191.238281,33.931641c-0.100586,0.665039-0.150391,1.416992-0.150391,2.255859l-0.068359,0.068359
		l-4.969727-0.041016c-0.830078,0-1.415039,0.013672-1.756836,0.041016l-0.068359-0.068359v-0.191406l0.03418-0.082031
		c0.336914-0.213867,0.519531-0.348633,0.546875-0.40332c0.041016-0.082031,0.06543-0.384766,0.075195-0.90918l0.020508-1.53125
		v-3.46582c0-1.084961-0.030273-1.791016-0.088867-2.119141c-0.023438-0.131836-0.100586-0.21582-0.232422-0.25293
		c-0.068359-0.017578-0.334961-0.041016-0.799805-0.068359l-0.068359-0.068359v-0.464844l0.068359-0.061523
		c0.46875,0.027344,1.157227,0.041016,2.064453,0.041016c0.938477,0,1.651367-0.013672,2.139648-0.041016l0.068359,0.061523v0.47168
		l-0.068359,0.061523c-0.464844,0.027344-0.731445,0.050781-0.799805,0.068359
		c-0.132812,0.037109-0.209961,0.121094-0.232422,0.25293c-0.05957,0.328125-0.088867,1.03418-0.088867,2.119141v4.087891
		c0,0.59668,0.010742,1.175781,0.03418,1.736328h0.929688c1.330078,0,2.146484-0.052734,2.447266-0.157227
		c0.049805-0.018555,0.085938-0.042969,0.109375-0.075195c0.044922-0.063477,0.088867-0.200195,0.129883-0.410156l0.164062-0.847656
		l0.068359-0.075195h0.416992L191.238281,33.931641z"/>
	<path class="st1" d="M202.810547,31.163086c0,1.681641-0.490234,3.000977-1.469727,3.958008
		c-0.953125,0.929688-2.253906,1.394531-3.90332,1.394531c-1.558594,0-2.782227-0.438477-3.670898-1.316406
		c-0.888672-0.876953-1.333008-2.09668-1.333008-3.660156c0-2.192383,0.835938-3.709961,2.508789-4.552734
		c0.760742-0.382812,1.697266-0.574219,2.80957-0.574219c1.589844,0,2.827148,0.416992,3.711914,1.250977
		C202.361328,28.510742,202.810547,29.677734,202.810547,31.163086z M200.705078,31.518555
		c0-1.321289-0.265625-2.371094-0.796875-3.147461c-0.530273-0.777344-1.308594-1.166016-2.333984-1.166016
		c-1.353516,0-2.251953,0.608398-2.693359,1.825195c-0.228516,0.624023-0.341797,1.324219-0.341797,2.098633
		c0,1.408203,0.259766,2.520508,0.779297,3.335938c0.537109,0.842773,1.341797,1.264648,2.413086,1.264648
		c1.298828,0,2.170898-0.640625,2.618164-1.920898C200.585938,33.129883,200.705078,32.366211,200.705078,31.518555z"/>
	<path class="st1" d="M213.168945,36.1875l-0.068359,0.068359c-0.03125,0-0.118164-0.001953-0.259766-0.006836
		c-0.624023-0.022461-1.013672-0.03418-1.168945-0.03418c-0.232422,0-0.601562,0.013672-1.107422,0.041016
		c-0.017578-0.109375-0.104492-0.291992-0.259766-0.546875l-1.695312-2.830078l-0.758789-1.155273
		c-0.095703-0.141602-0.229492-0.280273-0.40332-0.416992l0.075195-0.232422c0.105469,0.004883,0.182617,0.006836,0.232422,0.006836
		c0.447266,0,0.797852-0.070312,1.052734-0.211914c0.232422-0.12793,0.447266-0.350586,0.642578-0.669922
		c0.196289-0.319336,0.293945-0.699219,0.293945-1.141602c0-0.770508-0.287109-1.289062-0.861328-1.558594
		c-0.273438-0.126953-0.671875-0.191406-1.196289-0.191406c-0.227539,0-0.446289,0.018555-0.65625,0.054688
		c-0.044922,0.447266-0.068359,1.208008-0.068359,2.283203v3.575195c0,1.084961,0.030273,1.791016,0.088867,2.119141
		c0.023438,0.131836,0.100586,0.216797,0.232422,0.25293c0.068359,0.018555,0.334961,0.041016,0.799805,0.068359l0.068359,0.068359
		V36.1875l-0.061523,0.068359c-0.455078-0.027344-1.157227-0.041016-2.105469-0.041016
		c-0.979492,0-1.681641,0.013672-2.105469,0.041016l-0.068359-0.061523v-0.464844l0.068359-0.068359
		c0.464844-0.027344,0.731445-0.049805,0.799805-0.068359c0.132812-0.036133,0.209961-0.121094,0.232422-0.25293
		C204.970703,35.011719,205,34.305664,205,33.220703v-3.616211c0-1.084961-0.029297-1.791016-0.088867-2.119141
		c-0.022461-0.131836-0.099609-0.21582-0.232422-0.25293c-0.068359-0.017578-0.334961-0.041016-0.799805-0.068359
		l-0.068359-0.068359v-0.464844l0.068359-0.061523c0.447266,0.027344,1.148438,0.041016,2.105469,0.041016
		c0.556641,0,1.007812-0.006836,1.353516-0.020508c0.688477-0.027344,1.203125-0.041016,1.544922-0.041016
		c0.789062,0,1.367188,0.071289,1.736328,0.211914c0.49707,0.191406,0.830078,0.515625,0.998047,0.970703
		c0.082031,0.222656,0.123047,0.487305,0.123047,0.792969c0,1.239258-0.697266,2.119141-2.091797,2.638672
		c0.228516,0.382812,0.469727,0.770508,0.724609,1.162109l1.052734,1.620117c0.620117,0.957031,1.032227,1.501953,1.237305,1.633789
		c0.105469,0.068359,0.250977,0.102539,0.4375,0.102539L213.168945,35.75V36.1875z"/>
	<path class="st1" d="M218.681641,36.1875l-0.061523,0.068359c-0.455078-0.027344-1.15918-0.041016-2.112305-0.041016
		c-0.947266,0-1.649414,0.013672-2.105469,0.041016L214.34082,36.1875v-0.458008l0.068359-0.068359
		c0.464844-0.027344,0.731445-0.049805,0.799805-0.068359c0.132812-0.036133,0.209961-0.121094,0.232422-0.25293
		c0.05957-0.328125,0.088867-1.03418,0.088867-2.119141v-3.616211c0-1.084961-0.029297-1.791016-0.088867-2.119141
		c-0.022461-0.131836-0.099609-0.21582-0.232422-0.25293c-0.068359-0.017578-0.334961-0.041016-0.799805-0.068359
		l-0.068359-0.068359v-0.464844l0.068359-0.061523c0.4375,0.027344,1.139648,0.041016,2.105469,0.041016
		c0.961914,0,1.661133-0.013672,2.098633-0.041016l0.068359,0.061523v0.464844l-0.068359,0.068359
		c-0.464844,0.027344-0.731445,0.050781-0.799805,0.068359c-0.131836,0.037109-0.208984,0.121094-0.232422,0.25293
		c-0.058594,0.328125-0.088867,1.03418-0.088867,2.119141v3.616211c0,1.084961,0.030273,1.791016,0.088867,2.119141
		c0.023438,0.131836,0.100586,0.216797,0.232422,0.25293c0.068359,0.018555,0.334961,0.041016,0.799805,0.068359l0.068359,0.068359
		V36.1875z"/>
	<path class="st1" d="M230.526367,30.841797c0,1.544922-0.503906,2.825195-1.510742,3.841797
		c-0.492188,0.49707-1.088867,0.881836-1.791016,1.155273c-0.751953,0.295898-1.629883,0.435547-2.631836,0.416992
		l-2.413086-0.041016c-0.65625-0.008789-1.199219,0.004883-1.626953,0.041016l-0.068359-0.068359v-0.191406l0.03418-0.082031
		c0.336914-0.213867,0.519531-0.348633,0.546875-0.40332c0.041016-0.082031,0.06543-0.384766,0.075195-0.90918l0.020508-1.53125
		v-3.46582c0-1.084961-0.030273-1.791016-0.088867-2.119141c-0.023438-0.131836-0.100586-0.21582-0.232422-0.25293
		c-0.068359-0.017578-0.334961-0.041016-0.799805-0.068359l-0.068359-0.068359v-0.464844l0.068359-0.061523
		c0.482422,0.027344,0.943359,0.041016,1.380859,0.041016c1.061523,0,2.018555-0.013672,2.871094-0.041016
		c0.423828-0.013672,0.849609-0.020508,1.27832-0.020508c1.185547,0,2.09375,0.134766,2.727539,0.40332
		c0.692383,0.296875,1.235352,0.761719,1.626953,1.394531C230.326172,28.998047,230.526367,29.830078,230.526367,30.841797z
		 M228.427734,31.169922c0-1.262695-0.305664-2.233398-0.916016-2.912109c-0.318359-0.355469-0.717773-0.606445-1.196289-0.751953
		c-0.456055-0.136719-1.091797-0.205078-1.907227-0.205078c-0.423828,0-0.830078,0.030273-1.216797,0.088867
		c-0.045898,0.509766-0.068359,1.745117-0.068359,3.705078l0.013672,2.987305
		c0.003906,0.665039,0.022461,1.107422,0.054688,1.326172c0.400391,0.063477,0.810547,0.095703,1.230469,0.095703
		c0.90625,0,1.62207-0.131836,2.146484-0.396484c0.564453-0.287109,1.013672-0.774414,1.34668-1.462891
		C228.256836,32.933594,228.427734,32.108398,228.427734,31.169922z"/>
	<path class="st1" d="M239.959869,36.413963l-0.061523,0.068359c-1.011719-0.027344-1.62207-0.041016-1.832031-0.041016
		c-0.838867,0-1.618164,0.013672-2.337891,0.041016l-0.061523-0.068359v-0.430664l0.068359-0.075195l0.594727-0.03418
		c0.250977-0.013672,0.375977-0.102539,0.375977-0.266602c0-0.095703-0.063477-0.30957-0.191406-0.642578l-0.553711-1.442383
		c-0.628906-0.008789-1.271484-0.013672-1.927734-0.013672c-0.355469,0-0.883789,0.004883-1.585938,0.013672l-0.300781,0.833984
		c-0.227539,0.633789-0.341797,1.030273-0.341797,1.189453c0,0.172852,0.107422,0.275391,0.321289,0.307617
		c0.118164,0.018555,0.350586,0.036133,0.697266,0.054688l0.068359,0.068359v0.4375l-0.068359,0.068359
		c-0.842773-0.027344-1.385742-0.041016-1.626953-0.041016c-0.186523,0-0.649414,0.013672-1.387695,0.041016l-0.068359-0.061523
		v-0.444336l0.075195-0.068359c0.469727-0.027344,0.757812-0.121094,0.865234-0.280273
		c0.106445-0.15918,0.508789-1.109375,1.206055-2.850586l1.78418-4.463867c0.131836-0.345703,0.333008-0.868164,0.601562-1.56543
		h0.970703l3.623047,8.524414c0.141602,0.323242,0.268555,0.505859,0.382812,0.546875
		c0.150391,0.054688,0.367188,0.082031,0.649414,0.082031l0.061523,0.075195V36.413963z M235.625885,32.736229l-1.462891-3.582031
		l-1.401367,3.582031c0.374023,0.013672,0.859375,0.020508,1.456055,0.020508
		C234.796783,32.756737,235.265533,32.749901,235.625885,32.736229z"/>
</g>
</svg>
