<?xml version="1.0" encoding="utf-8"?>
<!-- Generator: Adobe Illustrator 26.5.0, SVG Export Plug-In . SVG Version: 6.00 Build 0)  -->
<svg version="1.1" id="Layer_1" xmlns="http://www.w3.org/2000/svg" xmlns:xlink="http://www.w3.org/1999/xlink" x="0px" y="0px"
	width="1200.000000pt" height="1305.000000pt" viewBox="0 0 1200.000000 1305.000000" style="enable-background:new 0 0 1200.000000 1305.000000;" xml:space="preserve">
<style type="text/css">
	.st0{fill:#FFFFFF;}
	.st1{fill:#0021A5;}
</style>
<g>
	<rect x="272.1657" y="362.1657" class="st0" width="67.6686" height="67.6686"/>
	<path class="st1" d="M319.8772,410.5275c0.0465,0.1277,0.1304,0.2273,0.2512,0.3001c0.1207,0.0732,0.2838,0.1093,0.4906,0.1093
		c0.1756,0,0.3328-0.026,0.4726-0.0791c0.1399-0.0528,0.2852-0.1298,0.4372-0.2318c0.152-0.1013,0.2637-0.1936,0.3345-0.2769
		c0.0989-0.1201,0.1863-0.2928,0.2616-0.5191c0.0756-0.2262,0.1135-0.4535,0.1135-0.6804c0-0.1197-0.0149-0.23-0.0444-0.3306
		c-0.0295-0.1006-0.0753-0.1867-0.1378-0.2589c-0.0625-0.0722-0.1554-0.1308-0.279-0.1756c-0.1228-0.0451-0.2592-0.068-0.4084-0.068
		c-0.1787,0-0.3473,0.0347-0.5062,0.1027c-0.1589,0.0687-0.3046,0.1554-0.4372,0.2606c-0.1332,0.1048-0.2255,0.1895-0.2776,0.2536
		c-0.0833,0.1024-0.161,0.27-0.2332,0.5021c-0.0718,0.2328-0.1083,0.4563-0.1083,0.6714
		C319.8064,410.2596,319.83,410.3998,319.8772,410.5275L319.8772,410.5275z M320.5361,409.2943
		c0.0774-0.2897,0.1656-0.4861,0.2648-0.5895c0.0992-0.1031,0.2179-0.1551,0.357-0.1551c0.1353,0,0.2453,0.0479,0.3296,0.1423
		c0.0843,0.0944,0.126,0.2477,0.126,0.4594c0,0.2498-0.0361,0.5114-0.109,0.7859c-0.0506,0.1877-0.1058,0.3348-0.1655,0.4413
		c-0.06,0.1065-0.1259,0.1839-0.1981,0.2314c-0.0722,0.0479-0.1579,0.0715-0.2568,0.0715c-0.1478,0-0.2623-0.0458-0.3428-0.1378
		c-0.0805-0.0919-0.1211-0.2446-0.1211-0.458C320.4202,409.8481,320.4587,409.584,320.5361,409.2943L320.5361,409.2943z
		 M322.9264,408.6837c0.1228,0,0.2366,0.0007,0.3407,0.0021l-0.3761,1.9455c-0.0992,0.5322-0.179,0.8816-0.2397,1.0482
		c-0.0316,0.0833-0.0684,0.1405-0.1107,0.1728c-0.0423,0.0319-0.0891,0.0479-0.1395,0.0479c-0.052,0-0.0992-0.018-0.1416-0.0541
		c-0.043-0.0361-0.0826-0.0958-0.119-0.1787l-0.0829,0.0156c-0.0194,0.0933-0.0406,0.1801-0.0638,0.2588
		c-0.0236,0.0791-0.0597,0.1829-0.1086,0.3116c0.0715,0.0291,0.1371,0.0437,0.1981,0.0437c0.0815,0,0.1666-0.0233,0.2547-0.0701
		c0.1686-0.0888,0.3345-0.2276,0.499-0.4178c0.1638-0.1902,0.2946-0.4091,0.3928-0.6582c0.0979-0.2488,0.2165-0.6534,0.3553-1.2137
		l0.288-1.2515c0.0576-0.0014,0.1447-0.0021,0.2613-0.0021c0.1856,0,0.3195,0.0007,0.4014,0.0021
		c0.0174-0.0854,0.0444-0.1749,0.0812-0.2686l-0.0264-0.0423c-0.0555,0.0104-0.1402,0.0194-0.2533,0.026
		c-0.1863,0.0125-0.3029,0.0177-0.3498,0.0156h-0.0597c0.0396-0.23,0.0909-0.4608,0.1534-0.6912
		c0.0243-0.0864,0.0486-0.1506,0.0718-0.1922c0.0236-0.0413,0.0552-0.0743,0.0954-0.0985c0.0396-0.0243,0.0812-0.0368,0.1249-0.0368
		c0.0555,0,0.118,0.0229,0.1877,0.068c0.0691,0.0451,0.1405,0.1228,0.2134,0.2318l0.0784-0.0153
		c0.0291-0.2089,0.0777-0.4303,0.1471-0.6645c-0.0729-0.0278-0.1443-0.0416-0.2137-0.0416c-0.1058,0-0.188,0.0125-0.2463,0.0378
		c-0.0576,0.025-0.1794,0.1041-0.3643,0.238c-0.1849,0.1332-0.3529,0.2703-0.5038,0.4108
		c-0.0975,0.0916-0.1697,0.1811-0.2162,0.2679c-0.0295,0.0551-0.0607,0.1575-0.0937,0.3064
		c-0.0139,0.0663-0.0253,0.1121-0.0337,0.1378c-0.0728,0.0336-0.1665,0.0663-0.2803,0.0985
		c-0.1145,0.0326-0.1992,0.059-0.2547,0.0798l-0.0233,0.1326C322.8112,408.6844,322.8636,408.6837,322.9264,408.6837
		L322.9264,408.6837L322.9264,408.6837z"/>
	<path class="st1" d="M286.825,414.5436h-0.4717c-0.0071,0.3182-0.0267,0.5222-0.059,0.6117
		c-0.0213,0.068-0.0551,0.1093-0.1017,0.1235c-0.1214,0.043-0.4143,0.0642-0.8784,0.0642c-0.1605,0-0.4693-0.0121-0.9262-0.0378
		v-0.7477c0-0.9295,0.0203-1.5728,0.0611-1.9291c0.1003-0.0066,0.289-0.0146,0.5664-0.0243
		c0.2774-0.0094,0.4466-0.0146,0.5074-0.0146c0.3151,0,0.5897,0.0205,0.8242,0.0614c0.2346,0.041,0.3837,0.0829,0.4485,0.1256
		c0.0211,0.0104,0.0373,0.0285,0.0482,0.0534c0.0143,0.032,0.0248,0.126,0.0323,0.2825c0.0179,0.2991,0.0267,0.4913,0.0267,0.5767
		h0.4384c0.0037-0.2366,0.02-0.5132,0.0484-0.8286c0.0284-0.3158,0.0624-0.576,0.1015-0.78l-0.0482-0.0757
		c-0.3231-0.0357-0.6655-0.0538-1.0276-0.0538l-2.5881,0.0503l-1.9097-0.0392v0.4497c0.3468,0.0219,0.5589,0.0413,0.6363,0.0593
		c0.0779,0.018,0.1284,0.0368,0.1521,0.0565c0.0231,0.0198,0.0404,0.0496,0.0512,0.0888c0.0326,0.1148,0.0522,0.3105,0.0597,0.5867
		c0.0333,0.9552,0.0501,1.4576,0.0501,1.508v2.2293c0,0.1905-0.0092,0.5034-0.0277,0.9399
		c-0.0189,0.4361-0.0335,0.6953-0.044,0.7779c-0.0181,0.1436-0.0437,0.237-0.076,0.28c-0.0217,0.0288-0.0487,0.0482-0.081,0.0593
		c-0.0654,0.025-0.3052,0.0413-0.7206,0.0486v0.4441c0.6613-0.0263,1.1448-0.0388,1.4503-0.0388l2.1137,0.0388v-0.4275
		c-0.4984-0.0361-0.7798-0.0656-0.8441-0.0888c-0.0647-0.0233-0.1095-0.0545-0.1346-0.094
		c-0.0359-0.0573-0.064-0.2571-0.0844-0.5992c-0.0204-0.3421-0.0305-0.9375-0.0305-1.7862v-0.5968
		c0.2037-0.0035,0.3461-0.0049,0.4285-0.0049c0.5709,0,0.9889,0.0233,1.2527,0.0698c0.1037,0.0212,0.1678,0.0555,0.1929,0.102
		c0.0501,0.093,0.0804,0.3633,0.0911,0.8109h0.4717C286.825,415.9297,286.825,415.1526,286.825,414.5436L286.825,414.5436
		L286.825,414.5436z M289.8192,419.4401c0.2326,0,0.6448,0.0073,1.2361,0.0226c0.7778,0.0181,1.1988,0.0277,1.2635,0.0277
		c0.4587,0,0.7971-0.0097,1.0161-0.0277c0.1038-0.0111,0.2078-0.0319,0.3116-0.0611c0.0037-0.0687,0.02-0.2727,0.0488-0.6131
		l0.1349-1.0864c0-0.0173,0.0054-0.077,0.0163-0.1769h-0.4441c-0.0682,0.3525-0.1383,0.6662-0.2099,0.9399
		c-0.0324,0.1079-0.063,0.1745-0.0918,0.1995c-0.0288,0.0253-0.1164,0.0489-0.2635,0.0708
		c-0.4054,0.0625-0.8808,0.0944-1.4266,0.0944c-0.1794,0-0.5166-0.0132-1.0119-0.0392c-0.0035-0.1075-0.0064-0.4132-0.0081-0.9167
		c-0.0018-0.5038-0.0047-1.0117-0.0082-1.5246c-0.0038-0.9719-0.0057-1.4896-0.0057-1.5544c0-0.602,0.0085-1.1006,0.0253-1.4947
		c0.0163-0.3945,0.0337-0.6159,0.0515-0.6645c0.018-0.0482,0.0465-0.0833,0.0858-0.1048c0.0895-0.0465,0.3372-0.0787,0.7424-0.0964
		v-0.4722c-0.5845,0.026-1.2028,0.0392-1.8551,0.0392c-0.5845,0-1.1039-0.0132-1.5595-0.0392v0.4722
		c0.4675,0.0177,0.743,0.0534,0.8254,0.1075c0.0398,0.0215,0.0668,0.0534,0.081,0.0965c0.0323,0.0971,0.0547,0.4826,0.0671,1.1568
		c0.0061,0.2658,0.0092,0.9653,0.0092,2.0985c0,0.7717-0.0074,1.4323-0.022,1.9826c-0.0149,0.551-0.0312,0.8709-0.0491,0.9608
		c-0.0034,0.0211-0.0123,0.0413-0.0269,0.059c-0.0213,0.0288-0.0694,0.0649-0.1443,0.1079
		c-0.1676,0.1003-0.2977,0.1703-0.3903,0.2096v0.2769C288.9338,419.4567,289.4677,419.4401,289.8192,419.4401L289.8192,419.4401
		L289.8192,419.4401z M294.458,417.9464c0.3296,0.5704,0.7841,1.0014,1.3629,1.2942c0.5787,0.2921,1.2716,0.4382,2.0777,0.4382
		c0.7455,0,1.4085-0.1201,1.9893-0.3605c0.4228-0.1791,0.8001-0.4358,1.1317-0.7696c0.3315-0.3331,0.5831-0.7154,0.7553-1.1457
		c0.2328-0.5773,0.3493-1.2033,0.3493-1.8778c0-0.3983-0.0401-0.762-0.1208-1.0923c-0.0806-0.3296-0.2-0.6329-0.3577-0.9091
		c-0.1575-0.2762-0.3881-0.5461-0.6909-0.8098c-0.3025-0.2634-0.6512-0.4653-1.0456-0.6052
		c-0.5305-0.1825-1.1216-0.2744-1.774-0.2744c-0.6558,0-1.2616,0.0954-1.8169,0.2856c-0.4339,0.1506-0.8353,0.3959-1.2045,0.7366
		s-0.653,0.755-0.852,1.2429c-0.199,0.4878-0.2984,1.0604-0.2984,1.7164C293.9634,416.666,294.1282,417.3759,294.458,417.9464
		L294.458,417.9464z M295.8678,413.9c0.1671-0.4813,0.4342-0.8452,0.8015-1.0912c0.3678-0.246,0.8133-0.3692,1.3371-0.3692
		c0.459,0,0.8275,0.0774,1.1053,0.2321c0.278,0.1541,0.5191,0.3779,0.7234,0.6707c0.2044,0.2928,0.3614,0.6478,0.4709,1.0645
		c0.1093,0.4167,0.1641,0.8764,0.1641,1.3795c0,0.7332-0.1013,1.3563-0.3041,1.8698c-0.2026,0.5139-0.4821,0.8789-0.839,1.0944
		c-0.357,0.2155-0.7613,0.323-1.2128,0.323c-0.4878,0-0.9109-0.1128-1.2696-0.3393c-0.3588-0.2262-0.6526-0.6135-0.8822-1.1613
		c-0.2295-0.5478-0.3444-1.2404-0.3444-2.0776C295.6179,414.9131,295.7012,414.3816,295.8678,413.9L295.8678,413.9z
		 M302.9073,412.5198c0.0356,0.0215,0.0622,0.052,0.08,0.0909c0.0356,0.0902,0.0569,0.3591,0.064,0.8074l0.0276,1.1349v1.9958
		l-0.0444,1.5711c-0.0106,0.2835-0.0284,0.4948-0.0536,0.6349c-0.0106,0.075-0.0259,0.1253-0.0454,0.1506
		c-0.0196,0.025-0.0508,0.043-0.0939,0.0534c-0.075,0.0253-0.3158,0.0451-0.7229,0.0597v0.4719
		c0.4764-0.0263,0.9941-0.0388,1.5526-0.0388c0.6271,0,1.2468,0.0125,1.8601,0.0388v-0.4719
		c-0.3444-0.0073-0.5522-0.018-0.624-0.0326c-0.0717-0.0139-0.1235-0.033-0.156-0.0562c-0.0323-0.0233-0.0553-0.0493-0.0699-0.0781
		c-0.0284-0.0611-0.0484-0.1916-0.059-0.3924c-0.0075-0.1003-0.0186-0.5191-0.0335-1.2574c-0.011-0.602-0.0167-1.1714-0.0167-1.7091
		c0-0.3404,0.0114-1.0173,0.0335-2.0315c0.0109-0.4528,0.0224-0.7436,0.0333-0.873c0.1684-0.0285,0.339-0.043,0.5112-0.043
		c0.3878,0,0.657,0.0271,0.8076,0.0808c0.2335,0.0861,0.4292,0.238,0.5871,0.4573c0.1579,0.2183,0.237,0.4927,0.237,0.8227
		c0,0.3261-0.0757,0.6211-0.2262,0.8848c-0.1506,0.2633-0.3358,0.4462-0.5548,0.5486c-0.2193,0.102-0.5443,0.1461-0.9753,0.1315
		l-0.059,0.1776c0.1074,0.0787,0.2186,0.1971,0.3336,0.3546c0.2295,0.3116,0.5092,0.7394,0.8391,1.2841l1.1512,1.8965
		c0.0684,0.1256,0.1111,0.2276,0.1294,0.3067c0.2831-0.0152,0.568-0.0225,0.8553-0.0225c0.247,0,0.6468,0.0073,1.1991,0.0225
		v-0.4719c-0.1686-0.0038-0.2817-0.018-0.339-0.043c-0.0576-0.0246-0.1166-0.069-0.1776-0.1332
		c-0.0607-0.0642-0.2259-0.2737-0.4951-0.6294c-0.0177-0.025-0.1377-0.2026-0.3602-0.5336l-0.8341-1.2429
		c-0.0215-0.0319-0.042-0.0659-0.0618-0.1013c-0.0197-0.0354-0.0867-0.1371-0.2016-0.304c-0.1149-0.1672-0.2172-0.331-0.3067-0.4906
		c0.5603-0.2082,0.9753-0.4899,1.2449-0.8452c0.2696-0.3546,0.4042-0.7494,0.4042-1.1839c0-0.3657-0.0986-0.6759-0.2963-0.9305
		c-0.1971-0.2547-0.4355-0.4223-0.7151-0.5031c-0.2793-0.0805-0.7009-0.1207-1.264-0.1207c-0.2904,0-0.6581,0.01-1.1025,0.0305
		c-0.2691,0.0167-0.5919,0.0247-0.9682,0.0247c-0.4413,0-0.7821-0.0042-1.0222-0.0128c-0.491-0.0174-0.7781-0.0257-0.8605-0.0257
		v0.4382C302.5591,412.4406,302.8221,412.4767,302.9073,412.5198L302.9073,412.5198L302.9073,412.5198z M311.4868,412.0014
		c-0.5857,0-1.1044-0.0132-1.5565-0.0392v0.4722c0.3914,0.0139,0.6186,0.0291,0.6814,0.0458
		c0.0632,0.0159,0.1062,0.0364,0.1294,0.0617c0.0236,0.025,0.0406,0.0607,0.051,0.1075c0.0257,0.1149,0.0472,0.4001,0.0649,0.856
		c0.0073,0.2047,0.0114,0.6641,0.0114,1.3782v2.2505c0,0.3661-0.0149,0.7644-0.0444,1.1949
		c-0.018,0.2946-0.0326,0.4632-0.0434,0.5062c-0.0073,0.0323-0.024,0.0607-0.051,0.0861c-0.0271,0.025-0.0784,0.0447-0.1534,0.0593
		c-0.0576,0.0107-0.2727,0.0233-0.646,0.0378v0.4719c0.4521-0.0263,0.9673-0.0388,1.5454-0.0388
		c0.6641,0,1.289,0.0125,1.8744,0.0388v-0.4719c-0.3546-0.0073-0.5687-0.0191-0.6429-0.0354
		c-0.0739-0.016-0.1281-0.0375-0.1624-0.0645c-0.0344-0.0267-0.059-0.0652-0.0732-0.1155
		c-0.0361-0.1114-0.0541-0.3518-0.0541-0.7217l-0.0167-0.985v-2.1696c0-0.0684,0.0073-0.5437,0.0222-1.4264
		c0.0034-0.2585,0.009-0.4344,0.0163-0.5277c0.0108-0.1724,0.0291-0.289,0.0545-0.3501c0.0104-0.0357,0.0305-0.0652,0.0597-0.0888
		c0.0284-0.0233,0.0774-0.043,0.1464-0.059c0.0684-0.016,0.2852-0.0298,0.6502-0.0402v-0.4722
		C312.7647,411.9882,312.1436,412.0014,311.4868,412.0014L311.4868,412.0014L311.4868,412.0014z M315.6476,419.4515l1.5967,0.0388
		c0.7238,0,1.3414-0.0801,1.8542-0.2397c0.5122-0.1592,0.9875-0.4208,1.4268-0.7827c0.4389-0.3622,0.7838-0.8123,1.0347-1.3508
		c0.2505-0.5385,0.3761-1.1498,0.3761-1.8351c0-0.5381-0.0843-1.0329-0.2526-1.4854c-0.1006-0.2686-0.2484-0.5198-0.4434-0.7529
		c-0.1957-0.2332-0.4348-0.4351-0.7175-0.6054c-0.2831-0.1704-0.6155-0.2942-0.9972-0.3713
		c-0.3817-0.0774-0.8896-0.1159-1.5239-0.1159c-0.2758,0-0.6433,0.0066-1.102,0.0191c-0.6343,0.0208-1.0659,0.0312-1.2956,0.0312
		l-1.9507-0.0392v0.433c0.3893,0.0503,0.6141,0.0829,0.6752,0.0968c0.0604,0.0146,0.1048,0.0361,0.1339,0.0649
		c0.0177,0.0177,0.032,0.043,0.043,0.0753c0.0354,0.1402,0.0583,0.4629,0.0694,0.9688c0.0188,0.9146,0.0277,1.6089,0.0277,2.0825
		v0.8827c0,1.0801-0.0208,1.8604-0.061,2.341c-0.1138,0.0829-0.238,0.162-0.3727,0.2377c-0.0711,0.0396-0.1208,0.068-0.1492,0.0864
		v0.2592L315.6476,419.4515L315.6476,419.4515z M316.1126,416.7139v-1.2352c0-1.4066,0.0187-2.3642,0.0555-2.8722
		c0.3338-0.0482,0.6381-0.0721,0.9139-0.0721c0.7352,0,1.2838,0.0642,1.646,0.1936c0.3618,0.1287,0.6613,0.3369,0.8979,0.6239
		c0.2366,0.2866,0.407,0.6211,0.5107,1.0027c0.1041,0.382,0.1562,0.7772,0.1562,1.1859c0,0.4483-0.052,0.866-0.1562,1.2533
		c-0.1037,0.3872-0.2498,0.7206-0.4379,0.9999c-0.1888,0.2797-0.3844,0.4917-0.5891,0.635
		c-0.2047,0.1436-0.4427,0.2526-0.7155,0.3282c-0.3692,0.0999-0.7925,0.1502-1.2692,0.1502c-0.3047,0-0.6232-0.0277-0.957-0.0829
		C316.1313,418.4842,316.1126,417.7805,316.1126,416.7139L316.1126,416.7139L316.1126,416.7139z M322.2141,419.4515l1.2397,0.0388
		v-0.4441c-0.4268-0.0146-0.6829-0.0468-0.7686-0.0968c-0.0573-0.0357-0.0857-0.0961-0.0857-0.1822
		c0-0.1214,0.0895-0.4282,0.2679-0.9216l0.2352-0.6429h2.7765l0.4604,1.1786c0.0822,0.2037,0.1235,0.3501,0.1235,0.4396
		c0,0.0715-0.0274,0.1225-0.0829,0.1523c-0.0559,0.0305-0.3005,0.0548-0.7342,0.0728v0.4441l1.8868-0.0388l1.494,0.0388v-0.4441
		c-0.1041-0.0111-0.1828-0.0197-0.2366-0.027c-0.1683-0.0111-0.2731-0.0233-0.3144-0.0378c-0.0409-0.0142-0.0781-0.0358-0.11-0.0642
		c-0.0323-0.0291-0.0663-0.0756-0.1024-0.1402l-0.2151-0.4948l-0.3331-0.737l-2.4024-5.616h-0.7661l-0.4733,1.221l-1.4028,3.4641
		c-0.2654,0.6568-0.4445,1.0957-0.5375,1.3181c-0.2044,0.4733-0.3275,0.7467-0.3685,0.8203
		c-0.0413,0.0735-0.0819,0.1273-0.1208,0.1617c-0.0396,0.034-0.0871,0.059-0.1426,0.075c-0.0551,0.016-0.2286,0.035-0.5187,0.0569
		v0.4441L322.2141,419.4515L322.2141,419.4515z M324.4593,413.7977l1.1519,2.7834c-0.3275,0.0114-0.6974,0.0166-1.1103,0.0166
		c-0.4278,0-0.8105-0.0052-1.1481-0.0166L324.4593,413.7977L324.4593,413.7977z"/>
	<path class="st1" d="M282.2122,407.6191c0.0302,0.0222,0.0494,0.0417,0.0569,0.0583c0.0135,0.0305,0.0227,0.0784,0.0274,0.1443
		c0.0074,0.1686,0.011,0.3581,0.011,0.5683v0.5732l-0.0021,0.433c0,0.238,0.0035,0.3838,0.0113,0.4379
		c0.0104,0.0875,0.0399,0.178,0.0878,0.272c0.0484,0.0941,0.118,0.179,0.2101,0.2547c0.0916,0.076,0.2096,0.1367,0.3541,0.1818
		c0.1986,0.0614,0.4122,0.0923,0.6407,0.0923c0.1957,0,0.3678-0.0208,0.5166-0.0631c0.1492-0.042,0.2774-0.1044,0.3859-0.1874
		c0.1084-0.0826,0.1922-0.1749,0.2516-0.2776c0.0593-0.102,0.0991-0.2255,0.1186-0.3699c0.0196-0.144,0.0292-0.2838,0.0292-0.4195
		v-0.5298c0-0.1565,0.0054-0.3698,0.0152-0.6408c0.0103-0.2706,0.021-0.423,0.0323-0.457c0.0114-0.0336,0.026-0.0569,0.044-0.0687
		c0.0359-0.0226,0.1241-0.034,0.2637-0.034v-0.186l-0.5007,0.0146c-0.0269,0.0014-0.0472,0.002-0.0607,0.002
		c-0.0511,0-0.2129-0.0056-0.4849-0.0167v0.186c0.1665,0.0048,0.275,0.0194,0.3246,0.0451c0.024,0.0121,0.0413,0.0305,0.0519,0.0542
		c0.0165,0.0388,0.0271,0.1533,0.0314,0.3431c0.0021,0.0874,0.0028,0.3293,0.0028,0.7265v0.4604
		c0,0.3206-0.0264,0.5378-0.0789,0.6523c-0.0526,0.1141-0.141,0.2075-0.2649,0.2786c-0.1241,0.0715-0.2907,0.1072-0.5,0.1072
		c-0.182,0-0.3319-0.0263-0.4498-0.0801c-0.1183-0.0531-0.2057-0.1232-0.2628-0.2096c-0.0573-0.0868-0.0925-0.2009-0.106-0.3421
		c-0.0059-0.0649-0.0092-0.2346-0.0092-0.5097l-0.002-0.2644v-0.5236c0-0.3174,0.0102-0.5225,0.0305-0.6159
		c0.0075-0.0392,0.0227-0.0656,0.0454-0.0791c0.0437-0.0288,0.1471-0.043,0.3098-0.043v-0.186l-0.0834,0.0028l-0.3048,0.0083
		l-0.3047,0.0056l-0.7336-0.0167v0.186L282.2122,407.6191L282.2122,407.6191z M286.2222,410.5573
		c0.2505-0.0111,0.4495-0.0167,0.5958-0.0167c0.0396,0,0.2019,0.0028,0.4875,0.0083v-0.1832
		c-0.0208,0.0014-0.0357,0.0024-0.0447,0.0024c-0.0451,0-0.1169-0.0059-0.2146-0.0181c-0.0359-0.0045-0.0611-0.0125-0.0753-0.0239
		c-0.0143-0.0111-0.0245-0.0257-0.0306-0.0437c-0.0121-0.0375-0.021-0.1436-0.0271-0.3182
		c-0.0109-0.2526-0.0166-0.4958-0.0166-0.729v-1.1235c0.8912,1.0874,1.5792,1.9024,2.065,2.4455
		c0.1311,0.018,0.2604,0.0374,0.3872,0.0583l0.0292-0.0201c-0.0202-0.2137-0.0302-0.8206-0.0302-1.8209
		c0-0.1277,0.0033-0.3261,0.0097-0.5947c0.0063-0.2682,0.0208-0.4399,0.0432-0.5156c0.0047-0.0146,0.0128-0.0264,0.025-0.0337
		c0.0349-0.0225,0.1438-0.0361,0.3272-0.0406v-0.1888c-0.2345,0.0111-0.4261,0.0167-0.5749,0.0167
		c-0.1534,0-0.3218-0.0056-0.5052-0.0167v0.1888c0.2,0.0027,0.3173,0.018,0.3518,0.0451c0.0212,0.0167,0.0347,0.0528,0.0408,0.1086
		c0.0179,0.1426,0.027,0.6187,0.027,1.4285v0.5211c-0.2088-0.2148-0.4719-0.5125-0.7891-0.8934
		c-0.4402-0.5277-0.8151-0.9941-1.1246-1.3987l-0.2078,0.0084l-0.3269,0.0083c-0.0902,0-0.2309-0.0056-0.4218-0.0167v0.1888
		c0.1588,0.0104,0.255,0.0204,0.2882,0.0291c0.033,0.0094,0.0565,0.0219,0.0706,0.0375c0.0142,0.0159,0.0253,0.0403,0.0328,0.0735
		c0.0075,0.033,0.0121,0.1044,0.0135,0.2144l0.0113,0.6565v0.7245c0,0.1999-0.0031,0.3626-0.0092,0.4871
		c-0.0125,0.22-0.0234,0.3584-0.0326,0.4157c-0.0075,0.0416-0.0168,0.07-0.0281,0.0832c-0.0114,0.0135-0.0253,0.0237-0.042,0.0292
		c-0.0255,0.008-0.1272,0.016-0.3045,0.025V410.5573L286.2222,410.5573z M291.4208,407.4179c-0.2451,0-0.4625-0.0056-0.652-0.0167
		v0.1999c0.1631,0.0063,0.2576,0.0125,0.284,0.0194c0.0259,0.0066,0.0441,0.0153,0.0536,0.0257
		c0.0095,0.0104,0.0167,0.0257,0.0213,0.0451c0.0103,0.0479,0.0194,0.1672,0.0269,0.3581c0.0037,0.0857,0.0054,0.2783,0.0054,0.5774
		v0.942c0,0.153-0.0064,0.3196-0.0191,0.5003c-0.0075,0.1232-0.0135,0.1936-0.0182,0.2117
		c-0.0027,0.0135-0.0099,0.0257-0.0213,0.0364c-0.0109,0.0104-0.0323,0.0187-0.0635,0.0243
		c-0.0243,0.0049-0.1138,0.0101-0.2691,0.016v0.1999c0.1895-0.0111,0.4055-0.0167,0.6475-0.0167
		c0.2781,0,0.5397,0.0056,0.7848,0.0167v-0.1999c-0.1485-0.0031-0.2384-0.0076-0.2697-0.0146
		c-0.0309-0.0069-0.0536-0.016-0.0682-0.027c-0.0143-0.0111-0.0245-0.0278-0.0305-0.0486
		c-0.0153-0.0465-0.0227-0.1471-0.0227-0.3018l-0.0057-0.4125v-0.9081c0-0.0284,0.0033-0.2276,0.0095-0.5974
		c0.0016-0.1079,0.004-0.1818,0.0071-0.2207c0.0047-0.0721,0.0122-0.1211,0.0227-0.1464c0.0044-0.0153,0.0128-0.0278,0.025-0.0375
		c0.012-0.0097,0.0323-0.0177,0.0611-0.0243c0.0285-0.007,0.119-0.0125,0.2715-0.0174v-0.1999
		C291.956,407.4124,291.696,407.4179,291.4208,407.4179L291.4208,407.4179L291.4208,407.4179z M295.0229,410.5739
		c0.0913-0.2567,0.2665-0.695,0.5251-1.3136l0.3041-0.7262l0.1603-0.374c0.1289-0.3095,0.2139-0.4799,0.2543-0.5118
		c0.0241-0.018,0.1091-0.0337,0.2547-0.0472v-0.1999l-0.4866,0.0167l-0.5728-0.0167v0.1999c0.0674,0.0014,0.1504,0.007,0.248,0.0156
		c0.0437,0.0031,0.0706,0.0066,0.0814,0.0114c0.0135,0.0063,0.0241,0.0153,0.0326,0.0281c0.0082,0.0128,0.0125,0.032,0.0125,0.0576
		c0,0.0181-0.0017,0.0361-0.0047,0.0538c-0.0153,0.0617-0.0564,0.1828-0.1238,0.3629c-0.0949,0.2557-0.1487,0.398-0.1603,0.4268
		l-0.5014,1.2408l-0.5706-1.392c-0.0061-0.0167-0.0109-0.0305-0.0146-0.0417c-0.0038-0.0114-0.0345-0.0864-0.0913-0.2248
		c-0.0995-0.2401-0.1488-0.3831-0.1488-0.4282c0-0.0226,0.0064-0.0406,0.0191-0.0552c0.0128-0.0142,0.0356-0.025,0.0685-0.033
		c0.0573-0.0132,0.149-0.0208,0.2755-0.0222v-0.1999l-0.8098,0.0167c-0.0781,0-0.2977-0.0056-0.6587-0.0167v0.1999
		c0.1414,0.0035,0.2345,0.0167,0.2797,0.0406c0.0302,0.0167,0.0742,0.0822,0.1322,0.1971c0.0576,0.1152,0.2122,0.4722,0.4634,1.0718
		l0.3201,0.764c0.1173,0.2838,0.2397,0.5836,0.3676,0.8993H295.0229L295.0229,410.5739z M298.2856,410.5379
		c0.135,0,0.3815,0.0028,0.739,0.0083l0.3628,0.0083c0.1773,0,0.314-0.0056,0.4103-0.0166l0.0288-0.0292
		c0-0.1922,0.0163-0.4368,0.0491-0.7342h-0.1863c-0.0298,0.2012-0.0581,0.3376-0.0851,0.4094
		c-0.0089,0.0211-0.0189,0.0347-0.0292,0.0409c-0.0316,0.0194-0.1159,0.0344-0.2526,0.0444
		c-0.1372,0.0108-0.2864,0.0159-0.4481,0.0159c-0.1662,0-0.3098-0.0055-0.4313-0.0166c-0.0035-0.0757-0.0054-0.1662-0.0054-0.2717
		v-0.9441c0.0952-0.0111,0.2165-0.0167,0.3631-0.0167c0.1634,0,0.2975,0.0083,0.402,0.025
		c0.0468,0.0076,0.0791,0.0257,0.0973,0.0562c0.0241,0.0403,0.0356,0.1471,0.034,0.3213h0.1834l-0.0109-0.493l0.0109-0.4951h-0.1834
		c-0.0028,0.1339-0.0134,0.229-0.0312,0.2862c-0.0075,0.0226-0.0184,0.0378-0.0326,0.0472
		c-0.0142,0.0087-0.0616,0.0143-0.1421,0.0157c-0.2139,0.0063-0.3379,0.009-0.3721,0.009c-0.1108,0-0.2167-0.0035-0.3184-0.0111
		v-0.4649c0-0.263,0.0101-0.4802,0.0305-0.6509c0.1393-0.0111,0.2755-0.0167,0.4087-0.0167c0.1424,0,0.2877,0.0084,0.4358,0.0247
		c0.1003,0.0107,0.1603,0.0225,0.1799,0.0364c0.0116,0.0087,0.021,0.024,0.0266,0.0451c0.0107,0.0402,0.0175,0.1495,0.0203,0.3268
		h0.1752c0.0135-0.1943,0.021-0.3026,0.0224-0.3251l0.0434-0.3255l-0.0159-0.0295c-0.0345-0.0097-0.0594-0.0146-0.0743-0.0146
		c-0.1653-0.0063-0.2751-0.009-0.3291-0.009l-0.4573,0.0114c-0.2523,0.0045-0.4814,0.0066-0.6872,0.0066
		c-0.0944,0-0.1936,0.0007-0.2974,0.0007l-0.5225,0.0049v0.1749c0.1766,0.009,0.2848,0.0226,0.3258,0.041
		c0.0149,0.0073,0.0262,0.0187,0.034,0.0333c0.0163,0.0378,0.0271,0.1412,0.0317,0.3109c0.0035,0.2543,0.0052,0.4004,0.0052,0.44
		v1.0142c0,0.1172-0.0061,0.305-0.0184,0.5634c-0.0061,0.1412-0.0139,0.2433-0.0231,0.3064
		c-0.0565,0.0451-0.1298,0.0888-0.2193,0.1311v0.1214C297.9985,410.5434,298.2494,410.5379,298.2856,410.5379L298.2856,410.5379
		L298.2856,410.5379z M301.2512,407.6323c0.0146,0.009,0.0261,0.0219,0.0335,0.0385c0.0149,0.0378,0.0238,0.1503,0.027,0.3383
		l0.011,0.476v0.8369l-0.0196,0.6585c-0.0045,0.119-0.012,0.2079-0.0224,0.2665c-0.0045,0.0316-0.0106,0.0527-0.0191,0.0628
		c-0.0081,0.0107-0.0213,0.0184-0.0392,0.0226c-0.0312,0.0111-0.132,0.0191-0.3022,0.025v0.1999
		c0.1997-0.0111,0.4164-0.0167,0.6505-0.0167c0.2628,0,0.5226,0.0056,0.7798,0.0167v-0.1999
		c-0.1443-0.0031-0.2316-0.0073-0.2614-0.0132c-0.0302-0.0062-0.0519-0.0139-0.0657-0.0239
		c-0.0135-0.0101-0.0231-0.0205-0.0292-0.033c-0.0121-0.0253-0.0203-0.0805-0.025-0.1645
		c-0.0027-0.0423-0.0071-0.2183-0.0126-0.5284c-0.0047-0.2529-0.0068-0.4924-0.0068-0.7179c0-0.143,0.0045-0.4275,0.0139-0.8536
		c0.0045-0.1891,0.0092-0.3109,0.0142-0.365c0.0703-0.0121,0.1418-0.018,0.2139-0.018c0.1618,0,0.2746,0.0111,0.3378,0.034
		c0.0977,0.0361,0.1794,0.1003,0.2455,0.1922c0.0661,0.0916,0.0992,0.2072,0.0992,0.3456c0,0.1374-0.0318,0.2612-0.0949,0.3719
		c-0.0633,0.1107-0.1407,0.1877-0.2325,0.2304c-0.0916,0.043-0.228,0.0618-0.4086,0.0555l-0.0248,0.0746
		c0.0451,0.033,0.0919,0.0829,0.14,0.1489c0.0963,0.1308,0.2136,0.3105,0.352,0.5392l0.483,0.7963
		c0.0283,0.0531,0.0465,0.0954,0.054,0.1288c0.1186-0.0056,0.2384-0.0084,0.3584-0.0084c0.1037,0,0.2715,0.0028,0.5031,0.0084
		v-0.1999c-0.0706-0.0014-0.1183-0.0073-0.1421-0.018c-0.0241-0.0104-0.0491-0.0288-0.0746-0.0555
		c-0.0255-0.0271-0.0949-0.1152-0.2075-0.2644c-0.0075-0.01-0.058-0.0847-0.1509-0.2234l-0.3501-0.5215
		c-0.0089-0.0135-0.0174-0.0274-0.0259-0.0427c-0.0081-0.0146-0.0362-0.0569-0.0847-0.127
		c-0.0479-0.0704-0.0909-0.1388-0.1285-0.2061c0.2346-0.0871,0.4079-0.2054,0.5204-0.3542
		c0.1128-0.1488,0.1691-0.3147,0.1691-0.4965c0-0.1534-0.0414-0.2838-0.124-0.3904c-0.0828-0.1069-0.1825-0.1773-0.2998-0.2109
		c-0.1169-0.0337-0.2935-0.051-0.5295-0.051c-0.1215,0-0.2757,0.0042-0.4618,0.0125c-0.1126,0.0062-0.2479,0.0097-0.4054,0.0097
		c-0.1848,0-0.3275-0.002-0.4282-0.0056c-0.2059-0.0073-0.3261-0.0111-0.3605-0.0111v0.186
		C301.1049,407.5994,301.2154,407.6143,301.2512,407.6323L301.2512,407.6323L301.2512,407.6323z M307.0747,407.8558
		c0.0094-0.0937,0.0247-0.1895,0.0451-0.2869l-0.018-0.0538c-0.1096-0.0538-0.2394-0.0951-0.3889-0.1239
		c-0.1499-0.0285-0.3043-0.0427-0.4636-0.0427c-0.1537,0-0.3036,0.0173-0.4493,0.0507c-0.1459,0.034-0.2766,0.0902-0.3924,0.1683
		c-0.1159,0.0778-0.2092,0.1877-0.28,0.33c-0.0706,0.1422-0.1058,0.2977-0.1058,0.4656c0,0.1204,0.0194,0.2325,0.0587,0.3372
		c0.039,0.1041,0.098,0.1936,0.1773,0.2672c0.0788,0.0736,0.1828,0.1298,0.3123,0.169c0.086,0.0253,0.2651,0.067,0.5371,0.1239
		c0.1895,0.0437,0.322,0.0857,0.3973,0.1266c0.0749,0.0406,0.1305,0.0944,0.1659,0.1624c0.0354,0.0677,0.0531,0.1489,0.0531,0.2439
		c0,0.1127-0.0253,0.213-0.076,0.3019c-0.05,0.0888-0.1315,0.1589-0.2436,0.2092c-0.1124,0.05-0.2394,0.0753-0.3824,0.0753
		c-0.1638,0-0.3154-0.0354-0.4538-0.1062c-0.1383-0.0708-0.2363-0.1534-0.2935-0.2467c-0.0196-0.1613-0.0278-0.2963-0.025-0.4049
		h-0.1886c-0.0014,0.3505-0.0255,0.6117-0.0721,0.7828c0.1731,0.0843,0.3315,0.1443,0.4758,0.1783
		c0.1442,0.0347,0.3088,0.052,0.4938,0.052c0.2523,0,0.4691-0.0361,0.6492-0.1082c0.1131-0.0448,0.2224-0.1131,0.3293-0.204
		c0.1065-0.0909,0.1902-0.1912,0.2502-0.3012c0.0798-0.1454,0.1197-0.3143,0.1197-0.5073c0-0.1093-0.0146-0.2082-0.0427-0.2963
		c-0.0284-0.0874-0.0652-0.161-0.1096-0.2186c-0.044-0.0576-0.1041-0.109-0.179-0.1534c-0.075-0.0444-0.1735-0.0826-0.2953-0.1138
		c-0.0465-0.0104-0.1475-0.0291-0.3029-0.0562c-0.1558-0.027-0.2769-0.05-0.364-0.068c-0.1145-0.0298-0.2009-0.0631-0.2592-0.0992
		c-0.0588-0.0361-0.1039-0.0847-0.1357-0.1464c-0.0312-0.0618-0.0479-0.1423-0.0493-0.2415c0-0.1384,0.056-0.2592,0.1679-0.3622
		c0.1125-0.103,0.271-0.1547,0.4757-0.1547c0.143,0,0.272,0.0256,0.3872,0.0763c0.1152,0.0513,0.1957,0.11,0.2429,0.1762
		c0.0118,0.0722,0.0194,0.195,0.0222,0.3692h0.1891C307.0581,408.0727,307.065,407.9495,307.0747,407.8558L307.0747,407.8558z
		 M309.0778,407.4179c-0.2453,0-0.4625-0.0056-0.6519-0.0167v0.1999c0.1631,0.0063,0.2574,0.0125,0.2838,0.0194
		c0.0261,0.0066,0.0441,0.0153,0.0534,0.0257c0.0097,0.0104,0.017,0.0257,0.0215,0.0451c0.0104,0.0479,0.0194,0.1672,0.0271,0.3581
		c0.0035,0.0857,0.0052,0.2783,0.0052,0.5774v0.942c0,0.153-0.0063,0.3196-0.0191,0.5003
		c-0.0077,0.1232-0.0135,0.1936-0.0181,0.2117c-0.0028,0.0135-0.01,0.0257-0.0215,0.0364
		c-0.0111,0.0104-0.0323,0.0187-0.0635,0.0243c-0.0239,0.0049-0.1134,0.0101-0.2689,0.016v0.1999
		c0.1895-0.0111,0.4049-0.0167,0.6474-0.0167c0.2783,0,0.5396,0.0056,0.7849,0.0167v-0.1999
		c-0.1485-0.0031-0.2387-0.0076-0.2699-0.0146c-0.0305-0.0069-0.0534-0.016-0.068-0.027c-0.0146-0.0111-0.0247-0.0278-0.0305-0.0486
		c-0.0153-0.0465-0.0229-0.1471-0.0229-0.3018l-0.0056-0.4125v-0.9081c0-0.0284,0.0031-0.2276,0.0097-0.5974
		c0.0014-0.1079,0.0035-0.1818,0.0069-0.2207c0.0042-0.0721,0.0118-0.1211,0.0222-0.1464c0.0049-0.0153,0.0132-0.0278,0.0253-0.0375
		c0.0118-0.0097,0.0323-0.0177,0.0611-0.0243c0.0285-0.007,0.119-0.0125,0.2717-0.0174v-0.1999
		C309.6128,407.4124,309.3529,407.4179,309.0778,407.4179L309.0778,407.4179L309.0778,407.4179z M312.2105,410.5379
		c0.2002,0,0.4462,0.0066,0.7384,0.0194v-0.186c-0.1811-0.0059-0.289-0.0184-0.3234-0.0371
		c-0.035-0.0191-0.0576-0.0475-0.068-0.0867c-0.0167-0.0663-0.0253-0.2613-0.0253-0.586v-1.3508
		c0-0.3591,0.0024-0.5652,0.0066-0.618h0.3233c0.1728,0,0.321,0.0062,0.4441,0.018c0.0392,0.0031,0.0635,0.0083,0.0722,0.016
		c0.0108,0.0104,0.0205,0.0423,0.0298,0.0968c0.016,0.1065,0.026,0.2186,0.0292,0.3355h0.1859
		c0.0042-0.3171,0.0077-0.4816,0.009-0.4941c0.0028-0.0687,0.0111-0.1492,0.024-0.2411l-0.0226-0.0226
		c-0.0704,0.0073-0.1401,0.0125-0.2096,0.0153c-0.1273,0.0049-0.3803,0.0069-0.7588,0.0069h-0.9101
		c-0.3678,0-0.6166-0.0021-0.7453-0.0069c-0.0798-0.0028-0.1547-0.008-0.2255-0.0153l-0.0202,0.0226
		c0.0104,0.0767,0.0177,0.1482,0.0222,0.2141c0.0014,0.0396,0.0049,0.213,0.0111,0.5211h0.186
		c0.0028-0.1305,0.0139-0.2484,0.0337-0.3536c0.008-0.0437,0.0167-0.0701,0.0274-0.0787c0.0073-0.0077,0.0358-0.0135,0.0854-0.0181
		c0.1238-0.0104,0.2672-0.016,0.4295-0.016h0.3234c0.0034,0.0437,0.0056,0.2495,0.0056,0.618v1.3508
		c0,0.3247-0.0087,0.519-0.025,0.5839c-0.0122,0.042-0.0354,0.0718-0.0687,0.0899c-0.0344,0.018-0.1419,0.0302-0.3227,0.036v0.186
		C311.7505,410.5445,311.9965,410.5379,312.2105,410.5379L312.2105,410.5379L312.2105,410.5379z M315.9037,408.2701
		c-0.1082-0.2117-0.2172-0.3983-0.3265-0.5607c-0.0739-0.11-0.1319-0.1846-0.1738-0.2241
		c-0.0416-0.0403-0.1089-0.0854-0.2006-0.1367c-0.0857,0.0229-0.169,0.043-0.2505,0.0607l-0.4774,0.0947v0.1693
		c0.1128,0,0.179,0.0048,0.1985,0.0135c0.0316,0.0166,0.0846,0.0656,0.1603,0.1464c0.1124,0.1231,0.2346,0.2869,0.365,0.4913
		c0.161,0.2509,0.3123,0.5055,0.4535,0.7637c0.0573,0.1086,0.0857,0.1801,0.0857,0.2144v0.4282
		c0,0.1204-0.0035,0.2661-0.0111,0.4371c-0.0049,0.075-0.0125,0.1201-0.0236,0.1357c-0.0111,0.0149-0.0319,0.026-0.0611,0.0336
		c-0.0291,0.0076-0.1298,0.0143-0.3011,0.0201v0.1999c0.2311-0.0111,0.4597-0.0167,0.6852-0.0167
		c0.2314,0,0.4903,0.0056,0.7776,0.0167v-0.1999c-0.1673-0.0031-0.2672-0.009-0.2984-0.018
		c-0.0319-0.009-0.0545-0.0222-0.0684-0.0403c-0.0135-0.0184-0.0253-0.0708-0.035-0.1579
		c-0.0097-0.0871-0.0146-0.2266-0.0146-0.4174v-0.3806c0-0.0781,0.0038-0.1343,0.0111-0.169
		c0.0104-0.0482,0.0326-0.1048,0.0656-0.1693c0.0497-0.0944,0.1801-0.3074,0.3911-0.6381c0.2109-0.3314,0.4077-0.619,0.5898-0.8643
		v-0.1013h-0.3563c-0.0212,0.0437-0.0729,0.1374-0.1558,0.2817c-0.2366,0.4202-0.3792,0.6717-0.4275,0.7543l-0.2838,0.4594
		C316.1854,408.819,316.0796,408.6101,315.9037,408.2701L315.9037,408.2701L315.9037,408.2701z"/>
	<g>
		<polygon class="st1" points="315.4308,399.3016 315.4308,391.2045 322.8913,391.2049 322.8913,385.8662 315.4308,385.8662 
			315.4308,378.303 323.6227,378.303 323.6227,381.2375 329.0258,381.2375 329.0258,373.0091 307.3912,373.0091 307.3912,378.303 
			309.4171,378.303 309.4171,399.3016 307.3981,399.3016 307.3981,404.6397 317.3842,404.6397 317.3842,399.3016 315.4308,399.3016 
					"/>
		<path class="st1" d="M304.8631,392.6858v-14.3842h1.9992v-5.2925h-10.0073v5.2925h1.9514v12.5953
			c0,5.279-0.6101,7.8162-4.4011,7.8162c-3.791,0-4.401-2.5372-4.401-7.8162v-12.5953h1.9363v-5.2925h-10.0222v5.2925h1.985v14.3842
			c0,3.1413,0,5.7151,1.4817,8.0276c1.6559,2.6179,4.6624,4.282,9.0202,4.282
			C302.1181,404.9954,304.8631,400.9754,304.8631,392.6858L304.8631,392.6858z"/>
	</g>
</g>
</svg>
