<?xml version="1.0" encoding="UTF-8" standalone="no"?>
<svg height="223.86826pt" viewBox="0 0 223.91406 223.86826" width="223.91406pt" xmlns="http://www.w3.org/2000/svg">
   <path d="m108.35547 2.0245125c-3.27735.160156-6.16016.375-8.773439.667969-30.238281 3.359375-57.664062 19.1757815-76.023438 43.8398445-6.027343 8.09375-11.066406 17.386718-14.667968 27.015624-9.1875 24.613278-9.1875 52.1836 0 76.79688 5.546875 14.86719 14.039062 28.05469 25.332031 39.33594 10.214844 10.21093 21.921875 18.10546 35.148437 23.67968 9.53125 4.01172 19.878907 6.69141 30.210938 7.83985 4.683589.51953 7.296869.66797 12.374999.66797 5.07812 0 7.69141-.14844 12.375-.66797 24.71875-2.73438 47.63672-13.78907 65.35938-31.51953 11.29296-11.28125 19.78515-24.46875 25.33203-39.33594 9.1875-24.61328 9.1875-52.183602 0-76.79688-5.54688-14.867187-14.03907-28.054687-25.33203-39.335937-18.96094-18.957031-43.7461-30.2109375-70.46876-32.0000005-2.2539-.144531-9.17187-.265625-10.86718-.1875zm8.93359 3.523437c20.29297 1.050782 39.33594 7.5976575 55.86719 19.2109385 5.14844 3.613281 9.16016 7.015625 14.06641 11.921875 7.04296 7.027344 12.21484 13.730469 17.01562 22.039063 16.48047 28.453124 18.79688 63.347654 6.25391 93.761724-4.33594 10.51953-10.08203 19.8789-17.73438 28.8789-2.30859 2.73438-8.65234 9.07813-11.38672 11.38672-14.32031 12.17188-30.5625 20.09375-48.48047 23.65235-30.45312 6.0664-61.867183-1.33204-86.214839-20.28125-3.652344-2.83985-6.199219-5.10547-9.984375-8.90625-7.042969-7.02735-12.214844-13.73047-17.015625-22.03907-16.480469-28.45312-18.796875-63.34765-6.253906-93.761718 4.335937-10.519532 10.082031-19.878906 17.734375-28.878906 2.308593-2.734376 8.652343-9.078126 11.386719-11.386719 10.265624-8.734375 21.09375-15.039063 33.480468-19.507813 12.867188-4.6523445 27.468753-6.8125005 41.265623-6.0898445zm0 0" fill="#f00"/>
   <path d="m122.58203 8.9581065c-.35937.1875-.625.375-.59766.429687.0273.05078.86719 1.1835945 1.87891 2.5195325 1.74609 2.277343 1.87891 2.425781 2.38672 2.503906.28125.05469.54687.07031.58594.02734.082-.07813-3.32032-5.7304695-3.48047-5.7734385-.0781-.02734-.42578.109375-.77344.292969zm0 0" fill="#f00"/>
   <path d="m113.6914 13.919044c0 .292969-.0273.628906-.0664.71875-.0664.160156.51953.242188 3.35937.429688 1.89453.132812 3.48047.265625 3.51954.320312.0391.05078 0 1.160156-.0938 2.453125-.1875 2.613281-.25391 2.796875-1.10547 3.277344-.61329.347656-1.45313.386719-2.02735.08203-.4414-.226562-.92187-1.09375-.92187-1.652344 0-.1875.12109-.589843.2539-.894531.41407-.894531 1.33594-1.199219 2.34766-.785156l.46484.199219v-.667969c0-.585937-.0391-.679687-.34375-.785156-.57422-.226563-2.1875-.160157-2.78906.117187-1.14453.523438-1.82422 1.5625-1.82422 2.800782 0 1.933593 1.41406 3.226562 3.54688 3.214843.45312-.01563 1.05078-.09375 1.34375-.199219.29297-.109374.57422-.203124.6289-.203124.0508 0 .0664.628906.0117 1.402343l-.0781 1.398438h1.8789l.082-.839844c.0898-.945313.61328-8.292969.61328-8.667969 0-.199218.0664-.226562.5039-.144531.26953.05469.51953.132813.5625.1875.0391.05078.4375.144531.90625.199219l.83985.09375-.082.425781c-.14454.855469-1.13282 9.1875-1.09375 9.226563.0547.05469 1.88281.320312 1.90625.28125 0-.01563.28125-2.1875.60156-4.828126l.58594-4.800781.5625.04297c.30468.02344.57031-.01563.61328-.06641.0391-.05469.0938-.375.10547-.707032l.0547-.601558-2.32031-.28125c-1.26953-.160156-2.34766-.34375-2.40234-.425781-.0391-.06641-1.9336-.253907-4.21094-.414063-2.26953-.160156-4.53516-.320312-5.02735-.359375l-.90625-.09375zm0 0" fill="#f00"/>
   <path d="m101.95703 14.278419v.734375h8.13281v1.867188h-2.625c-3 0-3.49609.121094-4.01562.960937-.625 1.011719-.48047 2.226563.46875 3.824219.46484.789062 2.48047 3.082031 2.6914 3.082031.0547 0 .375-.214843.70703-.46875l.60157-.464843-.8125-.839844c-1.3086-1.335938-2.21485-2.878906-2.21485-3.773438 0-.175781.1211-.441406.26563-.585937.24219-.242188.4414-.269531 2.60156-.269531h2.33203v6.402343h1.86719v-9.734375h1.19922v-1.464844h-11.19922zm0 0" fill="#f00"/>
   <path d="m93.515621 15.321388l-6.773434 1.078125.09375.613281c.04297.332032.121094.640625.175782.695313.03906.05078 1.492187-.136719 3.210937-.414063 1.722656-.28125 3.148435-.496094 3.175785-.46875.10546.06641.82421 4.949219.75781 5.199219-.0938.386719-1.42578 1.253906-1.94531 1.253906-.308598 0-.562504-.132812-.933598-.519531-.453124-.453125-.519531-.585938-.519531-1.132812 0-.347657.09375-.800782.199219-1.011719.226562-.441407 1.06641-.933594 1.60156-.933594.39844 0 .41016-.121094.0664-.800781-.32031-.613282-.48047-.652344-1.496095-.265625-1.425781.53125-2.238281 1.546875-2.238281 2.8125 0 1.121093.238281 1.707031 1.027344 2.480469l.707031.691406-.535157.359375c-.292968.203125-.53125.402343-.53125.441406 0 .05469.265626.359375.597657.679687.535156.535157.613281.558594.828125.386719.132812-.121093.625-.546875 1.121096-.960937.66407-.570313 2.21094-1.558594 2.45313-1.558594.0117 0 .10547.574219.21094 1.265625.13281 1.042969.19922 1.253906.375 1.214844.12109-.03906.55859-.105469.98437-.160157.75-.08203.77344-.09375.70704-.441406-.21094-1-.7461-4.613281-.7461-5 0-.34375.13281-.597656.58594-1.09375.50781-.570312.64062-.652344 1.12109-.652344.66797 0 1.16016.414063 1.38672 1.160157.21485.71875-.0391 1.734375-.6914 2.71875l-.52344.789062.76172.386719.74609.371094.30859-.371094c.17188-.214844.531249-.8125.796879-1.347656.5625-1.148438.73437-2.464844.41406-3.238282-.82422-1.976562-3.371089-2.546874-4.917969-1.109374l-.35937.335937-.14844-.867187c-.0781-.46875-.14844-.972657-.14844-1.132813 0-.320313-.21093-.269531 3.22657-.816406 1.30859-.199219 2.414059-.398438 2.457029-.453125.0508-.03906.0391-.359375 0-.691406-.0938-.546876-.13672-.601563-.45703-.585938-.19922.01172-3.410159.503906-7.132819 1.09375zm0 0" fill="#f00"/>
   <path d="m138.98437 17.571388c-.13281.320312-.22656.613281-.22656.667969 0 .03906.625.308593 1.39844.585937 1.22656.453125 1.41406.5625 1.53516.90625.29296.855469.10546 1.734375-.48047 2.28125-.29297.265625-.49219.332032-1.08203.332032-.39844 0-.89063-.08984-1.11719-.199219-.38672-.199219-.38672-.199219-.53516.160156-.23828.613281-.0938 2.148437.28125 2.90625.41406.855469 1.34766 1.789063 2.19922 2.199219.54688.269531.86719.335937 1.76172.335937.61328 0 1.10547.03906 1.10547.09375 0 .05078-.17578.570313-.40235 1.171875-.21093.601563-.39843 1.132813-.39843 1.1875 0 .105469 1.71875.746094 1.78515.667969.0156-.02734.65625-1.761719 1.40235-3.855469.75781-2.09375 1.49218-4.121094 1.64062-4.507812.27735-.757813.22656-.730469 1.11719-.480469.22656.07031.32031-.02344.50781-.542969.13281-.335937.21485-.640625.1875-.667968-.0547-.05469-9.83984-3.640626-10.2539-3.761719-.14454-.03906-.28125.109375-.42579.519531zm6.14454 3.066406c.60156.214844 1.09375.46875 1.09375.535156 0 .08203-.3711 1.160157-.8125 2.386719-.7461 2.039063-.86719 2.28125-1.28125 2.535157-.23829.160156-.67969.304687-.95704.34375-1.33593.1875-2.94921-1.011719-2.94921-2.171876 0-.414062 0-.425781.78906-.480468 1.55859-.105469 2.54687-1.253906 2.54687-2.960938 0-.679687.0234-.757812.23828-.679687.1211.05469.71875.265625 1.33204.492187zm0 0" fill="#f00"/>
   <path d="m74.289062 20.825294c-1.160156.480469-2.144531.894532-2.183593.921875-.08203.09375.398437 1.265625.519531 1.265625.06641 0 .398437-.121094.746093-.265625.347657-.160156.679688-.226562.734376-.175781.05078.05469.890624 2.066406 1.863281 4.46875.960937 2.414062 1.828125 4.371094 1.894531 4.371094.226562 0 1.695312-.585938 1.695312-.679688 0-.03906-.789062-2.023437-1.75-4.398437-.957031-2.375-1.773437-4.386719-1.8125-4.464844-.02734-.08203.1875-.253906.480469-.375.308594-.121094.546875-.238281.546875-.265625 0-.09375-.519531-1.28125-.558594-1.28125-.02734.01172-1 .398438-2.175781.878906zm0 0" fill="#f00"/>
   <path d="m149.70312 21.708107l-.26562.652343.625.277344c.34766.160156 1.61328.722656 2.81641 1.253906 1.21093.546876 2.19921.976563 2.22656.949219.0508-.06641.58594-1.160156.58594-1.203125 0-.03906-.61329-.332031-1.35938-.664062-.76172-.335938-2.04297-.90625-2.86719-1.28125l-1.48047-.652344zm0 0" fill="#f00"/>
   <path d="m66.769531 24.481544c-2.585938 1.371094-4.773438 2.570313-4.839844 2.636719-.132812.136719.335938 1.226563.519532 1.226563.04297 0 1.46875-.730469 3.148437-1.613282 2.425781-1.277344 3.078125-1.585937 3.1875-1.4375.359375.558594.652344 1.226563.546875 1.332032-.06641.06641-.75.453124-1.507812.855468-.773438.410156-1.546876.878906-1.707032 1.039063-.8125.746093-1.066406 2.160156-.574218 3.132812.441406.851563 1.375 1.585938 2.320312 1.8125l.375.09375-.828125 1.039063.707031.402344c.386719.226562.746094.410156.800782.410156.03906 0 .386718-.464844.746093-1.039063.601563-.917969.734375-1.066406 1.253907-1.210937.320312-.09375.839843-.320313 1.171874-.480469l.601563-.308594.730469.585938c.402344.320312.828125.589843.933594.589843.109374 0 .546874-.203124.960937-.441406l.761719-.441406-1-.585938c-1.269532-.746093-1.320313-.800781-1.121094-1.386718.28125-.851563-.492188-1.945313-1.359375-1.945313-.46875 0-.800781.320313-2.148437 2.039063-1.011719 1.308594-1.238282 1.398437-2.238282.894531-.855468-.441406-1.292968-1.441406-.921875-2.132813.06641-.136718 1.109375-.761718 2.292969-1.402343 1.203125-.640625 2.203125-1.1875 2.242188-1.210938.02734-.04297-.265626-.667969-.652344-1.402343-.800782-1.519532-.828125-1.414063.425781-2 .347656-.160157.625-.347657.625-.414063 0-.199219-.53125-1.171875-.640625-1.171875-.05078.01172-2.210938 1.148438-4.8125 2.535156zm0 0" fill="#f00"/>
   <path d="m156.01172 24.411232c-.1875.335937-.33594.628906-.3086.65625.0273.02734 1.58594.933594 3.45313 2.011718 1.86719 1.066407 3.41406 1.972657 3.44141 2 .0938.08203-.80079 1.535157-.94922 1.535157-.0781 0-1.03907-.519531-2.14453-1.160157-2.23829-1.292968-2.77344-1.519531-3.33204-1.414062-.20312.03906-.41406.01172-.46875-.05469-.14453-.238281-5.51953-2.574218-5.90625-2.574218-.26562 0-.42578.09375-.51953.320312-.28125.601563.51953 3.292969 1.1211 3.800782.35937.292968.61328.08203 1.02343-.867188.25391-.546875.46875-.851562.57422-.8125.082.03906.70703.320312 1.38672.628906l1.22656.558594-.22656.425781c-.35937.652344-.30469 3.789063.082 5.199219.16016.589844.32032 1.082031.35938 1.121094.0273.02734.39844 0 .82422-.06641.57422-.08203.76172-.160157.72265-.308594-.46875-1.746094-.5625-2.425782-.51953-3.613282.0273-1.066406.0938-1.371093.32031-1.679687.50391-.679687.50391-.679687 3.94532 1.308594l.89456.519537-1.61328 2.8125c-1.21485 2.109375-1.66797 2.789062-1.82813 2.734375-.12109-.02734-.45312-.160156-.74609-.265625-.71875-.269531-1.98828-.292969-1.89453-.02734.0391.105469.12109.414063.17578.679688.0898.519531.11719.53125.8789.667968.28125.03906.67969.226563.90625.410157.53125.453125.53125 1 .0117 1.535156-.32031.320313-.5039.386719-1.01172.386719-1.51953 0-3.14843-1.667969-3.67968-3.785156-.082-.335938-.1875-.613282-.22657-.613282-.0391 0-.42578.08984-.85546.210938-.89063.253906-.87891.199218-.23829 1.613281 1.1211 2.425781 2.97266 3.972656 4.98829 4.132813 1.75781.148437 3.14453-1 3.14453-2.597657 0-.800781-.1211-1.109375-.71875-1.746093l-.41407-.441407.77344.425781c.42578.242188.78516.414063.8125.386719.0273-.02734 1.05469-1.800781 2.28125-3.917969 1.22656-2.136718 2.30469-4 2.42578-4.175781l.1875-.304687.4375.277344c.24219.148437.48047.269531.52344.269531.0391 0 .22656-.269531.39844-.601563l.34765-.601562-.89453-.519532c-.49218-.277343-2.48047-1.425781-4.42578-2.546874-1.94922-1.117188-3.72265-2.144532-3.96094-2.292969l-.42578-.253907zm0 0" fill="#f00"/>
   <path d="m59.289062 28.8917c-.984375.65625-1.878906 1.242188-1.984375 1.308594-.148437.09375-.109375.226563.1875.71875l.359375.628906.71875-.46875.734375-.464843.851563 1.332031c.480469.734375.867187 1.375.867187 1.441406 0 .105469-.214844.265625-1.359375 1.011719l-.359375.226563-.933594-1.386719c-1.039062-1.546875-1.414062-1.828125-2.507812-1.828125-1.144531.01563-2.078125.613281-2.507812 1.628906-.265626.652344-.25 1.121094.05469 1.785156.359375.800782.613281.894532 1.238281.496094l.507813-.335938-.332031-.398437c-.425782-.507813-.425782-.960937 0-1.386719.613281-.613281.945312-.425781 1.972656 1.078125.492187.722657.894531 1.359375.894531 1.402344 0 .03906-.308594.265625-.667969.503906-.652344.414063-.785156.695313-.546875 1.070313.160157.265625 1.789063.679687 3.054688.785156.945312.06641 1.132812.03906 1.359375-.160156.359375-.320313.347656-.425782-.199219-1.226563-.253906-.386719-.46875-.746093-.46875-.800781 0-.05469.386719-.359375.855469-.667969l.839844-.546875 1.253906 1.933594c.691406 1.066406 1.292968 2 1.34375 2.082031.08203.121094.828125-.253906 1.496094-.746093.253906-.1875.144531-.375-2.308594-4.160157-1.414063-2.175781-2.585938-4.027343-2.625-4.109375-.02734-.08984.160156-.292968.414062-.464844l.476563-.304687-.410157-.589844c-.226565-.332031-.42969-.597656-.441409-.585937-.01172 0-.839844.546875-1.828125 1.199218zm0 0" fill="#f00"/>
   <path d="m106.95703 34.024513c-5.26563.402344-9.519529 1.082031-14.265629 2.28125-11.281245 2.839844-21.73437 8.199219-31.01562 15.90625-2.132812 1.789063-7.664062 7.320313-9.453125 9.453125-9.480469 11.414062-15.480469 24.800781-17.519531 39.082032-.597656 4.14453-.679688 5.41406-.679688 11.19922 0 5.78516.08203 7.05469.679688 11.19922 2.039062 14.28125 8.039062 27.66797 17.519531 39.08203 1.789063 2.13281 7.320313 7.66406 9.453125 9.45313 11.320312 9.38671 24.640625 15.39843 38.679689 17.46484 4.48047.65234 5.67968.73437 11.60156.73437 5.92187 0 7.12109-.082 11.60156-.73437 14.03907-2.06641 27.35938-8.07813 38.67969-17.46484 2.13281-1.78907 7.66406-7.32032 9.45313-9.45313 9.48046-11.41406 15.48046-24.80078 17.51953-39.08203.59765-4.14453.67968-5.41406.67968-11.19922 0-5.78516-.082-7.05469-.67968-11.19922-2.03907-14.281251-8.03907-27.66797-17.51953-39.082032-1.78907-2.132812-7.32032-7.664062-9.45313-9.453125-9.28125-7.707031-19.73437-13.066406-31.01562-15.90625-3.9336-1-7-1.546875-11.39844-2.039063-1.83985-.199218-11.05469-.375-12.86719-.242187zm7.97266 3.589844c5.58593 1.160156 10.77343 5.117187 15.49218 11.867187 1.84375 2.636719 4.96094 8.144532 4.82813 8.519532-.0391.09375-.28125.210937-.53125.265624-.94922.171876-5.30859 1.601563-8.09375 2.640626-3.94922 1.464843-6.92188 2.757812-11.09375 4.800781l-3.57422 1.746093-3.55859-1.746093c-4.1875-2.042969-7.16016-3.335938-11.109379-4.800781-2.78516-1.039063-7.14453-2.46875-8.093749-2.640626-.585937-.105468-.652343-.308593-.316406-.960937l.265625-.519531 1-.06641c1.83984-.121094 3.29297-1.105469 4.06641-2.761719.29296-.625.34765-.933594.34765-1.878907 0-1.011718-.0547-1.238281-.42969-2l-.42578-.867187.32032-.492187c.1875-.265626.73437-.988282 1.22656-1.601563 4.66797-5.796875 9.652339-9.039063 14.960939-9.707031 1.14453-.144532 3.50781-.05078 4.71875.203125zm-15.972659.984375c-.0781.06641-.51953.441406-1 .828125-2.07813 1.71875-4.30859 4.09375-6.265625 6.691406l-.933594 1.253906-.972656.06641c-1.816406.121093-3.214844 1.042968-3.988281 2.613281-.386719.789062-.441406 1.015625-.441406 2.027343 0 1.015626.04297 1.242188.441406 2.027344l.441406.894532-.546875 1.066406c-.292969.597656-.613281 1.078125-.707031 1.078125-.08203 0-.933594-.144531-1.878906-.332031-4.335938-.855469-7.535157-1.175782-11.546876-1.175782-3.386718 0-5.375.203125-8.109374.773438-.851563.1875-1.558594.308594-1.585938.28125-.07813-.07813 3.121094-2.757813 5.015625-4.1875 8.878906-6.730469 18.425781-11.117188 29.542965-13.570313 2.08203-.453125 2.75-.546875 2.53516-.335937zm27.960939.226562c11.14453 2.320313 21.11719 6.855469 30.11719 13.679688 1.89453 1.429687 5.09375 4.109375 5.01562 4.1875-.0273.02734-.73437-.09375-1.58594-.28125-2.73437-.570313-4.72265-.773438-8.10937-.773438-4.01172 0-7.21094.320313-11.54688 1.175782-.94531.1875-1.79687.332031-1.8789.332031-.0938 0-.5586-.773438-1.02735-1.71875-3.42578-6.8125-7.61328-12.425781-11.94531-16-1.16016-.960938-1.16016-.945313-.89453-.945313.12109 0 .96094.15625 1.85547.34375zm-51.695314 20.320313c2.175781.1875 4.292969.480469 6.535156.894531 1.027344.1875 1.878907.359375 1.90625.371094.02734.02734-.28125.867187-.679687 1.882812-3.308594 8.398438-5.828125 18.664063-7.199219 29.359375l-.320313 2.453129-2.46875 2.48046c-3.613281 3.652352-6.71875 7.132822-9.679687 10.867192-.691406.85156-1.265625 1.5586-1.292969 1.5586-.01172 0-.679687-.97266-1.480468-2.17188-4.253907-6.375-7.691407-13.308592-9.371094-18.894532-1.203125-4-1.65625-6.851562-1.65625-10.332031 0-4.601563 1.054687-8.148438 3.308594-11.160157 3.1875-4.242187 8.640624-6.800781 15.667968-7.347656 1.371094-.105468 5.238282-.08203 6.730469.03906zm82.335934.1875c9.47657 1.414062 15.17188 6.386719 16.61328 14.546875.32032 1.8125.32032 5.558594 0 7.734375-1.09375 7.558593-4.82812 16.265621-10.80078 25.226563-.80078 1.19922-1.46875 2.17188-1.48047 2.17188-.0273 0-.60156-.70704-1.29296-1.5586-2.94922-3.72265-6.02735-7.16015-9.73438-10.921872-2-2.01172-2.50781-2.61328-2.50781-2.89453 0-.54297-.625-5.06641-1.06641-7.69141-1.39844-8.414062-3.66406-16.8125-6.35937-23.652344-.39844-1.015625-.70703-1.855468-.67969-1.882812.21484-.171875 5.77344-1.039063 8.17187-1.25 1.92188-.1875 7.44141-.06641 9.13672.171875zm-68.320309 2.480469c5.27734 1.546874 11.132809 3.8125 16.785159 6.53125 1.24218.589843 2.21484 1.09375 2.17187 1.136718-.0234.03906-1.34375.839844-2.91797 1.773438-8.785149 5.265625-17.292965 11.492187-24.585934 18-.65625.585937-1.214844 1.050781-1.242187 1.023437-.06641-.06641.441406-3.265625.988281-6.210937.984375-5.375 2.332031-10.679688 3.984375-15.65625 1.203125-3.613282 2.574218-7.132813 2.800781-7.132813.08203 0 1 .242188 2.015625.535157zm48.453129 1.558593c2.35937 5.972657 4.48046 13.546875 5.78515 20.695313.54688 2.945312 1.05469 6.144531.98828 6.210937-.0273.02734-.57422-.4375-1.24218-1.023437-7.29297-6.507813-15.80079-12.734375-24.58594-18-1.57422-.933594-2.89453-1.734375-2.91797-1.773438-.1875-.1875 7.63672-3.695312 11.37109-5.109375 3.45313-1.304687 8.89453-3.066406 9.54688-3.078125.16015-.01563.4414.558594 1.05469 2.078125zm-24.10938 8.90625c9.46875 5.242188 19.97656 12.828125 28.77344 20.800779.92187.82813 1.92187 1.77344 2.24219 2.09375l.57421.58594.1836 2.06641c.4414 4.882812.53515 7.414062.53515 14.121092 0 6.70703-.0938 9.23828-.53515 14.12109l-.1836 2.06641-.57421.58594c-.32032.32031-1.32032 1.26562-2.24219 2.09375-8.8125 7.98437-19.29297 15.55859-28.79688 20.8125l-1.60156.8789-1.60156-.8789c-9.50391-5.25391-19.984377-12.82813-28.796877-20.8125-.921874-.82813-1.921874-1.77344-2.242187-2.09375l-.574219-.58594-.183594-2.06641c-.441406-4.88281-.535156-7.41406-.535156-14.12109 0-6.70703.09375-9.23828.535156-14.121092l.183594-2.06641.574219-.58594c.320313-.32031 1.320313-1.26562 2.242187-2.09375 7.796876-7.066404 16.453128-13.492185 25.265627-18.75781 2.0664-1.242188 5-2.910156 5.12109-2.910156.0391 0 .77344.386718 1.63672.867187zm-67.23828 9.667969c1.171875 8.519531 5.601562 18.640622 12.480469 28.464842.546874.78907 1 1.46875 1 1.53516 0 .0664-.453126.74609-1 1.53516-5.1875 7.41015-9.226563 15.46484-11.148438 22.23828-.957031 3.39844-1.425781 6.14844-1.570312 9.22656-.08203 1.86719-.08203 1.86719-.320313 1.50781-.402344-.58593-2.402344-4.96093-3.226563-7.04297-2.203124-5.54296-3.855468-11.94531-4.601562-17.79687-.453125-3.60156-.574219-5.67969-.574219-9.66797 0-3.98828.121094-6.06641.574219-9.66797.746094-5.851562 2.398438-12.253907 4.601562-17.796876.824219-2.082031 2.824219-6.457031 3.226563-7.042968.238281-.359376.238281-.359376.320313 1.507812.05078 1.027344.160156 2.375.238281 3zm132.76172-2.601562c2.41015 5.042968 4.0664 9.628906 5.3164 14.800782 1.50782 6.175782 2.10938 11.265622 2.10938 17.800782 0 3.98828-.12109 6.06641-.57422 9.66797-.74609 5.85156-2.39844 12.25391-4.60156 17.79687-.82422 2.08204-2.82422 6.45704-3.22656 7.04297l-.23829.35938-.0273-1.06641c-.12109-4.0664-1.09375-8.89453-2.64062-13.19922-.33204-.89453-.59766-1.66797-.59766-1.72265 0-.0391.23828-.38672.53125-.77344 1.61328-2.13281 1.21484-5.03906-.91797-6.66406-.61328-.48047-1.98828-.90625-2.86719-.90625h-.67968l-1-1.76172c-1.1211-1.97266-3.29297-5.38672-4.67969-7.34766-.50781-.71875-.92188-1.35937-.92188-1.42578 0-.0547.45313-.74609 1-1.53516 5.1875-7.41015 9.22657-15.464842 11.14844-22.23828.98438-3.492187 1.58594-7.214843 1.58594-9.800781 0-.890625.0391-1.210937.14453-1.144531.0938.05078.60156 1 1.13672 2.117188zm-104.148439 20.562502c-.132812.812502-.347656 5.414062-.425781 9.437502-.06641 3.97656.09375 10.375.347656 13.66797.05078.69531.07813 1.29297.03906 1.33203-.109376.13672-4.707032-4.9336-7.09375-7.79688-1.90625-2.29297-3.601563-4.45312-3.601563-4.60156 0-.21484 3.148437-4.13281 5.546875-6.87891 1.5625-1.8125 5.027344-5.519532 5.148438-5.519532.05078 0 .06641.16016.03906.35938zm76.160159 1.800782c1.09375 1.19922 2.45312 2.67969 3 3.30469 2.13281 2.4414 5.57422 6.71875 5.57422 6.93359 0 .14844-2.21485 2.96094-3.86719 4.93359-2.33203 2.75782-6.73438 7.58594-6.82813 7.46485-.0391-.0391-.0117-.63672.0391-1.33203.2539-3.29297.41406-9.69141.34765-13.66797-.0781-4.02344-.29297-8.625-.42578-9.437502-.0273-.19922-.0117-.35938.0391-.35938.0664 0 1.01563.972662 2.1211 2.160162zm-87.800784 14.73047c2.960937 3.73437 6.066406 7.21484 9.679687 10.86719l2.46875 2.48046.320313 2.45313c1.371094 10.69531 3.890625 20.96094 7.199219 29.35937.398437 1.01563.707031 1.85547.679687 1.88282-.03906.0234-3.332031.63672-4.148437.77343-.320313.0508-.410156-.0156-.625-.42968-.132813-.26563-.507813-.73047-.828125-1.03907-2.277344-2.21484-6.132813-1.48046-7.4375 1.41407l-.335938.70703-1.265625-.082c-11.078125-.80078-17.691406-5.86719-19.28125-14.8125-.320312-1.8125-.320312-5.5586 0-7.73438 1.09375-7.55859 4.828125-16.26562 10.800782-25.23828.800781-1.1875 1.46875-2.16016 1.480468-2.16016.02734 0 .601563.70703 1.292969 1.5586zm100.132814.73437c1.50781 2.26563 3.60156 5.70703 4.04297 6.65235.22656.48047.22656.49609-.14844 1.26953-.34766.70312-.38672.91797-.38672 2.11719 0 1.19921.0391 1.40234.375 2.04296.69141 1.33204 2.01172 2.29297 3.39844 2.50391.66797.0938.65234.0664 1.58594 2.85547.8125 2.41016 1.45312 5.01172 1.80078 7.26562.375 2.45313.39843 6.17188.0547 8.13282-1.29296 7.24218-5.94921 12.03906-13.54687 13.92187-2.375.58594-4.09375.8125-7.06641.90625-3.65625.10547-7.16015-.1875-11.40234-.98828-1.02734-.1875-1.87891-.35937-1.90625-.37109-.0273-.0273.28125-.86719.67969-1.88282 2.69531-6.83984 4.96093-15.23828 6.35937-23.65234.44141-2.625 1.06641-7.14844 1.06641-7.69141 0-.28125.50781-.88281 2.50781-2.89453 3.70703-3.76172 6.78516-7.19922 9.73438-10.92187.6914-.85157 1.26562-1.5586 1.29296-1.5586.0117 0 .71875 1.03907 1.5586 2.29297zm-80.503908 19.42578c7.078125 6.05469 14.984379 11.72266 22.746088 16.28125 1.27735.75782 2.38672 1.42579 2.45313 1.48047.25391.22657-7.06641 3.54688-11.320309 5.16016-3.42578 1.29297-9.015628 3.09375-9.601565 3.09375-.226563 0-1.597656-3.51953-2.800781-7.13281-2.011719-6.04297-3.425782-11.97657-4.597656-19.16016-.214844-1.36328-.402344-2.5625-.402344-2.64062 0-.0938.429687.22656.949218.67968.519532.46485 1.679688 1.48047 2.574219 2.23828zm61.089848.0547c-1.21094 7.42578-2.90625 14.22656-5.06641 20.38672-1.07813 3.10547-2.08984 5.57422-2.27734 5.57422-.58594 0-6.17579-1.80078-9.60157-3.09375-3.49218-1.32031-11.39844-4.85547-11.39844-5.09375 0-.0273.34375-.25391.77344-.49219 8.9336-5.08203 19.25391-12.54687 27.35938-19.82812.33203-.29297.61328-.49219.64062-.42578.0273.0508-.17578 1.39843-.42968 2.97265zm-29.41016 21.09375c3.4375 1.71875 6.45312 3.07813 9.83984 4.41406 2.89063 1.14454 7.97266 2.89063 9.7461 3.33204.53125.14453 1.01172.32031 1.03906.41406.082.19922-1.33203 2.8789-2.77344 5.30469-4.82812 8.13281-10.65234 13.33593-16.65234 14.85546-7.8125 1.98438-15.64063-2.09375-22.332029-11.65625-1.800785-2.57031-4.960941-8.14453-4.828129-8.5039.02734-.0938.507813-.26953 1.039063-.41406 1.773437-.44141 6.855466-2.1875 9.761716-3.33204 3.371099-1.33593 6.597659-2.78906 9.890629-4.45312 1.32031-.66797 2.48047-1.21484 2.57422-1.21484.0938-.0117 1.30859.55859 2.69531 1.2539zm-28.613281 10.71875c3.480468 6.92188 7.812502 12.69531 12.183592 16.19922.46875.375.77344.69531.70703.72266-.0781.0234-.91797-.10938-1.85156-.3086-11.148438-2.30468-21.160156-6.85156-30.171875-13.6914-1.894531-1.42969-5.09375-4.10938-5.015625-4.1875.02734-.0273.734375.0938 1.574219.28125 1.945312.39843 3.210937.57031 5.441406.71875 1.769531.10547 1.796875.12109 2.066406.49218.453125.64063 1.144531 1.24219 1.863281 1.62891.613282.31641.828126.35938 2.015626.35938 1.078124 0 1.453124-.0547 1.945312-.28125.839844-.38672 1.667969-1.17188 2.132812-2l .386719-.67969 1.175781-.16016c.640626-.0938 1.824219-.30469 2.625-.48047 2.199219-.46484 1.933594-.58593 2.921876 1.38672zm54.796871-1.38672c4.32032.85547 7.53516 1.17578 11.54688 1.17578 3.375 0 5.34765-.1875 8.10937-.77343.85157-.1875 1.5586-.3086 1.58594-.28125.0781.0781-3.12109 2.75781-5.01562 4.1875-9.01172 6.83984-19.02344 11.38672-30.17188 13.6914-.93359.19922-1.77344.33203-1.85156.3086-.0664-.0273.23828-.34766.70703-.72266 4.37109-3.50391 8.70312-9.27734 12.18359-16.19922.46875-.94531.9336-1.71875 1.02735-1.71875.082 0 .93359.14453 1.8789.33203zm0 0" fill="#f00"/>
   <path d="m103.80859 98.294048c-2.35937.8125-3.70312 3.480462-3.71875 7.292962 0 1.91797.24219 3.1211.9336 4.57422.78515 1.625 1.60156 2.32032 4.33203 3.65235 2.53515 1.23828 3.01562 1.66797 3.28125 2.90625.29297 1.45312-.26563 3.28125-1.26563 4.09375-.66797.53125-2.01562.64062-2.85547.21094-.94531-.47657-1.77343-2.05079-1.97265-3.78516-.13282-1.10547-.0938-1.09375-1.64063-.8125l-1.343749.22656v.61328c0 .33203.0898 1.13281.19922 1.78516.585939 3.33594 1.773439 5.40234 3.640629 6.32031.70703.34766.86718.375 2.35937.375 1.48047 0 1.65234-.0273 2.35938-.375 1.49218-.73437 2.57421-2.26562 3.19921-4.55859.22657-.87891.28125-1.45313.29297-3.26563.0156-2.60156-.1875-3.72265-1-5.33594-.77343-1.53125-1.53125-2.16015-4.19922-3.46484-1.17187-.57422-2.34765-1.21484-2.58593-1.41406-.58594-.50781-.9336-1.29297-.9336-2.1875 0-1.7461 1.13282-2.78516 2.86719-2.64063 1.30469.10938 2.09375 1.06641 2.38672 2.9336l.14453.93359 1.26953-.0938c1.86328-.13281 1.75781-.0508 1.66406-1.17187-.29296-3.29297-1.51953-5.695322-3.37109-6.574222-.64062-.32032-.96094-.3711-2.09375-.41407-.96094-.0234-1.50781.0273-1.94922.17579zm0 0" fill="#f00"/>
   <path d="m85.023437 111.94639v13.46484h2.800782l.02734-8.75781.03906-8.77344 2.785162 8.06641c1.53516 4.44141 2.90625 8.38672 3.04297 8.76172l.25.70312h2.92187v-26.929682h-2.66797v8.957032c0 4.93359-.0508 8.90625-.10546 8.83984-.0664-.0781-1.45313-4.03906-3.093754-8.79687-1.625-4.77344-3-8.750002-3.027344-8.843752-.05078-.10547-.480468-.15625-1.519531-.15625h-1.453125zm0 0" fill="#f00"/>
   <path d="m114.39844 108.70811c.0664 11.23828.0664 11.34375.89062 13.47656.65625 1.70703 1.86719 3.01563 3.10938 3.38672.32031.0938 1.22656.17578 2.09375.17578 1.27734 0 1.63672-.0547 2.14453-.28125 1.64062-.75781 2.76172-2.50781 3.26562-5.12109.29297-1.45313.44141-6.42578.45313-14.63672v-7.226562h-3.06641v9.292962c0 5.11719-.0664 9.7461-.13281 10.27735-.16016 1.26953-.67969 2.34766-1.32031 2.76172-1.32032.8789-3.02735.39844-3.77344-1.05469-.69141-1.35938-.67969-1.1875-.73047-11.58594l-.0547-9.691402h-2.93359zm0 0" fill="#f00"/>
   <path d="m128.49219 100.74717v2.26563h4.53125v22.39843h2.93359v-22.39843h4.53516v-4.531252h-12zm0 0" fill="#f00"/>
   <path d="m177.22266 34.321388c-.625.292969-1.53125 1.238281-1.78516 1.851562-.0938.238282-.24219.441407-.30859.441407-.0664 0-.3711-.214844-.67969-.46875l-.54688-.464844-.32031.292969c-.63672.613281-.63672.746094.0273 1.359375l.61329.546875-3.14454 3.71875c-3.02734 3.601562-3.13281 3.734375-2.88281 3.933594.14844.121093.4961.402343.77344.628906l.52344.425781 3.0664-3.667969c1.67969-2.011718 3.11719-3.691406 3.17188-3.734375.0664-.03906.29297.109375.51953.308594l.39844.386719.45703-.535156.45312-.53125-.53515-.507813-.53125-.507813.21093-.425781c.94532-1.839843 2.5625-2.210937 3.87891-.890625.96094.957032 2.08203 3.34375 2.78906 5.957032.33203 1.226562.39844 1.347656 1.03907 1.933593.375.347657.71875.640625.76171.640625.11719 0-.22656-1.785156-.67968-3.53125-.97657-3.789062-2.34766-6.027344-4.24219-6.960937-.98438-.480469-2.25391-.5625-3.02734-.199219zm0 0" fill="#f00"/>
   <path d="m177.64844 39.520607l-.49219.503906 2.46875 2.457031 2.46484 2.464844-1.74609 1.746094c-1.32031 1.332031-1.86719 1.773437-2.17188 1.828125-1.20312.199219-2.48046-.722657-2.48046-1.789063 0-1.332031 1.33203-2.398437 2.4375-1.945312.41406.171875.90625.667968 1.22656 1.226562.13672.214844.1875.1875.52344-.265625l.38671-.507812-.2539-.464844c-.54688-1.015625-2.21485-1.867187-3.33594-1.707031-1.625.210937-2.75781 1.492187-2.74609 3.09375.0156 1.386718.85547 2.597656 2.29297 3.292968l.92187.4375-.98828.988282-1 .988281.62891.636719c.34375.347656.6914.640625.77343.640625.0664 0 1.66407-1.53125 3.53125-3.398438l3.38672-3.402343.41406.402343.41407.398438.49218-.507813.49219-.492187-3.57031-3.574219-3.57422-3.558594zm0 0" fill="#f00"/>
   <path d="m43.957031 40.813576l-.734375.734374-3.4375-.429687c-2.054687-.25-3.480469-.371094-3.546875-.292969-.06641.06641-.160156.441406-.214844.8125l-.09375.707032h3.082032c1.691406 0 3.078124.04297 3.078124.09375 0 .05469-.171874.28125-.386718.507812l-.386719.398438.441406.535156.453125.53125.574219-.570313c.320313-.308593.613281-.5625.664063-.5625.04297 0 1.5625 1.589844 3.375 3.535157l3.292968 3.53125.492188-.386719c.269531-.210938.601562-.503907.734375-.664063.253906-.28125.253906-.28125-.464844-1.039062-3.414063-3.628906-5.800781-6.230469-5.828125-6.375-.02734-.09375.144531-.308594.371094-.46875l.429687-.304688-.507812-.507812c-.28125-.292969-.546875-.519532-.585938-.519532-.03906 0-.402343.332032-.800781.734376zm0 0" fill="#f00"/>
   <path d="m36.902343 48.239357l-3.625 4.171875.464844.429687c.269532.238281.523438.4375.589844.4375.05078 0 1.265625-1.34375 2.691406-2.984375l2.585938-2.988281.402344.332031c.757812.640625 1.410156 1.242188 1.410156 1.308594 0 .03906-.878906 1.09375-1.957032 2.347656-1.082031 1.238282-2.015624 2.386719-2.066406 2.53125-.148437.375.09375.761719.53125.882813.546875.160156 2.972656.105469 3.402344-.07031.546875-.226562.453125-.613281-.308594-1.316406-.375-.347656-.652344-.667969-.640625-.734375.05469-.160156 2.160157-2.628906 2.242188-2.628906.03906 0 1.023437.828125 2.199219 1.855469 1.171874 1.027343 2.160156 1.851562 2.199218 1.851562.105469-.01172 1.199219-1.320312 1.199219-1.425781 0-.06641-1.613281-1.507813-3.597656-3.226563-1.976563-1.71875-3.601563-3.1875-3.601563-3.253906 0-.07813.160156-.292969.347656-.492188l.332032-.347656-.519532-.425781c-.292968-.226566-.558593-.414066-.601562-.414066-.02344 0-1.691406 1.878907-3.679688 4.160157zm0 0" fill="#f00"/>
   <path d="m185.25 47.161232c-.26563.226562-.49219.464844-.49219.546875 0 .07813.23828.425781.53125.773437.29297.34375.53516.664063.53516.71875 0 .03906-.19922.160156-.44141.265625-.8789.359375-1.39844 1.441407-1.23828 2.535157.12109.785156.80078 1.785156 1.46484 2.117187l.50782.269531-.3086.171875c-.47656.265625-1.03906.226563-1.78515-.132812-.89453-.414063-1.16016-.746094-1.23828-1.535157l-.0547-.664062-.57422-.09375c-1.03906-.148438-1.05078-.148438-1.22656 1.414062-.17188 1.597657-.21094 3.796876-.0938 4.71875l.0938.613282h1.77343l-.0547-1.800782c-.0391-1.09375-.0117-1.800781.0703-1.800781.0781 0 .23828.121094.35937.253907.13282.148437.54688.386718.91797.546874.88282.386719 2.53516.332032 3.35938-.09375.70703-.371093 1.45312-1.171874 1.77344-1.890624l.26953-.574219.29297.398437.30468.414063.51953-.398438c.28125-.226562.50782-.46875.50782-.535156 0-.09375-4.1875-5.375-5.1875-6.546875-.0508-.05469-.30469.08203-.58594.308594zm2.21484 3.90625c.1836.171875.41407.558594.50391.867187.14844.476563.13672.625-.0664 1.039063-.21093.453125-.23828.464844-.78515.398437-1.21485-.160156-1.90625-1.691406-1.08203-2.347656.46875-.371094 1-.34375 1.42968.04297zm0 0" fill="#f00"/>
   <path d="m190.99609 54.17295c-.27734.1875-.5039.398438-.5039.464844 0 .08203.8125 1.320313 1.79687 2.789063 1 1.453125 1.83985 2.71875 1.86719 2.828125.0547.105468-.67969.679687-1.94531 1.542968-1.98828 1.363282-2.02735 1.375-2.66797 1.320313-1.16016-.117187-2.10547-1.183594-1.9336-2.183594.17579-.894531 1.10938-1.65625 2.05469-1.65625.67969 0 1.1875.402344 1.54688 1.226563l.29297.65625.49218-.441406.4961-.441407-.25391-.546875c-.82812-1.796875-2.85547-2.679687-4.48047-1.933594-.67969.308594-1.48047 1.1875-1.65234 1.839844-.44141 1.574219.33203 3.402344 1.79687 4.253906.33594.203126.5625.402344.4961.453126-.0547.05469-.57422.414062-1.13282.789062-.57421.371094-1.04296.71875-1.04296.757812 0 .214844 1.02734 1.507813 1.16015 1.453126.0938-.02344 1.90625-1.226563 4.02735-2.664063 2.12109-1.425781 3.89453-2.601563 3.93359-2.601563.0391 0 .21484.214844.38672.46875l.32031.464844.55859-.414062c.3086-.226563.54688-.464844.51954-.519532-.0781-.210937-5.50391-8.253906-5.57032-8.253906-.043 0-.29297.160156-.5625.347656zm0 0" fill="#f00"/>
   <path d="m27.503906 61.708107c-.09375.171875-.535156.90625-.945313 1.636719-.429687.734374-.882812 1.523437-1.027343 1.761718l-.253907.425782.613282.359374c.332031.1875.625.335938.652344.308594.02734-.02734.199218-.332031.402343-.695312.210938-.34375.410157-.625.476563-.625.05469 0 1.921875 1.054687 4.148437 2.347656 2.226563 1.277344 4.105469 2.34375 4.171875 2.359375.160156.03906 1.042969-1.480469.960938-1.628906-.03906-.06641-1.933594-1.183594-4.199219-2.492188l-4.121094-2.386719.265625-.519531c.28125-.558593.296875-.546875-.453125-.945312-.464843-.253907-.464843-.253907-.691406.09375zm0 0" fill="#f00"/>
   <path d="m196.66406 63.239357c-.50781.292969-.55859.359375-.41406.613281.082.160156.94531 1.761719 1.93359 3.535156.98828 1.785156 1.77344 3.265625 1.7461 3.277344-.21094.175781-1.59766.894531-1.625.867188-.0156-.02734-.26953-.480469-.54688-.984376-1.83984-3.414062-2.09375-3.789062-2.66797-4.066406-1.45312-.707031-2.83984.08984-3.98437 2.25-.45703.882813-1.28125 3.136719-1.28125 3.523438 0 .15625.71875.519531 1.32031.652344.12109.02734.26563-.269532.4375-.894532.375-1.347656.98828-2.558594 1.68359-3.292968.625-.667969 1.08985-.8125 1.51954-.480469.19921.171875 2.23828 3.746093 2.23828 3.945312 0 .05469-1.1875.75-2.625 1.546875-1.45313.800782-2.70703 1.507813-2.78907 1.574219-.11718.08203-.0391.320313.24219.839844.21094.402343.4375.761719.50391.800781.0664.03906 2.02734-.972656 4.34765-2.265625 2.32032-1.292969 4.24219-2.320313 4.25391-2.308594.0117.02734.13281.242188.25391.46875.2539.519531.38672.53125 1.03906.132813l.49219-.308594-2.65235-4.773438c-1.45312-2.625-2.6914-4.824218-2.75781-4.878906-.0547-.06641-.36328.03906-.66797.226563zm0 0" fill="#f00"/>
   <path d="m24.371093 66.907326c-.214843.464843-.652343 1.425781-1 2.160156-.335937.71875-.613281 1.332031-.613281 1.359375 0 .06641 1.039063.585937 1.171875.585937.06641 0 .253906-.304687.425782-.679687.175781-.375.363281-.695313.414062-.734375.06641-.02734.8125.269531 1.679688.679687 1.574218.734375 1.574218.734375 1.535156 1.160157-.08203.855468-.308594 1.253906-1.09375 1.949218-.785156.691406-1.066406.773438-1.066406.320313 0-.734375-1.175782-1.628907-2.121094-1.628907-1.304688 0-2.359375.90625-2.839844 2.453126-.292969.972656-.28125 2.082031.02734 2.972656l.160156.429687.679688-.335937c.386718-.199219.707031-.359375.707031-.371094.01172 0-.05469-.402344-.160157-.882812-.253906-1.238282-.03906-2 .652344-2.34375.8125-.429688 1.960938.410156 1.960938 1.425781 0 .292969-.09375.746093-.199219 1.011719-.109375.253906-.199219.496093-.199219.519531 0 .02734.316406.05469.71875.05469.691406 0 .734375-.01172.8125-.386718.132813-.640626.800782-1.441407 1.332032-1.613282.414062-.132812.589843-.121094 1.082031.06641 2 .761719 1.492187 2.800782-.878907 3.492188-.402343.121094-1.214843.253906-1.800781.296875l-1.066402.07812-.04297.828125-.03906.839844h.789062c.425782 0 1.238282-.121094 1.785156-.253907 2.667969-.679687 3.972657-2 3.972657-4.027343 0-1.425781-.625-2.492188-1.757813-2.988281-.320312-.144532-.601562-.265626-.628906-.277344-.02734-.02734.08203-.199219.242188-.402344.144531-.199219.277343-.492188.277343-.664062 0-.175782.05469-.320313.121094-.320313.06641 0 1 .414063 2.082031.933594 1.078125.503906 2 .933593 2.050782.933593.05469 0 .28125-.375.507812-.839843l.414062-.839844-4.386718-2.054687c-2.722656-1.253907-4.386719-2.105469-4.386719-2.226563 0-.105469.09375-.359375.199219-.574219l.199218-.386718-.613281-.28125c-.347656-.144534-.640625-.265628-.679687-.265628-.02734 0-.226563.375-.425782.828126zm0 0" fill="#f00"/>
   <path d="m200.82422 76.024513c-.44141.203125-.82813.375-.85547.402344-.0664.05469.64062 1.785156.80078 1.972656.10938.121094 1.85547-.558594 1.85547-.734375 0-.199219-.78906-1.90625-.89453-1.945312-.0547-.01172-.46485.121093-.90625.304687zm0 0" fill="#f00"/>
   <path d="m195.0625 78.481544l-.82422.371094.41016.988281c.23047.53125.42968 1 .45703 1.027344.10547.117187 1.92969-.707031 1.8789-.84375-.54687-1.359375-.83984-1.945313-.94921-1.929687-.0781 0-.51954.171874-.97266.386718zm0 0" fill="#f00"/>
   <path d="m18.742187 94.719828l-.597656 1.82812-2.015625.0664-2.011719.0664 1.585938 1.13282c.867187.625 1.585937 1.19922 1.585937 1.26562 0 .082-.265625.945312-.597656 1.933602-.335937.98828-.601563 1.8125-.601563 1.82812 0 .0273.558594-.35937 1.242188-.86719.664062-.49218 1.410156-1.03906 1.636719-1.1875l.414062-.29297 1.535157 1.1211c.851562.625 1.574218 1.13281 1.613281 1.13281.02734 0-.214844-.83984-.535157-1.87891-.332031-1.027342-.574218-1.882812-.558593-1.910152.02734-.0117.757812-.53125 1.625-1.16016l1.574219-1.11719-2.039063-.0664-2.027344-.0664-.558593-1.77344c-.308594-.97656-.589844-1.80078-.613282-1.82812-.02734-.0273-.320312.77344-.65625 1.77344zm0 0" fill="#f00"/>
   <path d="m202.90234 94.747168l-.58593 1.85156-2.01172.0391-2.01563.043 1.62891 1.17188 1.61328 1.17187-.64063 1.933602c-.35937 1.0664-.58593 1.89453-.49218 1.8164.0938-.0664.82422-.61328 1.65234-1.21484l1.49219-1.09375 1.54687 1.14844c.85547.64062 1.58594 1.13281 1.61328 1.10547.0273-.0391-.21093-.85157-.54687-1.83985-.32031-.972652-.55859-1.812502-.53125-1.867182.0391-.0547.75781-.60157 1.61328-1.21485l1.55859-1.11719-2.01171-.043-2.02735-.0391-.54687-1.75781c-.3086-.96094-.58594-1.80078-.64063-1.85547-.0391-.0508-.34765.7461-.66797 1.76172zm0 0" fill="#f00"/>
   <path d="m200.28906 114.6378c-.0234.0938-.0664.53515-.10547.97656l-.0664.8125 1.74609 1.22656 1.73438 1.22656-3.86719 1.86719-.082.96094c-.0391.53125-.0508.98437-.0234 1.01172.0234.0273 1.27734-.57422 2.77344-1.34766l2.73047-1.41406 1.90625.17578c1.05468.0938 1.93359.16016 1.93359.16016.0156-.0156.0547-.41407.082-.89454l.0781-.89453-1.26563-.0938c-2.64062-.19922-2.37109-.0781-5.02734-2.10547-1.30469-1-2.39844-1.82421-2.42578-1.82421-.0391 0-.0781.0781-.1211.15625zm0 0" fill="#f00"/>
   <path d="m17.902343 115.10655c-1.839843.0938-3.332031.1875-3.34375.21484 0 .0117.01172.37109.03906.8125l.05078.78516 2.363282-.0938c1.292968-.0508 2.597656-.11719 2.917968-.17188.308594-.0391.5625-.0156.5625.0391 0 .0664-1.269531.98828-2.800781 2.03907l-2.800781 1.92187v1.82813h.707031c.371094 0 2.253906-.0938 4.160156-.20313 1.90625-.10547 3.664063-.19922 3.90625-.19922h.441407l-.09375-.83984c-.05469-.45313-.09375-.82813-.109376-.83984 0 0-1.332031.0664-2.945312.16015-1.613281.0781-2.960938.13281-2.988281.10547-.07813-.0664-.292969.082 2.921875-2.10547 1.574218-1.07812 2.867187-2.05469 2.851562-2.16016 0-.10546-.01172-.49218-.02344-.85156l-.02734-.66797-1.226563.0117c-.679687.0156-2.734374.10938-4.5625.21485zm0 0" fill="#f00"/>
   <path d="m19.558593 123.85264c-2.308593.375-4.214843.67969-4.242187.69531-.05078.0391 1 6.7461 1.082031 6.8125.05078.0508 1.265625-.14843 1.359375-.24218.02734-.0234-.121093-1.14454-.347656-2.49219-.214844-1.34766-.375-2.48047-.347656-2.50781.08203-.0781 2.414062-.4375 2.46875-.3711.02734.0273.210937 1.05078.398437 2.26563l.347656 2.22656.667969-.0938c.371094-.0391.691407-.10547.730469-.13281.05469-.0547-.464844-3.67969-.597656-4.28125-.06641-.26563.01172-.29297.957031-.4375.5625-.082 1.042969-.13282 1.070313-.1211.01172.0273.183593 1.05469.386718 2.3086.183594 1.23828.371094 2.33203.398438 2.41015.02734.10938.226562.1211.679687.043.347657-.0664.667969-.14844.695313-.1875.07813-.0664.02344-.45312-.589844-4.375-.332031-2.07812-.371094-2.22656-.640625-2.21094-.15625.0117-2.171875.32032-4.476563.69141zm0 0" fill="#f00"/>
   <path d="m200.89062 123.69248c-1.03906.46875-1.57421 1.17579-1.94531 2.58594-.88281 3.26953 1.1836 5.80078 4.7461 5.82813.97265.0117 1.2539-.0391 1.97265-.35938 1.5586-.69531 2.39844-2.09375 2.53125-4.13281.0547-1.10938-.19922-2.51953-.55859-3.06641-.13281-.20312-.57422-.34765-1.91797-.61328l-1.75-.34765-.14453.67968c-.73438 3.64063-.76172 3.26563.26562 3.32032l.58594.0273.1875-.97656.19922-.97266.54687.0938c.29297.0391.58594.10938.64063.14844.17187.0938.375 1.03906.375 1.78515 0 1.09375-.41406 1.8125-1.34766 2.29297-.66797.35938-.80078.38672-1.69531.3086-1.74609-.14844-2.90625-.89453-3.22656-2.09375-.35938-1.32032.33594-2.57422 1.64062-2.97266.1875-.0547.22657-.22656.22657-.94922 0-.85156 0-.86719-.35938-.86719-.21484 0-.64062.13672-.97266.28125zm0 0" fill="#f00"/>
   <path d="m24.785156 130.91905c-.429687.0938-.546875.1875-.507813.34765.199219.67969.625 2.45313.585938 2.48047-.02734.0117-1.691406.4375-3.71875.9336l-3.667969.91796.1875.80079c.09375.45312.199219.83984.226563.86718.03906.0273 1.679687-.35937 3.652344-.85547 1.972656-.49218 3.652343-.86328 3.722656-.82421.05078.0508.226562.55859.359375 1.14453.320312 1.4414.292969 1.41406 1.117187 1.21484.535156-.12109.679688-.21484.628906-.38672-.03906-.12109-.375-1.48047-.746093-3.01172-.90625-3.75-.921875-3.80078-1.109375-3.78906-.09375.0156-.410156.082-.730469.16016zm0 0" fill="#f00"/>
   <path d="m199.28906 132.84092c-.85156.30469-1.89062 1.38672-2.26562 2.3711-.35938.94921-.49219 2.50781-.28125 3.16015.45312 1.35938 1.54687 2.35938 3.21484 2.90625 3.25391 1.08203 5.92188-.70703 6.10547-4.10547.0547-1.02734.0273-1.16015-.37109-1.97265-.4961-1.01563-1.32032-1.7461-2.4961-2.19922-1.02344-.40235-3.03906-.48047-3.90625-.16016zm3.02735 1.85156c1.92187.65235 2.71875 2.19922 1.92187 3.7461-.70703 1.41406-2.54687 1.72265-4.51953.76172-.94922-.46875-1.38672-1.06641-1.46875-2-.1875-2.26563 1.57422-3.34766 4.06641-2.50782zm0 0" fill="#f00"/>
   <path d="m18.542969 140.23936l.320312.83984 1.132812.0391 1.132813.043.613281 1.75782.628906 1.76172-.828124.74609-.824219.74609.304687.89453c.160156.49219.347656.87891.398438.85157.308594-.1211 7.203125-6.41407 7.203125-6.57422 0-.10547-.121094-.51953-.269531-.91797l-.277344-.71875-1.09375-.082c-.601563-.0391-2.8125-.10547-4.921875-.14453l-3.839844-.082zm7.789062 1.02734c-.09375.26563-2.667969 2.30469-2.761719 2.19922-.105469-.12109-.8125-2.05469-.8125-2.22656 0-.0547.8125-.0938 1.8125-.0938 1 0 1.785157.0547 1.761719.12109zm0 0" fill="#f00"/>
   <path d="m201.95703 145.17295c-.38672 1.1211-.74609 2.09375-.78516 2.14844-.0547.0508-1.67968-.44141-3.61328-1.10937-1.92187-.65235-3.52343-1.19922-3.53515-1.19922-.0547 0-.60157 1.64062-.5586 1.66797.0781.0781 8.26563 2.86718 8.39844 2.86718.0938 0 .62891-1.34765 1.1875-2.98828l1.02734-3-.61328-.19922c-.34765-.12109-.66797-.21484-.70703-.21484-.0547 0-.41406.92187-.80078 2.02734zm0 0" fill="#f00"/>
   <path d="m23.492187 147.66514c-1.203125.74609-1.546875 1.83984-1.042968 3.28125.519531 1.45313 1.816406 2.25391 3.160156 1.94531.640625-.14453 6.308594-2.46484 6.519531-2.66406.160156-.16016-.546875-1.65625-.746094-1.57422-.09375.0391-1.453125.60156-3.027343 1.26563-3.558594 1.49218-3.613282 1.50781-4.132813.98828-.652344-.66797-.480469-1.46875.453125-1.98828.242188-.13282.226562-.17188-.132812-.82422-.210938-.375-.4375-.6836-.519532-.6836-.06641 0-.304687.10938-.53125.25391zm0 0" fill="#f00"/>
   <path d="m193.33203 148.70811c-1.88281.65234-3.26953 3.4375-2.72266 5.45312.34766 1.27735 1.57422 2.45313 3.32032 3.13282 1.12109.45312 2.65234.42578 3.57422-.0391 2.10546-1.09375 3.12109-4.04296 2.0664-6.07031-.29297-.57031-1.1875-1.46484-1.8789-1.8789-1.3086-.77344-3.17579-1.02735-4.35938-.59766zm2.85156 1.97266c.41407.1875.96094.49218 1.19922.67968 1.29297.98438 1.28125 3-.0391 4-.89453.69141-2.39844.5586-3.8125-.33593-1.19922-.75782-1.67969-1.87891-1.30859-3.01172.19921-.61328.86718-1.375 1.40234-1.625.55859-.25391 1.64062-.13282 2.55859.29297zm0 0" fill="#f00"/>
   <path d="m28.890625 153.48155c-2.160156 1.0664-3.988282 1.94531-4.039063 1.97265-.160156.0508.585938 1.5586.773438 1.5586.06641 0 1.945312-.87891 4.160156-1.96094l4.023437-1.95703-.398437-.77344c-.214844-.42969-.441406-.77344-.492187-.76172-.05469 0-1.867188.86719-4.027344 1.92188zm0 0" fill="#f00"/>
   <path d="m188.11719 156.43858l-.41407.72265.375.22657c.21094.11718 1.3711.79687 2.58594 1.49218 1.22656.69141 2.22656 1.30469 2.22656 1.35938 0 .0664-.70703.10547-1.57421.10547-.87891 0-2.48047.043-3.58594.082l-2 .0938-.41406.74609-.39844.7461 3.94531 2.29297 3.96094 2.28125.35937-.61329c.19922-.34765.375-.69531.375-.76171 0-.0781-1.14843-.80079-2.54687-1.59766l-2.53516-1.46875 1.375-.0781c.75781-.0547 2.33203-.0938 3.50391-.10937l2.13672-.0117.4375-.71875c.22656-.40234.42578-.77344.42578-.85547 0-.0664-.87891-.64062-1.95703-1.26562-1.09375-.61328-2.85547-1.64063-3.92188-2.26563l-1.94531-1.12109zm0 0" fill="#f00"/>
   <path d="m34.277343 158.06748c-1.398437.64063-1.679687 1.85157-1 4.25391.480469 1.69141.492188 1.89063.160157 2.30469-.1875.24219-.386719.32031-.8125.32031-.480469 0-.628907-.0781-1.066407-.55859-.867187-.92188-.988281-2.13282-.269531-2.77344.359375-.32031.347657-.375-.226562-1.14844l-.503907-.67969-.546874.61329c-1 1.09375-1.109376 2.45312-.292969 3.98828.585937 1.11718 1.519531 2.02343 2.25 2.22656 1.175781.32031 2.453125-.16016 3.148437-1.1875.414063-.61328.414063-1.76172-.01172-3.22656-.46875-1.61328-.507813-1.90625-.363282-2.28125.28125-.73438 1.203125-.51953 1.816406.40234.492188.75781.546876 1.23828.199219 1.86328l-.292969.53516.425782.64062c.238281.35938.464844.67969.492187.70703.08203.11719.734375-.60156.988281-1.08203.492188-.97265.199219-2.4375-.746093-3.73047-.933594-1.28125-2.214844-1.72265-3.347657-1.1875zm0 0" fill="#f00"/>
   <path d="m183.53125 163.59873l-.49609.70704 1.46875 1.0664 1.45312 1.06641-1.07812 1.48047c-.58985.82812-1.08204 1.49218-1.10938 1.49218-.0117 0-.67969-.47656-1.48047-1.05078l-1.45312-1.05468-.51953.73437c-.28125.39844-.49219.74609-.48047.75781.4414.34766 7.13281 5.1875 7.24218 5.22657.0781.0273.38672-.25.66407-.625.49609-.66797.50781-.70704.26953-.87891-.13281-.10938-.83985-.61328-1.54688-1.13281-.72265-.50782-1.33593-.97657-1.375-1.02735-.0664-.12109 1.94532-2.93359 2.1211-2.94922.0547 0 .75781.48047 1.55859 1.07032.80078.58593 1.50781 1.07812 1.57422 1.10547.13281.0273 1.07812-1.16016 1.06641-1.33204 0-.10937-7.06641-5.26953-7.28125-5.33593-.0664-.0117-.33204.29297-.59766.67968zm0 0" fill="#f00"/>
   <path d="m37.957031 165.22764c-3.425781 2.58594-3.867188 3.09375-3.867188 4.42578 0 1.23828 1.425782 3.34766 2.601563 3.82813.625.26562 1.625.23828 2.265625-.0547.414062-.1875 5.011719-3.50781 5.585938-4.02734.160156-.14454-.839844-1.48047-1.050782-1.39844-.09375.0234-1.042968.71875-2.09375 1.51953-2.921875 2.22656-3.335937 2.48047-3.933594 2.38672-.933593-.14844-1.828124-1.4961-1.585937-2.40235.105469-.46484.585937-.89062 2.945313-2.66406 1.171874-.88281 2.210937-1.66797 2.320312-1.77344.160156-.14843.105469-.26953-.308594-.83984-.277344-.375-.546875-.67969-.585937-.66797-.05469 0-1.078125.76172-2.292969 1.66797zm0 0" fill="#f00"/>
   <path d="m42.675781 172.8253c-1.597656 1.4414-3.117188 2.80078-3.359375 3.04297l-.4375.42578 1.730469 1.90625c1.988281 2.19922 2.425781 2.54687 3.28125 2.64062 1.625.1836 3.144531-1.33594 2.734375-2.76172-.08203-.2539-.132813-.49218-.132813-.53125 0-.043.34375-.0547.757813-.0273.640625.0391.855469-.0156 1.226562-.26563.988281-.65625 1.28125-1.91015.707031-2.97656-.253906-.48047-3.238281-3.94531-3.480468-4.03906-.05469-.0117-1.414063 1.14844-3.027344 2.58594zm4.894531 1.72265c.132813.21094.253907.50391.253907.63672 0 .375-.71875 1.02735-1.121094 1.02735-.386719 0-1.105469-.59766-1.972656-1.64063l-.558594-.65234.796875-.71875.789062-.71875.773438.83984c.425781.45313.890625 1 1.039062 1.22656zm-3.800781 1.16016c1.335938 1.49219 1.613281 2.10547 1.253906 2.78516-.238281.4414-.878906.6914-1.386718.51953-.425782-.13282-2.347657-2.09375-2.347657-2.375 0-.14453 1.601563-1.625 1.761719-1.625.03906 0 .371094.32031.71875.69531zm0 0" fill="#f00"/>
   <path d="m178.46484 170.66514c-1.24218.33594-2.41406 1.49609-2.86718 2.81641-.3086.91797-.1875 2.23828.29296 3.11718.50782.9336 1.625 2.01563 2.64063 2.57422.75781.39844.91797.44141 1.96094.44141.92968 0 1.23828-.0547 1.73047-.32031 1.4414-.7461 2.49609-2.45313 2.35937-3.82813-.0664-.6914-.55859-1.91797-.77344-1.91797-.0664 0-.42578.1836-.78515.41016-.51953.32031-.65235.48047-.58594.64062.59766 1.41407.57422 2.01563-.14844 2.7461-.94531.94922-2.14453.85547-3.57031-.26563-1.82813-1.4414-2.1875-2.8789-1.02734-4.12109.5039-.54688.51953-.54688 1.48046-.54688l.95704-.0117.375-.7461.38671-.76172-.4414-.13281c-.77344-.23828-1.34375-.26562-1.98438-.0938zm0 0" fill="#f00"/>
   <path d="m170.79687 177.8253l-2.4414 2.26953 2.76172 2.95703c1.50781 1.62891 2.90625 3.13281 3.12109 3.34766l.37109.38671 1.375-1.26562c.75782-.70703 1.90625-1.77344 2.54688-2.38672l1.1875-1.12109-.53516-.51953-.53515-.50782-1.86328 1.7461-1.86719 1.75-.88281-.9336-.87891-.93359 1.02734-.97656c.57422-.51953 1.33203-1.23828 1.70703-1.58594l.66797-.625-.52343-.53516-.51954-.53125-1.63671 1.51953c-.89454.83985-1.6836 1.53125-1.73438 1.53125-.0664 0-.41406-.33203-.76172-.73046l-.64062-.73438 1.10937-1.03906c.61328-.57422 1.42578-1.33594 1.8125-1.69531l.70703-.64063-.50781-.51953c-.26562-.27734-.53125-.50391-.57422-.50391-.0391.0117-1.16015 1.02344-2.49219 2.27735zm0 0" fill="#f00"/>
   <path d="m48.304687 179.62608c-1.679687 1.86719-3.027344 3.41406-3 3.42578.03906.0156.332032.28125.664063.60156l.613281.57422 1.320312-1.44141c.722657-.78515 1.363282-1.4414 1.414063-1.4414.05469 0 .695313.53515 1.425781 1.1875l1.335938 1.17578-1.320313 1.46484c-.734375.80078-1.335937 1.50782-1.320312 1.54688.01172.0547.292969.34765.640625.65234l.613281.5625 2.597656-2.88281c1.429688-1.58594 2.800781-3.11719 3.054688-3.39844l.453125-.51953-.585938-.60156c-.320312-.32031-.613281-.58594-.667968-.58594-.05078 0-.625.60156-1.265626 1.32031l-1.171874 1.32032-.75-.65235c-.398438-.34765-1.023438-.91015-1.398438-1.22656l-.667969-.58984 1.242188-1.33204 1.226562-1.33203-.667969-.6289c-.359374-.33203-.667968-.61328-.691406-.59766-.02734 0-1.414062 1.53125-3.09375 3.39844zm0 0" fill="#f00"/>
   <path d="m164.86328 182.52061l-2.74609 2.14453.41406.57422c.22656.32031.45312.57422.49219.57422.0547 0 .55859-.375 1.13281-.82813.57422-.45312 1.06641-.75781 1.10937-.67968.0508.0664 1.10547 1.42578 2.34375 3.01562 2.46875 3.16016 2.25391 3.01172 3.17579 2.19922l.5039-.44141-2.33203-2.98437c-1.28125-1.65625-2.33203-3-2.33203-3.01563 0-.0117.48047-.39843 1.06641-.85156l1.07812-.82812-.42578-.53125c-.22656-.28125-.48047-.52344-.55859-.50782-.0938 0-1.40235.97266-2.92188 2.16016zm0 0" fill="#f00"/>
   <path d="m55.851562 185.79795c-2.214843 1.375-4.066406 2.54688-4.121093 2.58985-.09375.0938.03906.21093.933593.83984l.492188.35938.90625-.60157.90625-.61328 1.496093 1.1211c1.652344 1.23828 1.585938 1.09375 1.132813 2.375-.09375.27734-.175781.61328-.175781.74609 0 .30469 1.457031 1.41016 1.535156 1.17187.1875-.54687 2.464844-9.07812 2.464844-9.22656 0-.14844-1.359375-1.30469-1.492188-1.26562-.02734 0-1.851562 1.13281-4.078125 2.5039zm3.09375 1.4961c-.269531.90625-.507812 1.67968-.535156 1.70703-.02734.0234-.507813-.29297-1.066406-.72266l-1.027344-.75781 1.519531-.98828c.828125-.53125 1.535156-.94531 1.5625-.9336.02344.0273-.1875.78907-.453125 1.69532zm0 0" fill="#f00"/>
   <path d="m156.33203 188.18467c-1.38672.85547-2.50781 1.61328-2.50781 1.6836 0 .10546 4.45312 7.34375 4.67969 7.59765.0547.0664.41406-.0781.8125-.32031.38671-.25391.71875-.46484.74609-.48047.0156-.0117-.41406-.74609-.97266-1.64062-.55859-.89063-.97265-1.67969-.93359-1.7461.0391-.0664.44141-.34375.90625-.61328.45312-.27734 1.13281-.70703 1.51953-.94531l.69531-.44141-.35937-.59765c-.19922-.33594-.40235-.60157-.45313-.60157-.0664 0-.77343.41407-1.60156.9336-.82812.50781-1.53125.93359-1.58594.93359-.0938 0-1.1875-1.65234-1.1875-1.78516 0-.0273.83985-.57421 1.86719-1.21484l1.86719-1.16016-.33203-.54687c-.17578-.30469-.40235-.57422-.4961-.58594-.0938-.0156-1.29297.66797-2.66406 1.53125zm0 0" fill="#f00"/>
   <path d="m64.558593 187.48155c-.679687.23828-1.347656.95703-1.535156 1.65234-.265625.98438.242188 2.10547 1.46875 3.27734.796875.75 1.332032 1.52344 1.332032 1.89454 0 .83984-1.121094 1.22656-2.105469.71875-.988281-.50391-1.429688-1.30469-1.226563-2.21094l.105469-.48047-1.546875-.77344-.171875.42578c-.269531.61328-.230469 1.9336.06641 2.4961.53125 1.02343 1.839844 1.97265 3.199219 2.3164.824219.22657 1.359375.17578 2.078125-.18359.601563-.30859.855469-.58984 1.1875-1.33594.574219-1.26562.292969-2.0664-1.375-3.83984-1.144531-1.23828-1.371094-1.64063-1.210937-2.14453.199218-.62891 1.453124-.46875 2.265624.30468.414063.38672.46875.51954.46875 1.09375v.65235l.730469.40234c.855469.45313.933594.41406 1.082031-.57422.132813-.90625-.132812-1.58593-.933593-2.375-1.214844-1.17187-2.800781-1.71875-3.878907-1.3164zm0 0" fill="#f00"/>
   <path d="m149.91797 191.53233c-1.01563.33594-2.13281 1.08203-2.61328 1.74609-.53516.73438-.73438 1.54688-.65625 2.70703.12109 1.80078 1.42968 3.86719 2.88281 4.53516.48047.22656.87891.29297 1.69141.29297.94921 0 1.1875-.0547 1.97265-.44141 1.65625-.8125 2.62891-2.19922 2.62891-3.74609 0-1.3711-.96094-3.45313-2.01563-4.33203-1.0664-.90625-2.55859-1.19922-3.89062-.76172zm2.26562 1.76172c.90625.55859 1.77344 2.2539 1.77344 3.46484 0 .92188-.32031 1.54688-1.02734 1.98828-.73438.46485-1.34766.58594-2.05078.39844-1.10938-.30469-2.33594-2.03906-2.48047-3.51953-.1875-1.97266 2.09375-3.3711 3.78515-2.33203zm0 0" fill="#f00"/>
   <path d="m73.0625 194.4542c-1.398438 3.32032-1.503907 3.65235-1.503907 4.45313 0 1.22656.679688 2.0664 2.265626 2.82422.746093.36328 1.011718.41406 1.945312.41406.972656 0 1.121094-.0391 1.5625-.37109.265625-.20313.636719-.62891.824219-.96094.546875-.92188 2.746093-6.10547 2.640625-6.19922-.132813-.12109-1.546875-.67969-1.574219-.64063-.01172.0273-.492187 1.14454-1.066406 2.50782-.574219 1.35937-1.171875 2.74609-1.347657 3.08984-.332031.65625-.863281 1.04297-1.410156 1.04297-.453125-.0156-1.320312-.44141-1.707031-.85547-.5625-.625-.453125-1.14453.851563-4.21094.640624-1.50781 1.199218-2.80078 1.242187-2.89453.03906-.10547-.226563-.29297-.695313-.50781-.425781-.1875-.800781-.33203-.851562-.33203-.04297 0-.574219 1.1875-1.175781 2.64062zm0 0" fill="#f00"/>
   <path d="m141.63672 195.06748c-.64063.19922-.94531.35938-1.01172.54688-.0547.14453-.26953 1.06641-.46875 2.02344-.21094.97656-.42578 1.77343-.49219 1.77343-.0938 0-.64062-.46484-2.86719-2.4375-.28125-.2539-.29296-.2539-1.33203.0781-.57422.1875-2.5625.66797-4.40234 1.04297-1.85156.38672-3.42578.73047-3.49219.77344-.1875.11718.1211 1.5039.32031 1.42578.30469-.1211 2.46485-.51953 2.51954-.46875.0117.0273.38671 1.70703.80078 3.72265.42578 2.01172.78515 3.67969.80078 3.69141.0234.0391 1.57031-.34766 1.63672-.41406.043-.0391-.27735-1.69141-.69141-3.67969-.41406-2-.70703-3.66406-.64062-3.73438.0547-.0508.64062-.19921 1.29296-.33203l1.17579-.2539-.0938-.65235c-.0664-.54687-.0547-.64062.0938-.53515.0938.0703 1.16015.94922 2.37109 1.94922l2.21484 1.8125.5586 1.8125c.30859.98828.61328 1.80078.66797 1.80078.17187 0 1.41406-.42578 1.51953-.51953.0547-.0391-.17188-.87891-.49219-1.85547l-.57422-1.76953.77344-3.02735c.42578-1.66797.75781-3.02734.74609-3.04297 0-.0117-.42578.10938-.93359.26953zm0 0" fill="#f00"/>
   <path d="m81.304687 196.70811c-1.546875 4.98437-2.160156 7-2.121094 7.03906.121094.10547 1.464844.48047 1.519532.42578.03906-.0273.425781-1.2539.878906-2.70703.441406-1.46484.839844-2.70703.894531-2.75781.05469-.0547.414063 1.11719.800781 2.59766 1.160157 4.49218.960938 4.03906 1.894532 4.30859.453125.11719.839844.18359.878906.14453.09375-.0781 2.546875-8.02734 2.597656-8.39844.02734-.21484-.105468-.30859-.71875-.49218l-.757812-.23047-.402344 1.29687c-.210938.70313-.613281 2.01172-.890625 2.90625-.28125.90625-.523437 1.61328-.546875 1.58594-.04297-.0273-.453125-1.60156-.949219-3.48047l-.890625-3.42578-.800781-.25391c-.441406-.13281-.8125-.2539-.828125-.2539-.01172 0-.265625.76172-.558594 1.69531zm0 0" fill="#f00"/>
   <path d="m89.238281 201.77452c-.589844 2.33203-1.082031 4.33203-1.109375 4.45312-.05078.16016.136719.26563.773437.42578.46875.1211.867188.1875.894532.16016.02734-.0273.546875-2.02735 1.160156-4.44141l1.09375-4.38672-.746094-.17187c-.414062-.0938-.8125-.1875-.882812-.21485-.07813-.0391-.585938 1.76172-1.183594 4.17579zm0 0" fill="#f00"/>
   <path d="m92.625001 198.13389c0 .26563 1.19922 9.19922 1.2539 9.35938.0391.0781.46485.22656.95704.32031.83984.16015.90625.16015 1.08203-.082.10547-.13282 1.2539-1.97266 2.54687-4.07813 1.29297-2.10547 2.386719-3.73437 2.398439-3.61328.0273.10547-.14453 2.05469-.38672 4.32031-.23828 2.26563-.39844 4.14453-.37109 4.17188.10547.10547 6.54297.76172 6.73047.69531.12109-.0547.1875-.29297.1875-.74609 0-.54688-.0391-.66797-.22657-.66797-.46484-.0156-4.71875-.50781-4.78515-.5586-.0547-.0703.21093-2.41406.27734-2.48046.0273-.0273.85547.0508 1.85547.16015.98437.11719 2.01172.21094 2.27734.21094.44141 0 .46875-.0273.46875-.4375 0-.22656.0391-.54688.0781-.69531.0664-.26563-.0391-.28125-2.22656-.50782-1.26563-.13281-2.32032-.25-2.33204-.26562-.0273-.0391.19922-1.98438.23829-2.03906.0273-.0273 1.12109.0781 2.4414.22656 1.3086.13281 2.40235.22656 2.42578.19922.0273-.0273.082-.34766.13282-.71875l.082-.66797-.51953-.0781c-1.22657-.1875-5.77344-.60156-6.38672-.58984-.35938.0156-.933599-.0234-1.265629-.0781l-.6015-.0938-1.73438 3c-.94531 1.65234-1.77343 3.01171-1.82421 3.01171-.0664 0-.10938-.0781-.10938-.17187 0-.25391-.79687-6.8125-.83984-6.83984-.0117-.0117-.42578-.10547-.91797-.22657-.69531-.14843-.90625-.16015-.90625-.0391zm0 0" fill="#f00"/>
   <path d="m125.4375 199.16123c-.32031.0664-.60156.13282-.62891.16016-.0391.0391 1.3086 8.01172 1.48047 8.70313.0547.26953.0938.26953.89453.12109.8125-.14453.83985-.16016.80078-.54688-.0391-.41406-1.32031-7.80078-1.42578-8.29296-.082-.32032-.1875-.33204-1.12109-.14454zm0 0" fill="#f00"/>
   <path d="m118.95703 199.94639c-.94531.30859-1.46484.76172-1.82813 1.57422-.32031.69141-.25 1.42578.17579 2.11719.4375.70703 1.22656 1.08203 2.80078 1.32031 1.77344.26953 2.26562.44141 2.5039.88281.1875.32031.1875.39844-.0117.82422-.29297.60156-.92188.92188-1.83985.93359-.87891 0-1.375-.26562-1.73437-1l-.26563-.49218-.73437.17187c-.87891.20313-.91797.22656-.82813.62891.22656.8789 1.1875 1.85156 2.10938 2.10547 1.05078.30859 3 .0273 3.96093-.5586 1.3711-.85547 1.63672-3.02734.49219-4.17578-.53515-.51953-1.29297-.78515-2.90625-1-1.41406-.18359-1.93359-.35937-2.10937-.6914-.25-.45313-.0234-.90625.58984-1.17579 1.05078-.47656 2.16016-.25 2.47656.50782l.16016.375.85547-.13282c.94531-.13671.98437-.20312.67969-.92187-.22657-.57422-1.01172-1.23828-1.64063-1.41406-.75782-.21094-2.01173-.16016-2.90626.12109zm0 0" fill="#f00"/>
   <path d="m108.49219 202.18467c0 1.09375.0391 3.16016.0898 4.60156l.082 2.625h1.69141v-3.86328h.64062c1.01563.0117 1.16016.14453 2.7461 2.42578l.89453 1.30469h1.0664c1.06641 0 1.06641 0 .90625-.30469-.48047-.90625-1.78515-2.65234-2.32031-3.13281-.53125-.46875-.59766-.57422-.38672-.6289.14844-.0391.51953-.21094.85547-.38672 1.09375-.5586 1.53125-2.09375.94531-3.25391-.61328-1.19922-1.09375-1.34375-4.50781-1.35937h-2.70312zm5.34375-.11719c.29296.35938.33593 1.16016.0664 1.50391-.27734.38672-.83984.50781-2.19922.50781h-1.30468l-.0664-1.10547c-.043-.60156-.043-1.14843-.0156-1.19921.0391-.0664.78907-.0938 1.66797-.0664 1.49219.0391 1.61328.0664 1.85157.35937zm0 0" fill="#f00"/>
</svg>
